<?xml version="1.0" encoding="UTF-8"?>
<svg xmlns="http://www.w3.org/2000/svg" width="2000" height="8484" viewBox="0 0 2000 8484">
<rect x="56" y="56" width="1888" height="56" fill="none" stroke="#FFFFFF" stroke-width="1"/>
<text x="70" y="95" font-family="Courier New, Courier, monospace" font-size="26" fill="#FFFFFF" text-anchor="start">01  /  2026-05-24  /  18:20:06.603</text>
<text x="1930" y="95" font-family="Courier New, Courier, monospace" font-size="26" fill="#AAAAAA" text-anchor="end">aspect  1.926    lines  15407</text>
<rect x="56" y="122" width="1888" height="316" fill="none" stroke="#FFFFFF" stroke-width="1"/>
<text x="70" y="154" font-family="Courier New, Courier, monospace" font-size="18" fill="#555555" text-anchor="start">#</text>
<text x="136" y="154" font-family="Courier New, Courier, monospace" font-size="18" fill="#555555" text-anchor="start">ch</text>
<text x="336" y="154" font-family="Courier New, Courier, monospace" font-size="18" fill="#555555" text-anchor="start">t_start</text>
<text x="736" y="154" font-family="Courier New, Courier, monospace" font-size="18" fill="#555555" text-anchor="start">t_end</text>
<text x="1136" y="154" font-family="Courier New, Courier, monospace" font-size="18" fill="#555555" text-anchor="start">duration</text>
<text x="1456" y="154" font-family="Courier New, Courier, monospace" font-size="18" fill="#555555" text-anchor="start">ms</text>
<text x="1676" y="154" font-family="Courier New, Courier, monospace" font-size="18" fill="#555555" text-anchor="start">t_abs</text>
<line x1="56" y1="162" x2="1944" y2="162" stroke="#FFFFFF" stroke-width="1" opacity="0.35"/>
<text x="70" y="188" font-family="Courier New, Courier, monospace" font-size="22" fill="#AAAAAA" text-anchor="start">1</text>
<text x="136" y="188" font-family="Courier New, Courier, monospace" font-size="22" fill="#FFFFFF" text-anchor="start">R</text>
<text x="336" y="188" font-family="Courier New, Courier, monospace" font-size="22" fill="#FFFFFF" text-anchor="start">00:00.000</text>
<text x="736" y="188" font-family="Courier New, Courier, monospace" font-size="22" fill="#FFFFFF" text-anchor="start">00:02.140</text>
<text x="1136" y="188" font-family="Courier New, Courier, monospace" font-size="22" fill="#FFFFFF" text-anchor="start">2.140s</text>
<text x="1456" y="188" font-family="Courier New, Courier, monospace" font-size="22" fill="#AAAAAA" text-anchor="start">2140</text>
<text x="1676" y="188" font-family="Courier New, Courier, monospace" font-size="22" fill="#AAAAAA" text-anchor="start">18:20:06.603</text>
<line x1="56" y1="196" x2="1944" y2="196" stroke="#555555" stroke-width="1" opacity="0.25"/>
<text x="70" y="256" font-family="Courier New, Courier, monospace" font-size="22" fill="#AAAAAA" text-anchor="start">2</text>
<text x="136" y="256" font-family="Courier New, Courier, monospace" font-size="22" fill="#FFFFFF" text-anchor="start">G</text>
<text x="336" y="256" font-family="Courier New, Courier, monospace" font-size="22" fill="#FFFFFF" text-anchor="start">00:02.197</text>
<text x="736" y="256" font-family="Courier New, Courier, monospace" font-size="22" fill="#FFFFFF" text-anchor="start">00:04.337</text>
<text x="1136" y="256" font-family="Courier New, Courier, monospace" font-size="22" fill="#FFFFFF" text-anchor="start">2.140s</text>
<text x="1456" y="256" font-family="Courier New, Courier, monospace" font-size="22" fill="#AAAAAA" text-anchor="start">2140</text>
<text x="1676" y="256" font-family="Courier New, Courier, monospace" font-size="22" fill="#AAAAAA" text-anchor="start">18:20:08.800</text>
<line x1="56" y1="264" x2="1944" y2="264" stroke="#555555" stroke-width="1" opacity="0.25"/>
<text x="70" y="324" font-family="Courier New, Courier, monospace" font-size="22" fill="#AAAAAA" text-anchor="start">3</text>
<text x="136" y="324" font-family="Courier New, Courier, monospace" font-size="22" fill="#FFFFFF" text-anchor="start">B</text>
<text x="336" y="324" font-family="Courier New, Courier, monospace" font-size="22" fill="#FFFFFF" text-anchor="start">00:04.394</text>
<text x="736" y="324" font-family="Courier New, Courier, monospace" font-size="22" fill="#FFFFFF" text-anchor="start">00:06.534</text>
<text x="1136" y="324" font-family="Courier New, Courier, monospace" font-size="22" fill="#FFFFFF" text-anchor="start">2.140s</text>
<text x="1456" y="324" font-family="Courier New, Courier, monospace" font-size="22" fill="#AAAAAA" text-anchor="start">2140</text>
<text x="1676" y="324" font-family="Courier New, Courier, monospace" font-size="22" fill="#AAAAAA" text-anchor="start">18:20:10.997</text>
<line x1="56" y1="332" x2="1944" y2="332" stroke="#555555" stroke-width="1" opacity="0.25"/>
<text x="70" y="392" font-family="Courier New, Courier, monospace" font-size="22" fill="#AAAAAA" text-anchor="start">4</text>
<text x="136" y="392" font-family="Courier New, Courier, monospace" font-size="22" fill="#FFFFFF" text-anchor="start">C</text>
<text x="336" y="392" font-family="Courier New, Courier, monospace" font-size="22" fill="#FFFFFF" text-anchor="start">00:06.591</text>
<text x="736" y="392" font-family="Courier New, Courier, monospace" font-size="22" fill="#FFFFFF" text-anchor="start">00:08.731</text>
<text x="1136" y="392" font-family="Courier New, Courier, monospace" font-size="22" fill="#FFFFFF" text-anchor="start">2.140s</text>
<text x="1456" y="392" font-family="Courier New, Courier, monospace" font-size="22" fill="#AAAAAA" text-anchor="start">2140</text>
<text x="1676" y="392" font-family="Courier New, Courier, monospace" font-size="22" fill="#AAAAAA" text-anchor="start">18:20:13.194</text>
<rect x="56" y="448" width="1888" height="86" fill="none" stroke="#FFFFFF" stroke-width="1"/>
<text x="70" y="476" font-family="Courier New, Courier, monospace" font-size="16" fill="#AAAAAA" text-anchor="start">nodes  (0.000 0.520)  (0.270 0.270)  (0.500 0.630)  (0.700 0.170)  (1.000 0.410)</text>
<text x="70" y="506" font-family="Courier New, Courier, monospace" font-size="16" fill="#AAAAAA" text-anchor="start">box_w 520 px    aspect 1.926    lines 15407    n_nodes 5</text>
<text x="70" y="536" font-family="Courier New, Courier, monospace" font-size="16" fill="#AAAAAA" text-anchor="start">t0_abs  [R] 1779672006603  [G] 1779672008800  [B] 1779672010997  [C] 1779672013194</text>
<rect x="56" y="544" width="1888" height="2228" fill="#0C0C0C" stroke="#FFFFFF" stroke-width="1"/>
<text x="70" y="570" font-family="Courier New, Courier, monospace" font-size="16" fill="#555555" text-anchor="start">speed  ↑</text>
<text x="1930" y="2762" font-family="Courier New, Courier, monospace" font-size="16" fill="#555555" text-anchor="end">time →</text>
<line x1="96" y1="1672" x2="1904" y2="1672" stroke="#555555" stroke-width="0.75" stroke-dasharray="6,10"/>
<polyline fill="none" stroke="#FFFFFF" stroke-width="1.5" stroke-linejoin="round" points="96.0,1714.4 104.1,1705.0 113.2,1693.5 123.3,1680.0 134.2,1664.7 145.9,1647.7 158.4,1629.4 171.5,1609.7 185.4,1588.9 199.9,1567.1 214.9,1544.5 230.5,1521.3 246.5,1497.6 262.9,1473.7 279.7,1449.6 296.8,1425.5 314.1,1401.7 331.6,1378.2 349.3,1355.3 367.1,1333.1 384.9,1311.7 402.8,1291.4 420.6,1272.3 438.2,1254.6 455.8,1238.4 473.1,1223.9 490.1,1211.3 506.9,1200.7 523.3,1192.4 539.2,1186.4 554.7,1183.0 569.7,1182.3 584.2,1184.4 598.2,1190.1 612.2,1199.8 626.1,1213.1 640.0,1229.8 653.7,1249.6 667.4,1272.3 681.0,1297.5 694.5,1325.0 707.9,1354.5 721.3,1385.8 734.6,1418.4 747.8,1452.3 760.9,1487.0 774.0,1522.4 787.0,1558.1 800.0,1593.8 812.9,1629.4 825.7,1664.4 838.5,1698.7 851.2,1731.9 863.9,1763.8 876.5,1794.1 889.0,1822.5 901.5,1848.7 914.0,1872.5 926.4,1893.6 938.8,1911.7 951.1,1926.5 963.4,1937.8 975.6,1945.3 987.8,1948.6 1000.0,1947.6 1012.0,1941.9 1023.8,1931.7 1035.3,1917.2 1046.6,1898.7 1057.7,1876.6 1068.6,1851.1 1079.3,1822.6 1090.0,1791.2 1100.5,1757.4 1110.9,1721.4 1121.3,1683.5 1131.6,1644.0 1141.9,1603.2 1152.2,1561.4 1162.5,1518.9 1172.9,1475.9 1183.3,1432.8 1193.8,1389.9 1204.4,1347.5 1215.1,1305.8 1226.0,1265.2 1237.1,1225.9 1248.3,1188.3 1259.8,1152.6 1271.4,1119.2 1283.4,1088.2 1295.6,1060.1 1308.1,1035.2 1321.0,1013.6 1334.1,995.8 1347.7,981.9 1361.6,972.4 1376.2,966.8 1391.5,964.4 1407.6,965.0 1424.5,968.5 1441.9,974.6 1459.9,983.2 1478.3,994.1 1497.2,1007.2 1516.4,1022.2 1536.0,1038.9 1555.7,1057.2 1575.6,1076.9 1595.6,1097.8 1615.6,1119.7 1635.5,1142.4 1655.4,1165.8 1675.1,1189.7 1694.5,1213.9 1713.6,1238.2 1732.4,1262.5 1750.7,1286.4 1768.5,1310.0 1785.7,1332.9 1802.3,1355.0 1818.2,1376.1 1833.3,1396.1 1847.6,1414.7 1860.9,1431.8 1873.3,1447.2 1884.7,1460.7 1894.9,1472.1 1904.0,1481.2 "/>
<rect x="56" y="2884" width="1888" height="56" fill="none" stroke="#FFFFFF" stroke-width="1"/>
<text x="70" y="2923" font-family="Courier New, Courier, monospace" font-size="26" fill="#FFFFFF" text-anchor="start">02  /  2026-05-24  /  18:20:08.398</text>
<text x="1930" y="2923" font-family="Courier New, Courier, monospace" font-size="26" fill="#AAAAAA" text-anchor="end">aspect  1.926    lines  15407</text>
<rect x="56" y="2950" width="1888" height="316" fill="none" stroke="#FFFFFF" stroke-width="1"/>
<text x="70" y="2982" font-family="Courier New, Courier, monospace" font-size="18" fill="#555555" text-anchor="start">#</text>
<text x="136" y="2982" font-family="Courier New, Courier, monospace" font-size="18" fill="#555555" text-anchor="start">ch</text>
<text x="336" y="2982" font-family="Courier New, Courier, monospace" font-size="18" fill="#555555" text-anchor="start">t_start</text>
<text x="736" y="2982" font-family="Courier New, Courier, monospace" font-size="18" fill="#555555" text-anchor="start">t_end</text>
<text x="1136" y="2982" font-family="Courier New, Courier, monospace" font-size="18" fill="#555555" text-anchor="start">duration</text>
<text x="1456" y="2982" font-family="Courier New, Courier, monospace" font-size="18" fill="#555555" text-anchor="start">ms</text>
<text x="1676" y="2982" font-family="Courier New, Courier, monospace" font-size="18" fill="#555555" text-anchor="start">t_abs</text>
<line x1="56" y1="2990" x2="1944" y2="2990" stroke="#FFFFFF" stroke-width="1" opacity="0.35"/>
<text x="70" y="3016" font-family="Courier New, Courier, monospace" font-size="22" fill="#AAAAAA" text-anchor="start">1</text>
<text x="136" y="3016" font-family="Courier New, Courier, monospace" font-size="22" fill="#FFFFFF" text-anchor="start">R</text>
<text x="336" y="3016" font-family="Courier New, Courier, monospace" font-size="22" fill="#FFFFFF" text-anchor="start">00:00.000</text>
<text x="736" y="3016" font-family="Courier New, Courier, monospace" font-size="22" fill="#FFFFFF" text-anchor="start">00:02.140</text>
<text x="1136" y="3016" font-family="Courier New, Courier, monospace" font-size="22" fill="#FFFFFF" text-anchor="start">2.140s</text>
<text x="1456" y="3016" font-family="Courier New, Courier, monospace" font-size="22" fill="#AAAAAA" text-anchor="start">2140</text>
<text x="1676" y="3016" font-family="Courier New, Courier, monospace" font-size="22" fill="#AAAAAA" text-anchor="start">18:20:08.398</text>
<line x1="56" y1="3024" x2="1944" y2="3024" stroke="#555555" stroke-width="1" opacity="0.25"/>
<text x="70" y="3084" font-family="Courier New, Courier, monospace" font-size="22" fill="#AAAAAA" text-anchor="start">2</text>
<text x="136" y="3084" font-family="Courier New, Courier, monospace" font-size="22" fill="#FFFFFF" text-anchor="start">G</text>
<text x="336" y="3084" font-family="Courier New, Courier, monospace" font-size="22" fill="#FFFFFF" text-anchor="start">00:02.197</text>
<text x="736" y="3084" font-family="Courier New, Courier, monospace" font-size="22" fill="#FFFFFF" text-anchor="start">00:04.337</text>
<text x="1136" y="3084" font-family="Courier New, Courier, monospace" font-size="22" fill="#FFFFFF" text-anchor="start">2.140s</text>
<text x="1456" y="3084" font-family="Courier New, Courier, monospace" font-size="22" fill="#AAAAAA" text-anchor="start">2140</text>
<text x="1676" y="3084" font-family="Courier New, Courier, monospace" font-size="22" fill="#AAAAAA" text-anchor="start">18:20:10.595</text>
<line x1="56" y1="3092" x2="1944" y2="3092" stroke="#555555" stroke-width="1" opacity="0.25"/>
<text x="70" y="3152" font-family="Courier New, Courier, monospace" font-size="22" fill="#AAAAAA" text-anchor="start">3</text>
<text x="136" y="3152" font-family="Courier New, Courier, monospace" font-size="22" fill="#FFFFFF" text-anchor="start">B</text>
<text x="336" y="3152" font-family="Courier New, Courier, monospace" font-size="22" fill="#FFFFFF" text-anchor="start">00:04.394</text>
<text x="736" y="3152" font-family="Courier New, Courier, monospace" font-size="22" fill="#FFFFFF" text-anchor="start">00:06.534</text>
<text x="1136" y="3152" font-family="Courier New, Courier, monospace" font-size="22" fill="#FFFFFF" text-anchor="start">2.140s</text>
<text x="1456" y="3152" font-family="Courier New, Courier, monospace" font-size="22" fill="#AAAAAA" text-anchor="start">2140</text>
<text x="1676" y="3152" font-family="Courier New, Courier, monospace" font-size="22" fill="#AAAAAA" text-anchor="start">18:20:12.792</text>
<line x1="56" y1="3160" x2="1944" y2="3160" stroke="#555555" stroke-width="1" opacity="0.25"/>
<text x="70" y="3220" font-family="Courier New, Courier, monospace" font-size="22" fill="#AAAAAA" text-anchor="start">4</text>
<text x="136" y="3220" font-family="Courier New, Courier, monospace" font-size="22" fill="#FFFFFF" text-anchor="start">C</text>
<text x="336" y="3220" font-family="Courier New, Courier, monospace" font-size="22" fill="#FFFFFF" text-anchor="start">00:06.591</text>
<text x="736" y="3220" font-family="Courier New, Courier, monospace" font-size="22" fill="#FFFFFF" text-anchor="start">00:08.731</text>
<text x="1136" y="3220" font-family="Courier New, Courier, monospace" font-size="22" fill="#FFFFFF" text-anchor="start">2.140s</text>
<text x="1456" y="3220" font-family="Courier New, Courier, monospace" font-size="22" fill="#AAAAAA" text-anchor="start">2140</text>
<text x="1676" y="3220" font-family="Courier New, Courier, monospace" font-size="22" fill="#AAAAAA" text-anchor="start">18:20:14.989</text>
<rect x="56" y="3276" width="1888" height="86" fill="none" stroke="#FFFFFF" stroke-width="1"/>
<text x="70" y="3304" font-family="Courier New, Courier, monospace" font-size="16" fill="#AAAAAA" text-anchor="start">nodes  (0.000 0.520)  (0.270 0.270)  (0.500 0.630)  (0.700 0.170)  (1.000 0.410)</text>
<text x="70" y="3334" font-family="Courier New, Courier, monospace" font-size="16" fill="#AAAAAA" text-anchor="start">box_w 520 px    aspect 1.926    lines 15407    n_nodes 5</text>
<text x="70" y="3364" font-family="Courier New, Courier, monospace" font-size="16" fill="#AAAAAA" text-anchor="start">t0_abs  [R] 1779672008398  [G] 1779672010595  [B] 1779672012792  [C] 1779672014989</text>
<rect x="56" y="3372" width="1888" height="2228" fill="#0C0C0C" stroke="#FFFFFF" stroke-width="1"/>
<text x="70" y="3398" font-family="Courier New, Courier, monospace" font-size="16" fill="#555555" text-anchor="start">speed  ↑</text>
<text x="1930" y="5590" font-family="Courier New, Courier, monospace" font-size="16" fill="#555555" text-anchor="end">time →</text>
<line x1="96" y1="4500" x2="1904" y2="4500" stroke="#555555" stroke-width="0.75" stroke-dasharray="6,10"/>
<polyline fill="none" stroke="#FFFFFF" stroke-width="1.5" stroke-linejoin="round" points="96.0,4542.4 104.1,4533.0 113.2,4521.5 123.3,4508.0 134.2,4492.7 145.9,4475.7 158.4,4457.4 171.5,4437.7 185.4,4416.9 199.9,4395.1 214.9,4372.5 230.5,4349.3 246.5,4325.6 262.9,4301.7 279.7,4277.6 296.8,4253.5 314.1,4229.7 331.6,4206.2 349.3,4183.3 367.1,4161.1 384.9,4139.7 402.8,4119.4 420.6,4100.3 438.2,4082.6 455.8,4066.4 473.1,4051.9 490.1,4039.3 506.9,4028.7 523.3,4020.4 539.2,4014.4 554.7,4011.0 569.7,4010.3 584.2,4012.4 598.2,4018.1 612.2,4027.8 626.1,4041.1 640.0,4057.8 653.7,4077.6 667.4,4100.3 681.0,4125.5 694.5,4153.0 707.9,4182.5 721.3,4213.8 734.6,4246.4 747.8,4280.3 760.9,4315.0 774.0,4350.4 787.0,4386.1 800.0,4421.8 812.9,4457.4 825.7,4492.4 838.5,4526.7 851.2,4559.9 863.9,4591.8 876.5,4622.1 889.0,4650.5 901.5,4676.7 914.0,4700.5 926.4,4721.6 938.8,4739.7 951.1,4754.5 963.4,4765.8 975.6,4773.3 987.8,4776.6 1000.0,4775.6 1012.0,4769.9 1023.8,4759.7 1035.3,4745.2 1046.6,4726.7 1057.7,4704.6 1068.6,4679.1 1079.3,4650.6 1090.0,4619.3 1100.5,4585.4 1110.9,4549.4 1121.3,4511.5 1131.6,4472.0 1141.9,4431.2 1152.2,4389.4 1162.5,4346.9 1172.9,4303.9 1183.3,4260.8 1193.8,4217.9 1204.4,4175.5 1215.1,4133.8 1226.0,4093.2 1237.1,4053.9 1248.3,4016.3 1259.8,3980.6 1271.4,3947.2 1283.4,3916.2 1295.6,3888.1 1308.1,3863.2 1321.0,3841.6 1334.1,3823.8 1347.7,3809.9 1361.6,3800.4 1376.2,3794.8 1391.5,3792.4 1407.6,3793.0 1424.5,3796.5 1441.9,3802.6 1459.9,3811.2 1478.3,3822.1 1497.2,3835.2 1516.4,3850.2 1536.0,3866.9 1555.7,3885.2 1575.6,3904.9 1595.6,3925.8 1615.6,3947.7 1635.5,3970.4 1655.4,3993.8 1675.1,4017.7 1694.5,4041.9 1713.6,4066.2 1732.4,4090.5 1750.7,4114.4 1768.5,4138.0 1785.7,4160.9 1802.3,4183.0 1818.2,4204.1 1833.3,4224.1 1847.6,4242.7 1860.9,4259.8 1873.3,4275.2 1884.7,4288.7 1894.9,4300.1 1904.0,4309.2 "/>
<rect x="56" y="5712" width="1888" height="56" fill="none" stroke="#FFFFFF" stroke-width="1"/>
<text x="70" y="5751" font-family="Courier New, Courier, monospace" font-size="26" fill="#FFFFFF" text-anchor="start">03  /  2026-05-24  /  18:20:10.035</text>
<text x="1930" y="5751" font-family="Courier New, Courier, monospace" font-size="26" fill="#AAAAAA" text-anchor="end">aspect  1.926    lines  15407</text>
<rect x="56" y="5778" width="1888" height="316" fill="none" stroke="#FFFFFF" stroke-width="1"/>
<text x="70" y="5810" font-family="Courier New, Courier, monospace" font-size="18" fill="#555555" text-anchor="start">#</text>
<text x="136" y="5810" font-family="Courier New, Courier, monospace" font-size="18" fill="#555555" text-anchor="start">ch</text>
<text x="336" y="5810" font-family="Courier New, Courier, monospace" font-size="18" fill="#555555" text-anchor="start">t_start</text>
<text x="736" y="5810" font-family="Courier New, Courier, monospace" font-size="18" fill="#555555" text-anchor="start">t_end</text>
<text x="1136" y="5810" font-family="Courier New, Courier, monospace" font-size="18" fill="#555555" text-anchor="start">duration</text>
<text x="1456" y="5810" font-family="Courier New, Courier, monospace" font-size="18" fill="#555555" text-anchor="start">ms</text>
<text x="1676" y="5810" font-family="Courier New, Courier, monospace" font-size="18" fill="#555555" text-anchor="start">t_abs</text>
<line x1="56" y1="5818" x2="1944" y2="5818" stroke="#FFFFFF" stroke-width="1" opacity="0.35"/>
<text x="70" y="5844" font-family="Courier New, Courier, monospace" font-size="22" fill="#AAAAAA" text-anchor="start">1</text>
<text x="136" y="5844" font-family="Courier New, Courier, monospace" font-size="22" fill="#FFFFFF" text-anchor="start">R</text>
<text x="336" y="5844" font-family="Courier New, Courier, monospace" font-size="22" fill="#FFFFFF" text-anchor="start">00:00.000</text>
<text x="736" y="5844" font-family="Courier New, Courier, monospace" font-size="22" fill="#FFFFFF" text-anchor="start">00:02.140</text>
<text x="1136" y="5844" font-family="Courier New, Courier, monospace" font-size="22" fill="#FFFFFF" text-anchor="start">2.140s</text>
<text x="1456" y="5844" font-family="Courier New, Courier, monospace" font-size="22" fill="#AAAAAA" text-anchor="start">2140</text>
<text x="1676" y="5844" font-family="Courier New, Courier, monospace" font-size="22" fill="#AAAAAA" text-anchor="start">18:20:10.035</text>
<line x1="56" y1="5852" x2="1944" y2="5852" stroke="#555555" stroke-width="1" opacity="0.25"/>
<text x="70" y="5912" font-family="Courier New, Courier, monospace" font-size="22" fill="#AAAAAA" text-anchor="start">2</text>
<text x="136" y="5912" font-family="Courier New, Courier, monospace" font-size="22" fill="#FFFFFF" text-anchor="start">G</text>
<text x="336" y="5912" font-family="Courier New, Courier, monospace" font-size="22" fill="#FFFFFF" text-anchor="start">00:02.197</text>
<text x="736" y="5912" font-family="Courier New, Courier, monospace" font-size="22" fill="#FFFFFF" text-anchor="start">00:04.337</text>
<text x="1136" y="5912" font-family="Courier New, Courier, monospace" font-size="22" fill="#FFFFFF" text-anchor="start">2.140s</text>
<text x="1456" y="5912" font-family="Courier New, Courier, monospace" font-size="22" fill="#AAAAAA" text-anchor="start">2140</text>
<text x="1676" y="5912" font-family="Courier New, Courier, monospace" font-size="22" fill="#AAAAAA" text-anchor="start">18:20:12.232</text>
<line x1="56" y1="5920" x2="1944" y2="5920" stroke="#555555" stroke-width="1" opacity="0.25"/>
<text x="70" y="5980" font-family="Courier New, Courier, monospace" font-size="22" fill="#AAAAAA" text-anchor="start">3</text>
<text x="136" y="5980" font-family="Courier New, Courier, monospace" font-size="22" fill="#FFFFFF" text-anchor="start">B</text>
<text x="336" y="5980" font-family="Courier New, Courier, monospace" font-size="22" fill="#FFFFFF" text-anchor="start">00:04.394</text>
<text x="736" y="5980" font-family="Courier New, Courier, monospace" font-size="22" fill="#FFFFFF" text-anchor="start">00:06.534</text>
<text x="1136" y="5980" font-family="Courier New, Courier, monospace" font-size="22" fill="#FFFFFF" text-anchor="start">2.140s</text>
<text x="1456" y="5980" font-family="Courier New, Courier, monospace" font-size="22" fill="#AAAAAA" text-anchor="start">2140</text>
<text x="1676" y="5980" font-family="Courier New, Courier, monospace" font-size="22" fill="#AAAAAA" text-anchor="start">18:20:14.429</text>
<line x1="56" y1="5988" x2="1944" y2="5988" stroke="#555555" stroke-width="1" opacity="0.25"/>
<text x="70" y="6048" font-family="Courier New, Courier, monospace" font-size="22" fill="#AAAAAA" text-anchor="start">4</text>
<text x="136" y="6048" font-family="Courier New, Courier, monospace" font-size="22" fill="#FFFFFF" text-anchor="start">C</text>
<text x="336" y="6048" font-family="Courier New, Courier, monospace" font-size="22" fill="#FFFFFF" text-anchor="start">00:06.591</text>
<text x="736" y="6048" font-family="Courier New, Courier, monospace" font-size="22" fill="#FFFFFF" text-anchor="start">00:08.731</text>
<text x="1136" y="6048" font-family="Courier New, Courier, monospace" font-size="22" fill="#FFFFFF" text-anchor="start">2.140s</text>
<text x="1456" y="6048" font-family="Courier New, Courier, monospace" font-size="22" fill="#AAAAAA" text-anchor="start">2140</text>
<text x="1676" y="6048" font-family="Courier New, Courier, monospace" font-size="22" fill="#AAAAAA" text-anchor="start">18:20:16.626</text>
<rect x="56" y="6104" width="1888" height="86" fill="none" stroke="#FFFFFF" stroke-width="1"/>
<text x="70" y="6132" font-family="Courier New, Courier, monospace" font-size="16" fill="#AAAAAA" text-anchor="start">nodes  (0.000 0.520)  (0.270 0.270)  (0.500 0.630)  (0.700 0.170)  (1.000 0.410)</text>
<text x="70" y="6162" font-family="Courier New, Courier, monospace" font-size="16" fill="#AAAAAA" text-anchor="start">box_w 520 px    aspect 1.926    lines 15407    n_nodes 5</text>
<text x="70" y="6192" font-family="Courier New, Courier, monospace" font-size="16" fill="#AAAAAA" text-anchor="start">t0_abs  [R] 1779672010035  [G] 1779672012232  [B] 1779672014429  [C] 1779672016626</text>
<rect x="56" y="6200" width="1888" height="2228" fill="#0C0C0C" stroke="#FFFFFF" stroke-width="1"/>
<text x="70" y="6226" font-family="Courier New, Courier, monospace" font-size="16" fill="#555555" text-anchor="start">speed  ↑</text>
<text x="1930" y="8418" font-family="Courier New, Courier, monospace" font-size="16" fill="#555555" text-anchor="end">time →</text>
<line x1="96" y1="7328" x2="1904" y2="7328" stroke="#555555" stroke-width="0.75" stroke-dasharray="6,10"/>
<polyline fill="none" stroke="#FFFFFF" stroke-width="1.5" stroke-linejoin="round" points="96.0,7370.4 104.1,7361.0 113.2,7349.5 123.3,7336.0 134.2,7320.7 145.9,7303.7 158.4,7285.4 171.5,7265.7 185.4,7244.9 199.9,7223.1 214.9,7200.5 230.5,7177.3 246.5,7153.6 262.9,7129.7 279.7,7105.6 296.8,7081.5 314.1,7057.7 331.6,7034.2 349.3,7011.3 367.1,6989.1 384.9,6967.7 402.8,6947.4 420.6,6928.3 438.2,6910.6 455.8,6894.4 473.1,6879.9 490.1,6867.3 506.9,6856.7 523.3,6848.4 539.2,6842.4 554.7,6839.0 569.7,6838.3 584.2,6840.4 598.2,6846.1 612.2,6855.8 626.1,6869.1 640.0,6885.8 653.7,6905.6 667.4,6928.3 681.0,6953.5 694.5,6981.0 707.9,7010.5 721.3,7041.8 734.6,7074.4 747.8,7108.3 760.9,7143.0 774.0,7178.4 787.0,7214.1 800.0,7249.8 812.9,7285.4 825.7,7320.4 838.5,7354.7 851.2,7387.9 863.9,7419.8 876.5,7450.1 889.0,7478.5 901.5,7504.7 914.0,7528.5 926.4,7549.6 938.8,7567.7 951.1,7582.5 963.4,7593.8 975.6,7601.3 987.8,7604.6 1000.0,7603.6 1012.0,7597.9 1023.8,7587.7 1035.3,7573.2 1046.6,7554.7 1057.7,7532.6 1068.6,7507.1 1079.3,7478.6 1090.0,7447.3 1100.5,7413.4 1110.9,7377.4 1121.3,7339.5 1131.6,7300.0 1141.9,7259.2 1152.2,7217.4 1162.5,7174.9 1172.9,7131.9 1183.3,7088.8 1193.8,7045.9 1204.4,7003.5 1215.1,6961.8 1226.0,6921.2 1237.1,6881.9 1248.3,6844.3 1259.8,6808.6 1271.4,6775.2 1283.4,6744.2 1295.6,6716.1 1308.1,6691.2 1321.0,6669.6 1334.1,6651.8 1347.7,6637.9 1361.6,6628.4 1376.2,6622.8 1391.5,6620.4 1407.6,6621.0 1424.5,6624.5 1441.9,6630.6 1459.9,6639.2 1478.3,6650.1 1497.2,6663.2 1516.4,6678.2 1536.0,6694.9 1555.7,6713.2 1575.6,6732.9 1595.6,6753.8 1615.6,6775.7 1635.5,6798.4 1655.4,6821.9 1675.1,6845.7 1694.5,6869.9 1713.6,6894.2 1732.4,6918.5 1750.7,6942.4 1768.5,6966.0 1785.7,6988.9 1802.3,7011.0 1818.2,7032.1 1833.3,7052.1 1847.6,7070.7 1860.9,7087.8 1873.3,7103.2 1884.7,7116.7 1894.9,7128.1 1904.0,7137.2 "/>
</svg>
