%TF.GenerationSoftware,KiCad,Pcbnew,10.0.2*%
%TF.CreationDate,2026-05-17T19:54:17-07:00*%
%TF.ProjectId,teensy41_pendant_carrier,7465656e-7379-4343-915f-70656e64616e,B*%
%TF.SameCoordinates,Original*%
%TF.FileFunction,Copper,L1,Top*%
%TF.FilePolarity,Positive*%
%FSLAX46Y46*%
G04 Gerber Fmt 4.6, Leading zero omitted, Abs format (unit mm)*
G04 Created by KiCad (PCBNEW 10.0.2) date 2026-05-17 19:54:17*
%MOMM*%
%LPD*%
G01*
G04 APERTURE LIST*
G04 Aperture macros list*
%AMRoundRect*
0 Rectangle with rounded corners*
0 $1 Rounding radius*
0 $2 $3 $4 $5 $6 $7 $8 $9 X,Y pos of 4 corners*
0 Add a 4 corners polygon primitive as box body*
4,1,4,$2,$3,$4,$5,$6,$7,$8,$9,$2,$3,0*
0 Add four circle primitives for the rounded corners*
1,1,$1+$1,$2,$3*
1,1,$1+$1,$4,$5*
1,1,$1+$1,$6,$7*
1,1,$1+$1,$8,$9*
0 Add four rect primitives between the rounded corners*
20,1,$1+$1,$2,$3,$4,$5,0*
20,1,$1+$1,$4,$5,$6,$7,0*
20,1,$1+$1,$6,$7,$8,$9,0*
20,1,$1+$1,$8,$9,$2,$3,0*%
G04 Aperture macros list end*
%TA.AperFunction,SMDPad,CuDef*%
%ADD10RoundRect,0.250000X-0.262500X-0.450000X0.262500X-0.450000X0.262500X0.450000X-0.262500X0.450000X0*%
%TD*%
%TA.AperFunction,ComponentPad*%
%ADD11R,1.800000X1.800000*%
%TD*%
%TA.AperFunction,ComponentPad*%
%ADD12C,1.800000*%
%TD*%
%TA.AperFunction,ComponentPad*%
%ADD13R,1.700000X1.700000*%
%TD*%
%TA.AperFunction,ComponentPad*%
%ADD14C,1.700000*%
%TD*%
%TA.AperFunction,ViaPad*%
%ADD15C,0.800000*%
%TD*%
%TA.AperFunction,Conductor*%
%ADD16C,0.300000*%
%TD*%
G04 APERTURE END LIST*
D10*
%TO.P,C3,1*%
%TO.N,BTN1*%
X112087500Y-167000000D03*
%TO.P,C3,2*%
%TO.N,GND*%
X113912500Y-167000000D03*
%TD*%
%TO.P,R1,1*%
%TO.N,+3V3*%
X112087500Y-153000000D03*
%TO.P,R1,2*%
%TO.N,ENC_A*%
X113912500Y-153000000D03*
%TD*%
D11*
%TO.P,J3,1*%
%TO.N,+5V*%
X128000000Y-144000000D03*
D12*
%TO.P,J3,2*%
%TO.N,ENC_A*%
X128000000Y-141500000D03*
%TO.P,J3,3*%
%TO.N,ENC_B*%
X128000000Y-139000000D03*
%TO.P,J3,4*%
%TO.N,GND*%
X128000000Y-136500000D03*
%TO.P,J3,5*%
%TO.N,ENC_SW*%
X128000000Y-134000000D03*
%TO.P,J3,6*%
%TO.N,GND*%
X128000000Y-131500000D03*
%TD*%
D13*
%TO.P,U1,1*%
%TO.N,GND*%
X120720000Y-178000000D03*
D14*
%TO.P,U1,2*%
%TO.N,N/C*%
X120720000Y-175460000D03*
%TO.P,U1,3*%
X120720000Y-172920000D03*
%TO.P,U1,4*%
%TO.N,BTN1*%
X120720000Y-170380000D03*
%TO.P,U1,5*%
%TO.N,BTN2*%
X120720000Y-167840000D03*
%TO.P,U1,6*%
%TO.N,ENC_A*%
X120720000Y-165300000D03*
%TO.P,U1,7*%
%TO.N,ENC_B*%
X120720000Y-162760000D03*
%TO.P,U1,8*%
%TO.N,ENC_SW*%
X120720000Y-160220000D03*
%TO.P,U1,9*%
%TO.N,N/C*%
X120720000Y-157680000D03*
%TO.P,U1,10*%
X120720000Y-155140000D03*
%TO.P,U1,11*%
X120720000Y-152600000D03*
%TO.P,U1,12*%
X120720000Y-150060000D03*
%TO.P,U1,13*%
X120720000Y-147520000D03*
%TO.P,U1,14*%
X120720000Y-144980000D03*
%TO.P,U1,15*%
X120720000Y-142440000D03*
%TO.P,U1,16*%
X120720000Y-139900000D03*
%TO.P,U1,17*%
X120720000Y-137360000D03*
%TO.P,U1,18*%
X120720000Y-134820000D03*
%TO.P,U1,19*%
X120720000Y-132280000D03*
%TO.P,U1,20*%
X120720000Y-129740000D03*
%TO.P,U1,21*%
X120720000Y-127200000D03*
%TO.P,U1,22*%
X120720000Y-124660000D03*
%TO.P,U1,23*%
X120720000Y-122120000D03*
%TO.P,U1,24*%
X120720000Y-119580000D03*
%TO.P,U1,25*%
%TO.N,+5V*%
X105480000Y-178000000D03*
%TO.P,U1,26*%
%TO.N,N/C*%
X105480000Y-175460000D03*
%TO.P,U1,27*%
X105480000Y-172920000D03*
%TO.P,U1,28*%
X105480000Y-170380000D03*
%TO.P,U1,29*%
X105480000Y-167840000D03*
%TO.P,U1,30*%
X105480000Y-165300000D03*
%TO.P,U1,31*%
X105480000Y-162760000D03*
%TO.P,U1,32*%
X105480000Y-160220000D03*
%TO.P,U1,33*%
X105480000Y-157680000D03*
%TO.P,U1,34*%
X105480000Y-155140000D03*
%TO.P,U1,35*%
X105480000Y-152600000D03*
%TO.P,U1,36*%
X105480000Y-150060000D03*
%TO.P,U1,37*%
X105480000Y-147520000D03*
%TO.P,U1,38*%
X105480000Y-144980000D03*
%TO.P,U1,39*%
X105480000Y-142440000D03*
%TO.P,U1,40*%
X105480000Y-139900000D03*
%TO.P,U1,41*%
X105480000Y-137360000D03*
%TO.P,U1,42*%
X105480000Y-134820000D03*
%TO.P,U1,43*%
X105480000Y-132280000D03*
%TO.P,U1,44*%
X105480000Y-129740000D03*
%TO.P,U1,45*%
X105480000Y-127200000D03*
%TO.P,U1,46*%
%TO.N,+3V3*%
X105480000Y-124660000D03*
%TO.P,U1,47*%
%TO.N,N/C*%
X105480000Y-122120000D03*
%TO.P,U1,48*%
X105480000Y-119580000D03*
%TD*%
D11*
%TO.P,J2,1*%
%TO.N,BTN2*%
X128000000Y-156000000D03*
D12*
%TO.P,J2,2*%
%TO.N,GND*%
X128000000Y-153500000D03*
%TD*%
D11*
%TO.P,J1,1*%
%TO.N,BTN1*%
X128000000Y-165000000D03*
D12*
%TO.P,J1,2*%
%TO.N,GND*%
X128000000Y-162500000D03*
%TD*%
D10*
%TO.P,C1,1*%
%TO.N,ENC_A*%
X112087500Y-157000000D03*
%TO.P,C1,2*%
%TO.N,GND*%
X113912500Y-157000000D03*
%TD*%
%TO.P,C5,1*%
%TO.N,+5V*%
X112087500Y-173000000D03*
%TO.P,C5,2*%
%TO.N,GND*%
X113912500Y-173000000D03*
%TD*%
%TO.P,C2,1*%
%TO.N,ENC_B*%
X112087500Y-149000000D03*
%TO.P,C2,2*%
%TO.N,GND*%
X113912500Y-149000000D03*
%TD*%
%TO.P,R2,1*%
%TO.N,+3V3*%
X112087500Y-145000000D03*
%TO.P,R2,2*%
%TO.N,ENC_B*%
X113912500Y-145000000D03*
%TD*%
%TO.P,C4,1*%
%TO.N,BTN2*%
X112087500Y-163000000D03*
%TO.P,C4,2*%
%TO.N,GND*%
X113912500Y-163000000D03*
%TD*%
D15*
%TO.N,BTN1*%
X110000000Y-167000000D03*
%TO.N,+3V3*%
X110000000Y-153000000D03*
X110000000Y-145000000D03*
%TO.N,ENC_A*%
X110000000Y-157000000D03*
X116000000Y-153000000D03*
%TO.N,+5V*%
X110000000Y-173000000D03*
%TO.N,ENC_B*%
X110000000Y-149000000D03*
X116000000Y-145000000D03*
%TO.N,BTN2*%
X110000000Y-163000000D03*
%TD*%
%TO.N,BTN1*%
D16*
X126300000Y-170380000D02*
X126300000Y-165000000D01*
X126300000Y-165000000D02*
X128000000Y-165000000D01*
X120720000Y-170380000D02*
X126300000Y-170380000D01*
X112087500Y-167000000D02*
X110000000Y-167000000D01*
%TO.N,+3V3*%
X112087500Y-145000000D02*
X110000000Y-145000000D01*
X112087500Y-153000000D02*
X110000000Y-153000000D01*
%TO.N,ENC_A*%
X113912500Y-153000000D02*
X116000000Y-153000000D01*
X124300000Y-165300000D02*
X124300000Y-141500000D01*
X112087500Y-157000000D02*
X110000000Y-157000000D01*
X124300000Y-141500000D02*
X128000000Y-141500000D01*
X120720000Y-165300000D02*
X124300000Y-165300000D01*
%TO.N,+5V*%
X112087500Y-173000000D02*
X110000000Y-173000000D01*
%TO.N,ENC_B*%
X123300000Y-139000000D02*
X128000000Y-139000000D01*
X113912500Y-145000000D02*
X116000000Y-145000000D01*
X112087500Y-149000000D02*
X110000000Y-149000000D01*
X120720000Y-162760000D02*
X123300000Y-162760000D01*
X123300000Y-162760000D02*
X123300000Y-139000000D01*
%TO.N,ENC_SW*%
X122300000Y-134000000D02*
X128000000Y-134000000D01*
X122300000Y-160220000D02*
X122300000Y-134000000D01*
X120720000Y-160220000D02*
X122300000Y-160220000D01*
%TO.N,BTN2*%
X120720000Y-167840000D02*
X125300000Y-167840000D01*
X112087500Y-163000000D02*
X110000000Y-163000000D01*
X125300000Y-167840000D02*
X125300000Y-156000000D01*
X125300000Y-156000000D02*
X128000000Y-156000000D01*
%TD*%
%TA.AperFunction,Conductor*%
%TO.N,GND*%
G36*
X121144437Y-100500220D02*
G01*
X121528367Y-100516989D01*
X121539278Y-100517944D01*
X121635956Y-100530673D01*
X121700879Y-100559395D01*
X121708599Y-100566499D01*
X125574799Y-104432699D01*
X125608825Y-104495011D01*
X125610626Y-104505345D01*
X125623353Y-104602002D01*
X125624311Y-104612953D01*
X125641080Y-104996862D01*
X125641200Y-105002360D01*
X125641200Y-123149211D01*
X125641198Y-123149219D01*
X125641200Y-123215088D01*
X125641200Y-123287200D01*
X125641201Y-123287223D01*
X125641204Y-123442607D01*
X125641206Y-123442635D01*
X125678788Y-123896060D01*
X125753686Y-124344846D01*
X125753687Y-124344853D01*
X125865385Y-124785912D01*
X125865388Y-124785922D01*
X125865390Y-124785928D01*
X126001188Y-125181478D01*
X126013135Y-125216276D01*
X126195912Y-125632954D01*
X126412462Y-126033093D01*
X126412467Y-126033103D01*
X126414790Y-126036658D01*
X126661335Y-126414019D01*
X126940803Y-126773078D01*
X127248968Y-127107832D01*
X127583722Y-127415997D01*
X127942781Y-127695465D01*
X128274227Y-127912012D01*
X128323696Y-127944332D01*
X128323706Y-127944337D01*
X128723845Y-128160887D01*
X128723850Y-128160889D01*
X129140526Y-128343666D01*
X129570872Y-128491410D01*
X129570884Y-128491413D01*
X129570887Y-128491414D01*
X129698642Y-128523767D01*
X130011948Y-128603113D01*
X130460742Y-128678012D01*
X130914188Y-128715595D01*
X131075802Y-128715598D01*
X131075808Y-128715600D01*
X131141688Y-128715600D01*
X131207581Y-128715602D01*
X131207584Y-128715600D01*
X131216344Y-128715601D01*
X131216373Y-128715600D01*
X143727539Y-128715600D01*
X143733037Y-128715720D01*
X144116967Y-128732489D01*
X144127878Y-128733444D01*
X144224556Y-128746173D01*
X144289479Y-128774895D01*
X144297199Y-128781999D01*
X148163399Y-132648199D01*
X148197425Y-132710511D01*
X148199226Y-132720845D01*
X148211953Y-132817502D01*
X148212911Y-132828453D01*
X148229680Y-133212362D01*
X148229800Y-133217860D01*
X148229800Y-163588239D01*
X148229680Y-163593737D01*
X148212911Y-163977646D01*
X148211953Y-163988597D01*
X148199226Y-164085253D01*
X148170502Y-164150179D01*
X148163399Y-164157899D01*
X144297199Y-168024099D01*
X144234887Y-168058125D01*
X144224553Y-168059926D01*
X144127897Y-168072653D01*
X144116946Y-168073611D01*
X143733037Y-168090380D01*
X143727539Y-168090500D01*
X131207588Y-168090500D01*
X131207581Y-168090498D01*
X131141688Y-168090500D01*
X131070620Y-168090500D01*
X131070592Y-168090501D01*
X130914192Y-168090504D01*
X130914164Y-168090506D01*
X130460739Y-168128088D01*
X130011953Y-168202986D01*
X130011946Y-168202987D01*
X129570887Y-168314685D01*
X129570873Y-168314689D01*
X129570872Y-168314690D01*
X129311349Y-168403788D01*
X129140523Y-168462435D01*
X128723845Y-168645212D01*
X128323706Y-168861762D01*
X128323696Y-168861767D01*
X127942779Y-169110636D01*
X127583722Y-169390102D01*
X127583711Y-169390112D01*
X127248968Y-169698268D01*
X127177201Y-169776227D01*
X127116348Y-169812798D01*
X127045383Y-169810663D01*
X126986838Y-169770501D01*
X126959300Y-169705063D01*
X126958500Y-169690889D01*
X126958500Y-166534500D01*
X126978502Y-166466379D01*
X127032158Y-166419886D01*
X127084500Y-166408500D01*
X128948632Y-166408500D01*
X128948638Y-166408500D01*
X128948645Y-166408499D01*
X128948649Y-166408499D01*
X129009196Y-166401990D01*
X129009199Y-166401989D01*
X129009201Y-166401989D01*
X129146204Y-166350889D01*
X129208046Y-166304595D01*
X129263261Y-166263261D01*
X129350887Y-166146207D01*
X129350887Y-166146206D01*
X129350889Y-166146204D01*
X129401989Y-166009201D01*
X129408500Y-165948638D01*
X129408500Y-164051362D01*
X129408499Y-164051350D01*
X129401990Y-163990803D01*
X129401988Y-163990795D01*
X129371292Y-163908499D01*
X129350889Y-163853796D01*
X129350888Y-163853794D01*
X129350887Y-163853792D01*
X129263261Y-163736738D01*
X129146207Y-163649112D01*
X129146202Y-163649110D01*
X129009204Y-163598011D01*
X129009196Y-163598009D01*
X128948649Y-163591500D01*
X128948638Y-163591500D01*
X127051362Y-163591500D01*
X127051350Y-163591500D01*
X126990803Y-163598009D01*
X126990795Y-163598011D01*
X126853797Y-163649110D01*
X126853792Y-163649112D01*
X126736738Y-163736738D01*
X126649112Y-163853792D01*
X126649110Y-163853797D01*
X126598011Y-163990795D01*
X126598009Y-163990803D01*
X126591500Y-164051350D01*
X126591500Y-164215500D01*
X126571498Y-164283621D01*
X126517842Y-164330114D01*
X126465500Y-164341500D01*
X126235139Y-164341500D01*
X126109082Y-164366575D01*
X126038368Y-164360247D01*
X125982300Y-164316693D01*
X125958681Y-164249740D01*
X125958500Y-164242996D01*
X125958500Y-163469709D01*
X141879500Y-163469709D01*
X141879500Y-163712290D01*
X141911160Y-163952782D01*
X141973944Y-164187095D01*
X141973945Y-164187097D01*
X141973946Y-164187100D01*
X142066776Y-164411212D01*
X142066777Y-164411213D01*
X142066782Y-164411224D01*
X142188061Y-164621285D01*
X142188063Y-164621288D01*
X142188064Y-164621289D01*
X142335735Y-164813738D01*
X142335739Y-164813742D01*
X142335744Y-164813748D01*
X142507251Y-164985255D01*
X142507256Y-164985259D01*
X142507262Y-164985265D01*
X142695756Y-165129901D01*
X142699714Y-165132938D01*
X142909775Y-165254217D01*
X142909779Y-165254218D01*
X142909788Y-165254224D01*
X143133900Y-165347054D01*
X143368211Y-165409838D01*
X143368215Y-165409838D01*
X143368217Y-165409839D01*
X143430202Y-165417999D01*
X143608712Y-165441500D01*
X143608719Y-165441500D01*
X143851281Y-165441500D01*
X143851288Y-165441500D01*
X144068637Y-165412885D01*
X144091782Y-165409839D01*
X144091782Y-165409838D01*
X144091789Y-165409838D01*
X144326100Y-165347054D01*
X144550212Y-165254224D01*
X144760289Y-165132936D01*
X144952738Y-164985265D01*
X145124265Y-164813738D01*
X145271936Y-164621289D01*
X145393224Y-164411212D01*
X145486054Y-164187100D01*
X145548838Y-163952789D01*
X145580500Y-163712288D01*
X145580500Y-163469712D01*
X145548838Y-163229211D01*
X145486054Y-162994900D01*
X145393224Y-162770788D01*
X145393218Y-162770779D01*
X145393217Y-162770775D01*
X145271938Y-162560714D01*
X145224933Y-162499456D01*
X145124265Y-162368262D01*
X145124259Y-162368256D01*
X145124255Y-162368251D01*
X144952748Y-162196744D01*
X144952742Y-162196739D01*
X144952738Y-162196735D01*
X144760289Y-162049064D01*
X144760288Y-162049063D01*
X144760285Y-162049061D01*
X144550224Y-161927782D01*
X144550216Y-161927778D01*
X144550212Y-161927776D01*
X144326100Y-161834946D01*
X144326097Y-161834945D01*
X144326095Y-161834944D01*
X144091782Y-161772160D01*
X143851290Y-161740500D01*
X143851288Y-161740500D01*
X143608712Y-161740500D01*
X143608709Y-161740500D01*
X143368217Y-161772160D01*
X143133904Y-161834944D01*
X143133900Y-161834946D01*
X142909786Y-161927777D01*
X142909775Y-161927782D01*
X142699714Y-162049061D01*
X142507262Y-162196735D01*
X142507251Y-162196744D01*
X142335744Y-162368251D01*
X142335735Y-162368262D01*
X142188061Y-162560714D01*
X142066782Y-162770775D01*
X142066777Y-162770786D01*
X141973946Y-162994900D01*
X141973944Y-162994904D01*
X141911160Y-163229217D01*
X141879500Y-163469709D01*
X125958500Y-163469709D01*
X125958500Y-156784500D01*
X125978502Y-156716379D01*
X126032158Y-156669886D01*
X126084500Y-156658500D01*
X126465500Y-156658500D01*
X126533621Y-156678502D01*
X126580114Y-156732158D01*
X126591500Y-156784500D01*
X126591500Y-156948649D01*
X126598009Y-157009196D01*
X126598011Y-157009204D01*
X126649110Y-157146202D01*
X126649112Y-157146207D01*
X126736738Y-157263261D01*
X126853792Y-157350887D01*
X126853794Y-157350888D01*
X126853796Y-157350889D01*
X126912875Y-157372924D01*
X126990795Y-157401988D01*
X126990803Y-157401990D01*
X127051350Y-157408499D01*
X127051355Y-157408499D01*
X127051362Y-157408500D01*
X127051368Y-157408500D01*
X128948632Y-157408500D01*
X128948638Y-157408500D01*
X128948645Y-157408499D01*
X128948649Y-157408499D01*
X129009196Y-157401990D01*
X129009199Y-157401989D01*
X129009201Y-157401989D01*
X129146204Y-157350889D01*
X129263261Y-157263261D01*
X129350889Y-157146204D01*
X129401989Y-157009201D01*
X129406420Y-156967991D01*
X129408499Y-156948649D01*
X129408500Y-156948632D01*
X129408500Y-155051367D01*
X129408499Y-155051350D01*
X129401990Y-154990803D01*
X129401988Y-154990795D01*
X129350889Y-154853797D01*
X129350887Y-154853792D01*
X129263261Y-154736738D01*
X129146207Y-154649112D01*
X129146202Y-154649110D01*
X129009204Y-154598011D01*
X129009196Y-154598009D01*
X128948649Y-154591500D01*
X128948638Y-154591500D01*
X127051362Y-154591500D01*
X127051350Y-154591500D01*
X126990803Y-154598009D01*
X126990795Y-154598011D01*
X126853797Y-154649110D01*
X126853792Y-154649112D01*
X126736738Y-154736738D01*
X126649112Y-154853792D01*
X126649110Y-154853797D01*
X126598011Y-154990795D01*
X126598009Y-154990803D01*
X126591500Y-155051350D01*
X126591500Y-155215500D01*
X126571498Y-155283621D01*
X126517842Y-155330114D01*
X126465500Y-155341500D01*
X125235139Y-155341500D01*
X125109082Y-155366575D01*
X125038368Y-155360247D01*
X124982300Y-155316693D01*
X124958681Y-155249740D01*
X124958500Y-155242996D01*
X124958500Y-142284500D01*
X124978502Y-142216379D01*
X125032158Y-142169886D01*
X125084500Y-142158500D01*
X126677513Y-142158500D01*
X126745634Y-142178502D01*
X126789778Y-142227294D01*
X126795342Y-142238215D01*
X126925658Y-142417578D01*
X126936136Y-142428056D01*
X126970162Y-142490368D01*
X126965097Y-142561183D01*
X126922550Y-142618019D01*
X126891076Y-142635206D01*
X126853793Y-142649112D01*
X126853792Y-142649112D01*
X126736738Y-142736738D01*
X126649112Y-142853792D01*
X126649110Y-142853797D01*
X126598011Y-142990795D01*
X126598009Y-142990803D01*
X126591500Y-143051350D01*
X126591500Y-144948649D01*
X126598009Y-145009196D01*
X126598011Y-145009204D01*
X126649110Y-145146202D01*
X126649112Y-145146207D01*
X126736738Y-145263261D01*
X126853792Y-145350887D01*
X126853794Y-145350888D01*
X126853796Y-145350889D01*
X126912875Y-145372924D01*
X126990795Y-145401988D01*
X126990803Y-145401990D01*
X127051350Y-145408499D01*
X127051355Y-145408499D01*
X127051362Y-145408500D01*
X127051368Y-145408500D01*
X128948632Y-145408500D01*
X128948638Y-145408500D01*
X128948645Y-145408499D01*
X128948649Y-145408499D01*
X129009196Y-145401990D01*
X129009199Y-145401989D01*
X129009201Y-145401989D01*
X129146204Y-145350889D01*
X129263261Y-145263261D01*
X129350889Y-145146204D01*
X129401989Y-145009201D01*
X129408500Y-144948638D01*
X129408500Y-143051362D01*
X129408499Y-143051350D01*
X129401990Y-142990803D01*
X129401988Y-142990795D01*
X129350889Y-142853797D01*
X129350887Y-142853792D01*
X129263261Y-142736738D01*
X129146207Y-142649112D01*
X129146204Y-142649111D01*
X129108924Y-142635206D01*
X129052089Y-142592659D01*
X129027279Y-142526138D01*
X129042371Y-142456764D01*
X129063863Y-142428055D01*
X129074343Y-142417576D01*
X129204657Y-142238215D01*
X129305308Y-142040676D01*
X129373818Y-141829824D01*
X129408500Y-141610851D01*
X129408500Y-141389149D01*
X129373818Y-141170176D01*
X129305308Y-140959324D01*
X129204657Y-140761785D01*
X129074343Y-140582424D01*
X129074341Y-140582421D01*
X128917578Y-140425658D01*
X128816108Y-140351936D01*
X128772754Y-140295713D01*
X128766679Y-140224977D01*
X128799811Y-140162186D01*
X128816108Y-140148064D01*
X128917576Y-140074343D01*
X129074343Y-139917576D01*
X129204657Y-139738215D01*
X129305308Y-139540676D01*
X129373818Y-139329824D01*
X129408500Y-139110851D01*
X129408500Y-138889149D01*
X129373818Y-138670176D01*
X129305308Y-138459324D01*
X129204657Y-138261785D01*
X129074343Y-138082424D01*
X129074341Y-138082421D01*
X128917578Y-137925658D01*
X128738218Y-137795345D01*
X128738217Y-137795344D01*
X128738215Y-137795343D01*
X128540676Y-137694692D01*
X128540673Y-137694691D01*
X128540671Y-137694690D01*
X128329829Y-137626183D01*
X128329825Y-137626182D01*
X128329824Y-137626182D01*
X128110851Y-137591500D01*
X127889149Y-137591500D01*
X127670176Y-137626182D01*
X127670170Y-137626183D01*
X127459328Y-137694690D01*
X127459322Y-137694693D01*
X127261781Y-137795345D01*
X127082421Y-137925658D01*
X126925658Y-138082421D01*
X126795342Y-138261784D01*
X126789778Y-138272706D01*
X126741029Y-138324320D01*
X126677513Y-138341500D01*
X123235139Y-138341500D01*
X123109082Y-138366575D01*
X123038368Y-138360247D01*
X122982300Y-138316693D01*
X122958681Y-138249740D01*
X122958500Y-138242996D01*
X122958500Y-134784500D01*
X122978502Y-134716379D01*
X123032158Y-134669886D01*
X123084500Y-134658500D01*
X126677513Y-134658500D01*
X126745634Y-134678502D01*
X126789778Y-134727294D01*
X126795342Y-134738215D01*
X126925658Y-134917578D01*
X127082421Y-135074341D01*
X127082424Y-135074343D01*
X127261785Y-135204657D01*
X127459324Y-135305308D01*
X127670176Y-135373818D01*
X127889149Y-135408500D01*
X127889152Y-135408500D01*
X128110848Y-135408500D01*
X128110851Y-135408500D01*
X128329824Y-135373818D01*
X128540676Y-135305308D01*
X128738215Y-135204657D01*
X128917576Y-135074343D01*
X129074343Y-134917576D01*
X129204657Y-134738215D01*
X129305308Y-134540676D01*
X129373818Y-134329824D01*
X129408500Y-134110851D01*
X129408500Y-133889149D01*
X129373818Y-133670176D01*
X129305308Y-133459324D01*
X129204657Y-133261785D01*
X129082542Y-133093709D01*
X141879500Y-133093709D01*
X141879500Y-133336290D01*
X141911160Y-133576782D01*
X141973944Y-133811095D01*
X141973945Y-133811097D01*
X141973946Y-133811100D01*
X142066776Y-134035212D01*
X142066777Y-134035213D01*
X142066782Y-134035224D01*
X142188061Y-134245285D01*
X142188063Y-134245288D01*
X142188064Y-134245289D01*
X142335735Y-134437738D01*
X142335739Y-134437742D01*
X142335744Y-134437748D01*
X142507251Y-134609255D01*
X142507256Y-134609259D01*
X142507262Y-134609265D01*
X142699711Y-134756936D01*
X142699714Y-134756938D01*
X142909775Y-134878217D01*
X142909779Y-134878218D01*
X142909788Y-134878224D01*
X143133900Y-134971054D01*
X143368211Y-135033838D01*
X143368215Y-135033838D01*
X143368217Y-135033839D01*
X143430202Y-135041999D01*
X143608712Y-135065500D01*
X143608719Y-135065500D01*
X143851281Y-135065500D01*
X143851288Y-135065500D01*
X144068637Y-135036885D01*
X144091782Y-135033839D01*
X144091782Y-135033838D01*
X144091789Y-135033838D01*
X144326100Y-134971054D01*
X144550212Y-134878224D01*
X144760289Y-134756936D01*
X144952738Y-134609265D01*
X145124265Y-134437738D01*
X145271936Y-134245289D01*
X145393224Y-134035212D01*
X145486054Y-133811100D01*
X145548838Y-133576789D01*
X145580500Y-133336288D01*
X145580500Y-133093712D01*
X145548838Y-132853211D01*
X145486054Y-132618900D01*
X145393224Y-132394788D01*
X145393218Y-132394779D01*
X145393217Y-132394775D01*
X145271938Y-132184714D01*
X145271936Y-132184711D01*
X145124265Y-131992262D01*
X145124259Y-131992256D01*
X145124255Y-131992251D01*
X144952748Y-131820744D01*
X144952742Y-131820739D01*
X144952738Y-131820735D01*
X144760289Y-131673064D01*
X144760288Y-131673063D01*
X144760285Y-131673061D01*
X144550224Y-131551782D01*
X144550216Y-131551778D01*
X144550212Y-131551776D01*
X144326100Y-131458946D01*
X144326097Y-131458945D01*
X144326095Y-131458944D01*
X144091782Y-131396160D01*
X143851290Y-131364500D01*
X143851288Y-131364500D01*
X143608712Y-131364500D01*
X143608709Y-131364500D01*
X143368217Y-131396160D01*
X143133904Y-131458944D01*
X143133900Y-131458946D01*
X142909786Y-131551777D01*
X142909775Y-131551782D01*
X142699714Y-131673061D01*
X142507262Y-131820735D01*
X142507251Y-131820744D01*
X142335744Y-131992251D01*
X142335735Y-131992262D01*
X142188061Y-132184714D01*
X142066782Y-132394775D01*
X142066777Y-132394786D01*
X142066776Y-132394788D01*
X142009053Y-132534143D01*
X141973946Y-132618900D01*
X141973944Y-132618904D01*
X141911160Y-132853217D01*
X141879500Y-133093709D01*
X129082542Y-133093709D01*
X129074343Y-133082424D01*
X129074341Y-133082421D01*
X128917578Y-132925658D01*
X128738218Y-132795345D01*
X128738217Y-132795344D01*
X128738215Y-132795343D01*
X128540676Y-132694692D01*
X128540673Y-132694691D01*
X128540671Y-132694690D01*
X128329829Y-132626183D01*
X128329825Y-132626182D01*
X128329824Y-132626182D01*
X128110851Y-132591500D01*
X127889149Y-132591500D01*
X127670176Y-132626182D01*
X127670170Y-132626183D01*
X127459328Y-132694690D01*
X127459322Y-132694693D01*
X127261781Y-132795345D01*
X127082421Y-132925658D01*
X126925658Y-133082421D01*
X126795342Y-133261784D01*
X126789778Y-133272706D01*
X126741029Y-133324320D01*
X126677513Y-133341500D01*
X122235139Y-133341500D01*
X122107922Y-133366806D01*
X122107919Y-133366807D01*
X121988083Y-133416445D01*
X121880231Y-133488509D01*
X121880225Y-133488514D01*
X121788514Y-133580225D01*
X121788509Y-133580231D01*
X121713006Y-133693230D01*
X121711953Y-133692526D01*
X121704291Y-133700323D01*
X121696158Y-133715877D01*
X121679928Y-133725120D01*
X121666837Y-133738445D01*
X121649718Y-133742327D01*
X121634467Y-133751014D01*
X121615814Y-133750016D01*
X121597599Y-133754147D01*
X121580821Y-133748143D01*
X121563572Y-133747221D01*
X121532236Y-133730760D01*
X121531792Y-133730601D01*
X121531529Y-133730411D01*
X121432009Y-133658106D01*
X121429383Y-133656768D01*
X121423057Y-133652207D01*
X121404057Y-133627753D01*
X121383283Y-133604796D01*
X121382486Y-133599990D01*
X121379497Y-133596143D01*
X121376734Y-133565299D01*
X121371670Y-133534756D01*
X121373597Y-133530282D01*
X121373163Y-133525430D01*
X121387510Y-133497995D01*
X121399766Y-133469555D01*
X121404553Y-133465406D01*
X121406065Y-133462517D01*
X121411386Y-133459485D01*
X121428130Y-133444978D01*
X121428004Y-133444804D01*
X121430030Y-133443331D01*
X121430920Y-133442561D01*
X121431997Y-133441899D01*
X121432009Y-133441894D01*
X121605004Y-133316206D01*
X121756206Y-133165004D01*
X121881894Y-132992009D01*
X121978972Y-132801483D01*
X122045049Y-132598116D01*
X122078500Y-132386916D01*
X122078500Y-132173084D01*
X122045049Y-131961884D01*
X121978972Y-131758517D01*
X121881894Y-131567991D01*
X121756206Y-131394996D01*
X121756203Y-131394993D01*
X121756201Y-131394990D01*
X121605009Y-131243798D01*
X121605006Y-131243796D01*
X121605004Y-131243794D01*
X121432009Y-131118106D01*
X121432007Y-131118105D01*
X121430920Y-131117439D01*
X121430591Y-131117075D01*
X121428004Y-131115196D01*
X121428398Y-131114652D01*
X121383283Y-131064796D01*
X121371670Y-130994756D01*
X121399766Y-130929555D01*
X121428130Y-130904978D01*
X121428004Y-130904804D01*
X121430030Y-130903331D01*
X121430920Y-130902561D01*
X121431997Y-130901899D01*
X121432009Y-130901894D01*
X121605004Y-130776206D01*
X121756206Y-130625004D01*
X121881894Y-130452009D01*
X121978972Y-130261483D01*
X122045049Y-130058116D01*
X122078500Y-129846916D01*
X122078500Y-129633084D01*
X122045049Y-129421884D01*
X121978972Y-129218517D01*
X121881894Y-129027991D01*
X121756206Y-128854996D01*
X121756203Y-128854993D01*
X121756201Y-128854990D01*
X121605009Y-128703798D01*
X121605006Y-128703796D01*
X121605004Y-128703794D01*
X121432009Y-128578106D01*
X121432007Y-128578105D01*
X121430920Y-128577439D01*
X121430591Y-128577075D01*
X121428004Y-128575196D01*
X121428398Y-128574652D01*
X121383283Y-128524796D01*
X121371670Y-128454756D01*
X121399766Y-128389555D01*
X121428130Y-128364978D01*
X121428004Y-128364804D01*
X121430030Y-128363331D01*
X121430920Y-128362561D01*
X121431997Y-128361899D01*
X121432009Y-128361894D01*
X121605004Y-128236206D01*
X121756206Y-128085004D01*
X121881894Y-127912009D01*
X121978972Y-127721483D01*
X122045049Y-127518116D01*
X122078500Y-127306916D01*
X122078500Y-127093084D01*
X122045049Y-126881884D01*
X121978972Y-126678517D01*
X121881894Y-126487991D01*
X121756206Y-126314996D01*
X121756203Y-126314993D01*
X121756201Y-126314990D01*
X121605009Y-126163798D01*
X121605006Y-126163796D01*
X121605004Y-126163794D01*
X121432009Y-126038106D01*
X121432007Y-126038105D01*
X121430920Y-126037439D01*
X121430591Y-126037075D01*
X121428004Y-126035196D01*
X121428398Y-126034652D01*
X121383283Y-125984796D01*
X121371670Y-125914756D01*
X121399766Y-125849555D01*
X121428130Y-125824978D01*
X121428004Y-125824804D01*
X121430030Y-125823331D01*
X121430920Y-125822561D01*
X121431997Y-125821899D01*
X121432009Y-125821894D01*
X121605004Y-125696206D01*
X121756206Y-125545004D01*
X121881894Y-125372009D01*
X121978972Y-125181483D01*
X122045049Y-124978116D01*
X122078500Y-124766916D01*
X122078500Y-124553084D01*
X122045049Y-124341884D01*
X121978972Y-124138517D01*
X121881894Y-123947991D01*
X121756206Y-123774996D01*
X121756203Y-123774993D01*
X121756201Y-123774990D01*
X121605009Y-123623798D01*
X121605006Y-123623796D01*
X121605004Y-123623794D01*
X121432009Y-123498106D01*
X121432007Y-123498105D01*
X121430920Y-123497439D01*
X121430591Y-123497075D01*
X121428004Y-123495196D01*
X121428398Y-123494652D01*
X121383283Y-123444796D01*
X121371670Y-123374756D01*
X121399766Y-123309555D01*
X121428130Y-123284978D01*
X121428004Y-123284804D01*
X121430030Y-123283331D01*
X121430920Y-123282561D01*
X121431997Y-123281899D01*
X121432009Y-123281894D01*
X121605004Y-123156206D01*
X121605008Y-123156201D01*
X121605011Y-123156200D01*
X121756201Y-123005009D01*
X121756206Y-123005004D01*
X121881894Y-122832009D01*
X121978972Y-122641483D01*
X122045049Y-122438116D01*
X122078500Y-122226916D01*
X122078500Y-122013084D01*
X122045049Y-121801884D01*
X121978972Y-121598517D01*
X121881894Y-121407991D01*
X121756206Y-121234996D01*
X121756203Y-121234993D01*
X121756201Y-121234990D01*
X121605009Y-121083798D01*
X121605006Y-121083796D01*
X121605004Y-121083794D01*
X121432009Y-120958106D01*
X121432007Y-120958105D01*
X121430920Y-120957439D01*
X121430591Y-120957075D01*
X121428004Y-120955196D01*
X121428398Y-120954652D01*
X121383283Y-120904796D01*
X121371670Y-120834756D01*
X121399766Y-120769555D01*
X121428130Y-120744978D01*
X121428004Y-120744804D01*
X121430030Y-120743331D01*
X121430920Y-120742561D01*
X121431997Y-120741899D01*
X121432009Y-120741894D01*
X121605004Y-120616206D01*
X121756206Y-120465004D01*
X121881894Y-120292009D01*
X121978972Y-120101483D01*
X122045049Y-119898116D01*
X122078500Y-119686916D01*
X122078500Y-119473084D01*
X122045049Y-119261884D01*
X121978972Y-119058517D01*
X121881894Y-118867991D01*
X121756206Y-118694996D01*
X121756203Y-118694993D01*
X121756201Y-118694990D01*
X121605009Y-118543798D01*
X121605006Y-118543796D01*
X121605004Y-118543794D01*
X121432009Y-118418106D01*
X121241483Y-118321028D01*
X121241480Y-118321027D01*
X121241478Y-118321026D01*
X121038120Y-118254952D01*
X121038123Y-118254952D01*
X120998801Y-118248724D01*
X120826916Y-118221500D01*
X120613084Y-118221500D01*
X120401884Y-118254951D01*
X120401878Y-118254952D01*
X120198521Y-118321026D01*
X120198515Y-118321029D01*
X120007987Y-118418108D01*
X119834993Y-118543796D01*
X119834990Y-118543798D01*
X119683798Y-118694990D01*
X119683796Y-118694993D01*
X119558108Y-118867987D01*
X119461029Y-119058515D01*
X119461026Y-119058521D01*
X119394952Y-119261878D01*
X119394951Y-119261883D01*
X119394951Y-119261884D01*
X119361500Y-119473084D01*
X119361500Y-119686916D01*
X119394951Y-119898116D01*
X119394952Y-119898121D01*
X119461026Y-120101478D01*
X119461028Y-120101483D01*
X119558106Y-120292009D01*
X119683794Y-120465004D01*
X119683796Y-120465006D01*
X119683798Y-120465009D01*
X119834990Y-120616201D01*
X119834993Y-120616203D01*
X119834996Y-120616206D01*
X120007991Y-120741894D01*
X120007996Y-120741896D01*
X120009088Y-120742566D01*
X120009418Y-120742931D01*
X120011996Y-120744804D01*
X120011602Y-120745345D01*
X120056721Y-120795213D01*
X120068328Y-120865255D01*
X120040226Y-120930453D01*
X120011870Y-120955023D01*
X120011996Y-120955196D01*
X120009982Y-120956658D01*
X120009088Y-120957434D01*
X120007987Y-120958108D01*
X119834993Y-121083796D01*
X119834990Y-121083798D01*
X119683798Y-121234990D01*
X119683796Y-121234993D01*
X119558108Y-121407987D01*
X119461029Y-121598515D01*
X119461026Y-121598521D01*
X119394952Y-121801878D01*
X119394951Y-121801883D01*
X119394951Y-121801884D01*
X119361500Y-122013084D01*
X119361500Y-122226916D01*
X119394951Y-122438116D01*
X119394952Y-122438121D01*
X119461026Y-122641478D01*
X119461028Y-122641483D01*
X119558106Y-122832009D01*
X119683794Y-123005004D01*
X119683796Y-123005006D01*
X119683798Y-123005009D01*
X119834989Y-123156200D01*
X119834993Y-123156203D01*
X119834996Y-123156206D01*
X120007991Y-123281894D01*
X120007996Y-123281896D01*
X120009088Y-123282566D01*
X120009418Y-123282931D01*
X120011996Y-123284804D01*
X120011602Y-123285345D01*
X120056721Y-123335213D01*
X120068328Y-123405255D01*
X120040226Y-123470453D01*
X120011870Y-123495023D01*
X120011996Y-123495196D01*
X120009982Y-123496658D01*
X120009088Y-123497434D01*
X120007987Y-123498108D01*
X119834993Y-123623796D01*
X119834990Y-123623798D01*
X119683798Y-123774990D01*
X119683796Y-123774993D01*
X119558108Y-123947987D01*
X119461029Y-124138515D01*
X119461026Y-124138521D01*
X119394952Y-124341878D01*
X119394951Y-124341883D01*
X119394951Y-124341884D01*
X119361500Y-124553084D01*
X119361500Y-124766916D01*
X119394951Y-124978116D01*
X119394952Y-124978121D01*
X119439961Y-125116646D01*
X119461028Y-125181483D01*
X119558106Y-125372009D01*
X119683794Y-125545004D01*
X119683796Y-125545006D01*
X119683798Y-125545009D01*
X119834990Y-125696201D01*
X119834993Y-125696203D01*
X119834996Y-125696206D01*
X120007991Y-125821894D01*
X120007996Y-125821896D01*
X120009088Y-125822566D01*
X120009418Y-125822931D01*
X120011996Y-125824804D01*
X120011602Y-125825345D01*
X120056721Y-125875213D01*
X120068328Y-125945255D01*
X120040226Y-126010453D01*
X120011870Y-126035023D01*
X120011996Y-126035196D01*
X120009982Y-126036658D01*
X120009088Y-126037434D01*
X120007987Y-126038108D01*
X119834993Y-126163796D01*
X119834990Y-126163798D01*
X119683798Y-126314990D01*
X119683796Y-126314993D01*
X119558108Y-126487987D01*
X119461029Y-126678515D01*
X119461026Y-126678521D01*
X119394952Y-126881878D01*
X119394951Y-126881883D01*
X119394951Y-126881884D01*
X119361500Y-127093084D01*
X119361500Y-127306916D01*
X119378777Y-127415997D01*
X119394952Y-127518121D01*
X119458792Y-127714601D01*
X119461028Y-127721483D01*
X119558106Y-127912009D01*
X119683794Y-128085004D01*
X119683796Y-128085006D01*
X119683798Y-128085009D01*
X119834990Y-128236201D01*
X119834993Y-128236203D01*
X119834996Y-128236206D01*
X120007991Y-128361894D01*
X120007996Y-128361896D01*
X120009088Y-128362566D01*
X120009418Y-128362931D01*
X120011996Y-128364804D01*
X120011602Y-128365345D01*
X120056721Y-128415213D01*
X120068328Y-128485255D01*
X120040226Y-128550453D01*
X120011870Y-128575023D01*
X120011996Y-128575196D01*
X120009982Y-128576658D01*
X120009088Y-128577434D01*
X120007987Y-128578108D01*
X119834993Y-128703796D01*
X119834990Y-128703798D01*
X119683798Y-128854990D01*
X119683796Y-128854993D01*
X119558108Y-129027987D01*
X119461029Y-129218515D01*
X119461026Y-129218521D01*
X119394952Y-129421878D01*
X119394951Y-129421883D01*
X119394951Y-129421884D01*
X119361500Y-129633084D01*
X119361500Y-129846916D01*
X119391053Y-130033502D01*
X119394952Y-130058121D01*
X119461026Y-130261478D01*
X119461028Y-130261483D01*
X119558106Y-130452009D01*
X119683794Y-130625004D01*
X119683796Y-130625006D01*
X119683798Y-130625009D01*
X119834990Y-130776201D01*
X119834993Y-130776203D01*
X119834996Y-130776206D01*
X120007991Y-130901894D01*
X120007996Y-130901896D01*
X120009088Y-130902566D01*
X120009418Y-130902931D01*
X120011996Y-130904804D01*
X120011602Y-130905345D01*
X120056721Y-130955213D01*
X120068328Y-131025255D01*
X120040226Y-131090453D01*
X120011870Y-131115023D01*
X120011996Y-131115196D01*
X120009982Y-131116658D01*
X120009088Y-131117434D01*
X120007987Y-131118108D01*
X119834993Y-131243796D01*
X119834990Y-131243798D01*
X119683798Y-131394990D01*
X119683796Y-131394993D01*
X119558108Y-131567987D01*
X119461029Y-131758515D01*
X119461026Y-131758521D01*
X119394952Y-131961878D01*
X119394951Y-131961883D01*
X119394951Y-131961884D01*
X119361500Y-132173084D01*
X119361500Y-132386916D01*
X119384819Y-132534143D01*
X119394952Y-132598121D01*
X119461026Y-132801478D01*
X119461028Y-132801483D01*
X119558106Y-132992009D01*
X119683794Y-133165004D01*
X119683796Y-133165006D01*
X119683798Y-133165009D01*
X119834990Y-133316201D01*
X119834993Y-133316203D01*
X119834996Y-133316206D01*
X120007991Y-133441894D01*
X120007996Y-133441896D01*
X120009088Y-133442566D01*
X120009418Y-133442931D01*
X120011996Y-133444804D01*
X120011602Y-133445345D01*
X120056721Y-133495213D01*
X120068328Y-133565255D01*
X120040226Y-133630453D01*
X120011870Y-133655023D01*
X120011996Y-133655196D01*
X120009982Y-133656658D01*
X120009088Y-133657434D01*
X120007987Y-133658108D01*
X119834993Y-133783796D01*
X119834990Y-133783798D01*
X119683798Y-133934990D01*
X119683796Y-133934993D01*
X119558108Y-134107987D01*
X119461029Y-134298515D01*
X119461026Y-134298521D01*
X119394952Y-134501878D01*
X119394951Y-134501883D01*
X119394951Y-134501884D01*
X119361500Y-134713084D01*
X119361500Y-134926916D01*
X119394951Y-135138116D01*
X119394952Y-135138121D01*
X119461026Y-135341478D01*
X119461028Y-135341483D01*
X119558106Y-135532009D01*
X119683794Y-135705004D01*
X119683796Y-135705006D01*
X119683798Y-135705009D01*
X119834990Y-135856201D01*
X119834993Y-135856203D01*
X119834996Y-135856206D01*
X120007991Y-135981894D01*
X120007996Y-135981896D01*
X120009088Y-135982566D01*
X120009418Y-135982931D01*
X120011996Y-135984804D01*
X120011602Y-135985345D01*
X120056721Y-136035213D01*
X120068328Y-136105255D01*
X120040226Y-136170453D01*
X120011870Y-136195023D01*
X120011996Y-136195196D01*
X120009982Y-136196658D01*
X120009088Y-136197434D01*
X120007987Y-136198108D01*
X119834993Y-136323796D01*
X119834990Y-136323798D01*
X119683798Y-136474990D01*
X119683796Y-136474993D01*
X119558108Y-136647987D01*
X119461029Y-136838515D01*
X119461026Y-136838521D01*
X119394952Y-137041878D01*
X119394951Y-137041883D01*
X119394951Y-137041884D01*
X119361500Y-137253084D01*
X119361500Y-137466916D01*
X119386726Y-137626183D01*
X119394952Y-137678121D01*
X119433040Y-137795345D01*
X119461028Y-137881483D01*
X119558106Y-138072009D01*
X119683794Y-138245004D01*
X119683796Y-138245006D01*
X119683798Y-138245009D01*
X119834990Y-138396201D01*
X119834993Y-138396203D01*
X119834996Y-138396206D01*
X120007991Y-138521894D01*
X120007996Y-138521896D01*
X120009088Y-138522566D01*
X120009418Y-138522931D01*
X120011996Y-138524804D01*
X120011602Y-138525345D01*
X120056721Y-138575213D01*
X120068328Y-138645255D01*
X120040226Y-138710453D01*
X120011870Y-138735023D01*
X120011996Y-138735196D01*
X120009982Y-138736658D01*
X120009088Y-138737434D01*
X120007987Y-138738108D01*
X119834993Y-138863796D01*
X119834990Y-138863798D01*
X119683798Y-139014990D01*
X119683796Y-139014993D01*
X119558108Y-139187987D01*
X119461029Y-139378515D01*
X119461026Y-139378521D01*
X119394952Y-139581878D01*
X119394951Y-139581883D01*
X119394951Y-139581884D01*
X119361500Y-139793084D01*
X119361500Y-140006916D01*
X119394951Y-140218116D01*
X119394952Y-140218121D01*
X119420043Y-140295343D01*
X119461028Y-140421483D01*
X119558106Y-140612009D01*
X119683794Y-140785004D01*
X119683796Y-140785006D01*
X119683798Y-140785009D01*
X119834990Y-140936201D01*
X119834993Y-140936203D01*
X119834996Y-140936206D01*
X120007991Y-141061894D01*
X120007996Y-141061896D01*
X120009088Y-141062566D01*
X120009418Y-141062931D01*
X120011996Y-141064804D01*
X120011602Y-141065345D01*
X120056721Y-141115213D01*
X120068328Y-141185255D01*
X120040226Y-141250453D01*
X120011870Y-141275023D01*
X120011996Y-141275196D01*
X120009982Y-141276658D01*
X120009088Y-141277434D01*
X120007987Y-141278108D01*
X119834993Y-141403796D01*
X119834990Y-141403798D01*
X119683798Y-141554990D01*
X119683796Y-141554993D01*
X119558108Y-141727987D01*
X119461029Y-141918515D01*
X119461026Y-141918521D01*
X119394952Y-142121878D01*
X119394951Y-142121883D01*
X119394951Y-142121884D01*
X119361500Y-142333084D01*
X119361500Y-142546916D01*
X119391565Y-142736738D01*
X119394952Y-142758121D01*
X119426039Y-142853797D01*
X119461028Y-142961483D01*
X119558106Y-143152009D01*
X119683794Y-143325004D01*
X119683796Y-143325006D01*
X119683798Y-143325009D01*
X119834990Y-143476201D01*
X119834993Y-143476203D01*
X119834996Y-143476206D01*
X120007991Y-143601894D01*
X120007996Y-143601896D01*
X120009088Y-143602566D01*
X120009418Y-143602931D01*
X120011996Y-143604804D01*
X120011602Y-143605345D01*
X120056721Y-143655213D01*
X120068328Y-143725255D01*
X120040226Y-143790453D01*
X120011870Y-143815023D01*
X120011996Y-143815196D01*
X120009982Y-143816658D01*
X120009088Y-143817434D01*
X120007987Y-143818108D01*
X119834993Y-143943796D01*
X119834990Y-143943798D01*
X119683798Y-144094990D01*
X119683796Y-144094993D01*
X119558108Y-144267987D01*
X119461029Y-144458515D01*
X119461026Y-144458521D01*
X119394952Y-144661878D01*
X119394951Y-144661883D01*
X119394951Y-144661884D01*
X119361500Y-144873084D01*
X119361500Y-145086916D01*
X119394951Y-145298116D01*
X119394952Y-145298121D01*
X119461026Y-145501478D01*
X119461028Y-145501483D01*
X119558106Y-145692009D01*
X119558108Y-145692012D01*
X119587276Y-145732158D01*
X119683794Y-145865004D01*
X119683796Y-145865006D01*
X119683798Y-145865009D01*
X119834990Y-146016201D01*
X119834993Y-146016203D01*
X119834996Y-146016206D01*
X120007991Y-146141894D01*
X120007996Y-146141896D01*
X120009088Y-146142566D01*
X120009418Y-146142931D01*
X120011996Y-146144804D01*
X120011602Y-146145345D01*
X120056721Y-146195213D01*
X120068328Y-146265255D01*
X120040226Y-146330453D01*
X120011870Y-146355023D01*
X120011996Y-146355196D01*
X120009982Y-146356658D01*
X120009088Y-146357434D01*
X120007987Y-146358108D01*
X119834993Y-146483796D01*
X119834990Y-146483798D01*
X119683798Y-146634990D01*
X119683796Y-146634993D01*
X119558108Y-146807987D01*
X119461029Y-146998515D01*
X119461026Y-146998521D01*
X119394952Y-147201878D01*
X119394951Y-147201883D01*
X119394951Y-147201884D01*
X119361500Y-147413084D01*
X119361500Y-147626916D01*
X119389249Y-147802113D01*
X119394952Y-147838121D01*
X119461026Y-148041478D01*
X119461028Y-148041483D01*
X119555689Y-148227265D01*
X119558108Y-148232012D01*
X119589182Y-148274781D01*
X119683794Y-148405004D01*
X119683796Y-148405006D01*
X119683798Y-148405009D01*
X119834990Y-148556201D01*
X119834993Y-148556203D01*
X119834996Y-148556206D01*
X120007991Y-148681894D01*
X120007996Y-148681896D01*
X120009088Y-148682566D01*
X120009418Y-148682931D01*
X120011996Y-148684804D01*
X120011602Y-148685345D01*
X120056721Y-148735213D01*
X120068328Y-148805255D01*
X120040226Y-148870453D01*
X120011870Y-148895023D01*
X120011996Y-148895196D01*
X120009982Y-148896658D01*
X120009088Y-148897434D01*
X120007987Y-148898108D01*
X119834993Y-149023796D01*
X119834990Y-149023798D01*
X119683798Y-149174990D01*
X119683796Y-149174993D01*
X119558108Y-149347987D01*
X119461029Y-149538515D01*
X119461026Y-149538521D01*
X119394952Y-149741878D01*
X119394951Y-149741883D01*
X119394951Y-149741884D01*
X119361500Y-149953084D01*
X119361500Y-150166916D01*
X119394951Y-150378116D01*
X119394952Y-150378121D01*
X119461026Y-150581478D01*
X119461028Y-150581483D01*
X119558106Y-150772009D01*
X119683794Y-150945004D01*
X119683796Y-150945006D01*
X119683798Y-150945009D01*
X119834990Y-151096201D01*
X119834993Y-151096203D01*
X119834996Y-151096206D01*
X120007991Y-151221894D01*
X120007996Y-151221896D01*
X120009088Y-151222566D01*
X120009418Y-151222931D01*
X120011996Y-151224804D01*
X120011602Y-151225345D01*
X120056721Y-151275213D01*
X120068328Y-151345255D01*
X120040226Y-151410453D01*
X120011870Y-151435023D01*
X120011996Y-151435196D01*
X120009982Y-151436658D01*
X120009088Y-151437434D01*
X120007987Y-151438108D01*
X119834993Y-151563796D01*
X119834990Y-151563798D01*
X119683798Y-151714990D01*
X119683796Y-151714993D01*
X119558108Y-151887987D01*
X119461029Y-152078515D01*
X119461026Y-152078521D01*
X119394952Y-152281878D01*
X119394951Y-152281883D01*
X119394951Y-152281884D01*
X119361500Y-152493084D01*
X119361500Y-152706916D01*
X119389646Y-152884619D01*
X119394952Y-152918121D01*
X119450629Y-153089479D01*
X119461028Y-153121483D01*
X119558106Y-153312009D01*
X119683794Y-153485004D01*
X119683796Y-153485006D01*
X119683798Y-153485009D01*
X119834990Y-153636201D01*
X119834993Y-153636203D01*
X119834996Y-153636206D01*
X120007991Y-153761894D01*
X120007996Y-153761896D01*
X120009088Y-153762566D01*
X120009418Y-153762931D01*
X120011996Y-153764804D01*
X120011602Y-153765345D01*
X120056721Y-153815213D01*
X120068328Y-153885255D01*
X120040226Y-153950453D01*
X120011870Y-153975023D01*
X120011996Y-153975196D01*
X120009982Y-153976658D01*
X120009088Y-153977434D01*
X120007987Y-153978108D01*
X119834993Y-154103796D01*
X119834990Y-154103798D01*
X119683798Y-154254990D01*
X119683796Y-154254993D01*
X119558108Y-154427987D01*
X119461029Y-154618515D01*
X119461026Y-154618521D01*
X119394952Y-154821878D01*
X119394951Y-154821883D01*
X119394951Y-154821884D01*
X119361500Y-155033084D01*
X119361500Y-155246916D01*
X119380489Y-155366806D01*
X119394952Y-155458121D01*
X119461026Y-155661478D01*
X119461028Y-155661483D01*
X119558106Y-155852009D01*
X119683794Y-156025004D01*
X119683796Y-156025006D01*
X119683798Y-156025009D01*
X119834990Y-156176201D01*
X119834993Y-156176203D01*
X119834996Y-156176206D01*
X120007991Y-156301894D01*
X120007996Y-156301896D01*
X120009088Y-156302566D01*
X120009418Y-156302931D01*
X120011996Y-156304804D01*
X120011602Y-156305345D01*
X120056721Y-156355213D01*
X120068328Y-156425255D01*
X120040226Y-156490453D01*
X120011870Y-156515023D01*
X120011996Y-156515196D01*
X120009982Y-156516658D01*
X120009088Y-156517434D01*
X120007987Y-156518108D01*
X119834993Y-156643796D01*
X119834990Y-156643798D01*
X119683798Y-156794990D01*
X119683796Y-156794993D01*
X119558108Y-156967987D01*
X119461029Y-157158515D01*
X119461026Y-157158521D01*
X119394952Y-157361878D01*
X119394951Y-157361883D01*
X119394951Y-157361884D01*
X119361500Y-157573084D01*
X119361500Y-157786916D01*
X119383157Y-157923652D01*
X119394952Y-157998121D01*
X119461026Y-158201478D01*
X119461028Y-158201483D01*
X119558106Y-158392009D01*
X119683794Y-158565004D01*
X119683796Y-158565006D01*
X119683798Y-158565009D01*
X119834990Y-158716201D01*
X119834993Y-158716203D01*
X119834996Y-158716206D01*
X120007991Y-158841894D01*
X120007996Y-158841896D01*
X120009088Y-158842566D01*
X120009418Y-158842931D01*
X120011996Y-158844804D01*
X120011602Y-158845345D01*
X120056721Y-158895213D01*
X120068328Y-158965255D01*
X120040226Y-159030453D01*
X120011870Y-159055023D01*
X120011996Y-159055196D01*
X120009982Y-159056658D01*
X120009088Y-159057434D01*
X120007987Y-159058108D01*
X119834993Y-159183796D01*
X119834990Y-159183798D01*
X119683798Y-159334990D01*
X119683796Y-159334993D01*
X119558108Y-159507987D01*
X119461029Y-159698515D01*
X119461026Y-159698521D01*
X119394952Y-159901878D01*
X119394951Y-159901883D01*
X119394951Y-159901884D01*
X119361500Y-160113084D01*
X119361500Y-160326916D01*
X119394951Y-160538116D01*
X119394952Y-160538121D01*
X119461026Y-160741478D01*
X119461028Y-160741483D01*
X119558106Y-160932009D01*
X119683794Y-161105004D01*
X119683796Y-161105006D01*
X119683798Y-161105009D01*
X119834990Y-161256201D01*
X119834993Y-161256203D01*
X119834996Y-161256206D01*
X120007991Y-161381894D01*
X120007996Y-161381896D01*
X120009088Y-161382566D01*
X120009418Y-161382931D01*
X120011996Y-161384804D01*
X120011602Y-161385345D01*
X120056721Y-161435213D01*
X120068328Y-161505255D01*
X120040226Y-161570453D01*
X120011870Y-161595023D01*
X120011996Y-161595196D01*
X120009982Y-161596658D01*
X120009088Y-161597434D01*
X120007987Y-161598108D01*
X119834993Y-161723796D01*
X119834990Y-161723798D01*
X119683798Y-161874990D01*
X119683796Y-161874993D01*
X119558108Y-162047987D01*
X119461029Y-162238515D01*
X119461026Y-162238521D01*
X119394952Y-162441878D01*
X119394951Y-162441883D01*
X119394951Y-162441884D01*
X119361500Y-162653084D01*
X119361500Y-162866916D01*
X119394951Y-163078116D01*
X119394952Y-163078121D01*
X119444044Y-163229211D01*
X119461028Y-163281483D01*
X119558106Y-163472009D01*
X119683794Y-163645004D01*
X119683796Y-163645006D01*
X119683798Y-163645009D01*
X119834990Y-163796201D01*
X119834993Y-163796203D01*
X119834996Y-163796206D01*
X120007991Y-163921894D01*
X120007996Y-163921896D01*
X120009088Y-163922566D01*
X120009418Y-163922931D01*
X120011996Y-163924804D01*
X120011602Y-163925345D01*
X120056721Y-163975213D01*
X120068328Y-164045255D01*
X120040226Y-164110453D01*
X120011870Y-164135023D01*
X120011996Y-164135196D01*
X120009982Y-164136658D01*
X120009088Y-164137434D01*
X120007987Y-164138108D01*
X119834993Y-164263796D01*
X119834990Y-164263798D01*
X119683798Y-164414990D01*
X119683796Y-164414993D01*
X119558108Y-164587987D01*
X119461029Y-164778515D01*
X119461026Y-164778521D01*
X119394952Y-164981878D01*
X119394951Y-164981883D01*
X119394951Y-164981884D01*
X119361500Y-165193084D01*
X119361500Y-165406916D01*
X119394951Y-165618116D01*
X119394952Y-165618121D01*
X119451286Y-165791500D01*
X119461028Y-165821483D01*
X119558106Y-166012009D01*
X119683794Y-166185004D01*
X119683796Y-166185006D01*
X119683798Y-166185009D01*
X119834990Y-166336201D01*
X119834993Y-166336203D01*
X119834996Y-166336206D01*
X120007991Y-166461894D01*
X120007996Y-166461896D01*
X120009088Y-166462566D01*
X120009418Y-166462931D01*
X120011996Y-166464804D01*
X120011602Y-166465345D01*
X120056721Y-166515213D01*
X120068328Y-166585255D01*
X120040226Y-166650453D01*
X120011870Y-166675023D01*
X120011996Y-166675196D01*
X120009982Y-166676658D01*
X120009088Y-166677434D01*
X120007987Y-166678108D01*
X119834993Y-166803796D01*
X119834990Y-166803798D01*
X119683798Y-166954990D01*
X119683796Y-166954993D01*
X119558108Y-167127987D01*
X119461029Y-167318515D01*
X119461026Y-167318521D01*
X119394952Y-167521878D01*
X119394951Y-167521883D01*
X119394951Y-167521884D01*
X119361500Y-167733084D01*
X119361500Y-167946916D01*
X119384243Y-168090506D01*
X119394952Y-168158121D01*
X119461026Y-168361478D01*
X119461028Y-168361483D01*
X119558106Y-168552009D01*
X119683794Y-168725004D01*
X119683796Y-168725006D01*
X119683798Y-168725009D01*
X119834990Y-168876201D01*
X119834993Y-168876203D01*
X119834996Y-168876206D01*
X120007991Y-169001894D01*
X120007996Y-169001896D01*
X120009088Y-169002566D01*
X120009418Y-169002931D01*
X120011996Y-169004804D01*
X120011602Y-169005345D01*
X120056721Y-169055213D01*
X120068328Y-169125255D01*
X120040226Y-169190453D01*
X120011870Y-169215023D01*
X120011996Y-169215196D01*
X120009982Y-169216658D01*
X120009088Y-169217434D01*
X120007987Y-169218108D01*
X119834993Y-169343796D01*
X119834990Y-169343798D01*
X119683798Y-169494990D01*
X119683796Y-169494993D01*
X119558108Y-169667987D01*
X119461029Y-169858515D01*
X119461026Y-169858521D01*
X119394952Y-170061878D01*
X119394951Y-170061883D01*
X119394951Y-170061884D01*
X119361500Y-170273084D01*
X119361500Y-170486916D01*
X119394951Y-170698116D01*
X119394952Y-170698121D01*
X119395176Y-170698810D01*
X119461028Y-170901483D01*
X119558106Y-171092009D01*
X119683794Y-171265004D01*
X119683796Y-171265006D01*
X119683798Y-171265009D01*
X119834990Y-171416201D01*
X119834993Y-171416203D01*
X119834996Y-171416206D01*
X120007991Y-171541894D01*
X120007996Y-171541896D01*
X120009088Y-171542566D01*
X120009418Y-171542931D01*
X120011996Y-171544804D01*
X120011602Y-171545345D01*
X120056721Y-171595213D01*
X120068328Y-171665255D01*
X120040226Y-171730453D01*
X120011870Y-171755023D01*
X120011996Y-171755196D01*
X120009982Y-171756658D01*
X120009088Y-171757434D01*
X120007987Y-171758108D01*
X119834993Y-171883796D01*
X119834990Y-171883798D01*
X119683798Y-172034990D01*
X119683796Y-172034993D01*
X119558108Y-172207987D01*
X119461029Y-172398515D01*
X119461026Y-172398521D01*
X119394952Y-172601878D01*
X119394951Y-172601883D01*
X119394951Y-172601884D01*
X119361500Y-172813084D01*
X119361500Y-173026916D01*
X119388733Y-173198856D01*
X119394952Y-173238121D01*
X119457406Y-173430336D01*
X119461028Y-173441483D01*
X119558106Y-173632009D01*
X119558108Y-173632012D01*
X119582543Y-173665644D01*
X119683794Y-173805004D01*
X119683796Y-173805006D01*
X119683798Y-173805009D01*
X119834990Y-173956201D01*
X119834993Y-173956203D01*
X119834996Y-173956206D01*
X120007991Y-174081894D01*
X120007996Y-174081896D01*
X120009088Y-174082566D01*
X120009418Y-174082931D01*
X120011996Y-174084804D01*
X120011602Y-174085345D01*
X120056721Y-174135213D01*
X120068328Y-174205255D01*
X120040226Y-174270453D01*
X120011870Y-174295023D01*
X120011996Y-174295196D01*
X120009982Y-174296658D01*
X120009088Y-174297434D01*
X120007987Y-174298108D01*
X119834993Y-174423796D01*
X119834990Y-174423798D01*
X119683798Y-174574990D01*
X119683796Y-174574993D01*
X119558108Y-174747987D01*
X119461029Y-174938515D01*
X119461026Y-174938521D01*
X119394952Y-175141878D01*
X119394951Y-175141883D01*
X119394951Y-175141884D01*
X119361500Y-175353084D01*
X119361500Y-175566916D01*
X119394951Y-175778116D01*
X119394952Y-175778121D01*
X119461026Y-175981478D01*
X119461028Y-175981483D01*
X119558106Y-176172009D01*
X119683794Y-176345004D01*
X119683796Y-176345006D01*
X119683798Y-176345009D01*
X119834990Y-176496201D01*
X119834993Y-176496203D01*
X119834996Y-176496206D01*
X120007991Y-176621894D01*
X120198517Y-176718972D01*
X120401878Y-176785047D01*
X120401879Y-176785047D01*
X120401884Y-176785049D01*
X120613084Y-176818500D01*
X120613087Y-176818500D01*
X120826913Y-176818500D01*
X120826916Y-176818500D01*
X121038116Y-176785049D01*
X121241483Y-176718972D01*
X121432009Y-176621894D01*
X121605004Y-176496206D01*
X121756206Y-176345004D01*
X121881894Y-176172009D01*
X121978972Y-175981483D01*
X122045049Y-175778116D01*
X122078500Y-175566916D01*
X122078500Y-175353084D01*
X122045049Y-175141884D01*
X121978972Y-174938517D01*
X121881894Y-174747991D01*
X121756206Y-174574996D01*
X121756203Y-174574993D01*
X121756201Y-174574990D01*
X121605009Y-174423798D01*
X121605006Y-174423796D01*
X121605004Y-174423794D01*
X121432009Y-174298106D01*
X121432007Y-174298105D01*
X121430920Y-174297439D01*
X121430591Y-174297075D01*
X121428004Y-174295196D01*
X121428398Y-174294652D01*
X121383283Y-174244796D01*
X121371670Y-174174756D01*
X121399766Y-174109555D01*
X121428130Y-174084978D01*
X121428004Y-174084804D01*
X121430030Y-174083331D01*
X121430920Y-174082561D01*
X121431997Y-174081899D01*
X121432009Y-174081894D01*
X121605004Y-173956206D01*
X121756206Y-173805004D01*
X121881894Y-173632009D01*
X121978972Y-173441483D01*
X122045049Y-173238116D01*
X122078500Y-173026916D01*
X122078500Y-172813084D01*
X122045049Y-172601884D01*
X121978972Y-172398517D01*
X121881894Y-172207991D01*
X121756206Y-172034996D01*
X121756203Y-172034993D01*
X121756201Y-172034990D01*
X121605009Y-171883798D01*
X121605006Y-171883796D01*
X121605004Y-171883794D01*
X121432009Y-171758106D01*
X121432007Y-171758105D01*
X121430920Y-171757439D01*
X121430591Y-171757075D01*
X121428004Y-171755196D01*
X121428398Y-171754652D01*
X121383283Y-171704796D01*
X121371670Y-171634756D01*
X121399766Y-171569555D01*
X121428130Y-171544978D01*
X121428004Y-171544804D01*
X121430030Y-171543331D01*
X121430920Y-171542561D01*
X121431997Y-171541899D01*
X121432009Y-171541894D01*
X121605004Y-171416206D01*
X121756206Y-171265004D01*
X121881894Y-171092009D01*
X121883035Y-171090439D01*
X121939257Y-171047085D01*
X121984971Y-171038500D01*
X126062116Y-171038500D01*
X126130237Y-171058502D01*
X126176730Y-171112158D01*
X126186834Y-171182432D01*
X126177503Y-171215115D01*
X126033705Y-171542931D01*
X126013134Y-171589826D01*
X125921106Y-171857885D01*
X125865385Y-172020187D01*
X125753687Y-172461246D01*
X125753686Y-172461253D01*
X125678788Y-172910039D01*
X125641206Y-173363464D01*
X125641204Y-173363492D01*
X125641201Y-173519892D01*
X125641201Y-173525102D01*
X125641200Y-173525108D01*
X125641200Y-173574345D01*
X125641200Y-173590987D01*
X125641198Y-173665644D01*
X125641200Y-173665673D01*
X125641200Y-184345239D01*
X125641080Y-184350737D01*
X125624311Y-184734646D01*
X125623353Y-184745597D01*
X125610626Y-184842253D01*
X125581902Y-184907179D01*
X125574799Y-184914899D01*
X121708599Y-188781099D01*
X121646287Y-188815125D01*
X121635953Y-188816926D01*
X121539297Y-188829653D01*
X121528346Y-188830611D01*
X121144437Y-188847380D01*
X121138939Y-188847500D01*
X105002461Y-188847500D01*
X104996963Y-188847380D01*
X104613053Y-188830611D01*
X104602102Y-188829653D01*
X104505445Y-188816926D01*
X104440519Y-188788202D01*
X104432799Y-188781099D01*
X100566599Y-184914899D01*
X100532573Y-184852587D01*
X100530777Y-184842282D01*
X100518044Y-184745578D01*
X100517089Y-184734667D01*
X100500320Y-184350737D01*
X100500200Y-184345239D01*
X100500200Y-184226709D01*
X111220500Y-184226709D01*
X111220500Y-184469290D01*
X111252160Y-184709782D01*
X111314944Y-184944095D01*
X111314945Y-184944097D01*
X111314946Y-184944100D01*
X111407776Y-185168212D01*
X111407777Y-185168213D01*
X111407782Y-185168224D01*
X111529061Y-185378285D01*
X111529063Y-185378288D01*
X111529064Y-185378289D01*
X111676735Y-185570738D01*
X111676739Y-185570742D01*
X111676744Y-185570748D01*
X111848251Y-185742255D01*
X111848256Y-185742259D01*
X111848262Y-185742265D01*
X112036756Y-185886901D01*
X112040714Y-185889938D01*
X112250775Y-186011217D01*
X112250779Y-186011218D01*
X112250788Y-186011224D01*
X112474900Y-186104054D01*
X112709211Y-186166838D01*
X112709215Y-186166838D01*
X112709217Y-186166839D01*
X112771202Y-186174999D01*
X112949712Y-186198500D01*
X112949719Y-186198500D01*
X113192281Y-186198500D01*
X113192288Y-186198500D01*
X113409637Y-186169885D01*
X113432782Y-186166839D01*
X113432782Y-186166838D01*
X113432789Y-186166838D01*
X113667100Y-186104054D01*
X113891212Y-186011224D01*
X114101289Y-185889936D01*
X114293738Y-185742265D01*
X114465265Y-185570738D01*
X114612936Y-185378289D01*
X114734224Y-185168212D01*
X114827054Y-184944100D01*
X114889838Y-184709789D01*
X114921500Y-184469288D01*
X114921500Y-184226712D01*
X114889838Y-183986211D01*
X114827054Y-183751900D01*
X114734224Y-183527788D01*
X114734218Y-183527779D01*
X114734217Y-183527775D01*
X114612938Y-183317714D01*
X114612936Y-183317711D01*
X114465265Y-183125262D01*
X114465259Y-183125256D01*
X114465255Y-183125251D01*
X114293748Y-182953744D01*
X114293742Y-182953739D01*
X114293738Y-182953735D01*
X114101289Y-182806064D01*
X114101288Y-182806063D01*
X114101285Y-182806061D01*
X113891224Y-182684782D01*
X113891216Y-182684778D01*
X113891212Y-182684776D01*
X113667100Y-182591946D01*
X113667097Y-182591945D01*
X113667095Y-182591944D01*
X113432782Y-182529160D01*
X113192290Y-182497500D01*
X113192288Y-182497500D01*
X112949712Y-182497500D01*
X112949709Y-182497500D01*
X112709217Y-182529160D01*
X112474904Y-182591944D01*
X112474900Y-182591946D01*
X112250786Y-182684777D01*
X112250775Y-182684782D01*
X112040714Y-182806061D01*
X111848262Y-182953735D01*
X111848251Y-182953744D01*
X111676744Y-183125251D01*
X111676735Y-183125262D01*
X111529061Y-183317714D01*
X111407782Y-183527775D01*
X111407777Y-183527786D01*
X111314946Y-183751900D01*
X111314944Y-183751904D01*
X111252160Y-183986217D01*
X111220500Y-184226709D01*
X100500200Y-184226709D01*
X100500200Y-119473084D01*
X104121500Y-119473084D01*
X104121500Y-119686916D01*
X104154951Y-119898116D01*
X104154952Y-119898121D01*
X104221026Y-120101478D01*
X104221028Y-120101483D01*
X104318106Y-120292009D01*
X104443794Y-120465004D01*
X104443796Y-120465006D01*
X104443798Y-120465009D01*
X104594990Y-120616201D01*
X104594993Y-120616203D01*
X104594996Y-120616206D01*
X104767991Y-120741894D01*
X104767996Y-120741896D01*
X104769088Y-120742566D01*
X104769418Y-120742931D01*
X104771996Y-120744804D01*
X104771602Y-120745345D01*
X104816721Y-120795213D01*
X104828328Y-120865255D01*
X104800226Y-120930453D01*
X104771870Y-120955023D01*
X104771996Y-120955196D01*
X104769982Y-120956658D01*
X104769088Y-120957434D01*
X104767987Y-120958108D01*
X104594993Y-121083796D01*
X104594990Y-121083798D01*
X104443798Y-121234990D01*
X104443796Y-121234993D01*
X104318108Y-121407987D01*
X104221029Y-121598515D01*
X104221026Y-121598521D01*
X104154952Y-121801878D01*
X104154951Y-121801883D01*
X104154951Y-121801884D01*
X104121500Y-122013084D01*
X104121500Y-122226916D01*
X104154951Y-122438116D01*
X104154952Y-122438121D01*
X104221026Y-122641478D01*
X104221028Y-122641483D01*
X104318106Y-122832009D01*
X104443794Y-123005004D01*
X104443796Y-123005006D01*
X104443798Y-123005009D01*
X104594989Y-123156200D01*
X104594993Y-123156203D01*
X104594996Y-123156206D01*
X104767991Y-123281894D01*
X104767996Y-123281896D01*
X104769088Y-123282566D01*
X104769418Y-123282931D01*
X104771996Y-123284804D01*
X104771602Y-123285345D01*
X104816721Y-123335213D01*
X104828328Y-123405255D01*
X104800226Y-123470453D01*
X104771870Y-123495023D01*
X104771996Y-123495196D01*
X104769982Y-123496658D01*
X104769088Y-123497434D01*
X104767987Y-123498108D01*
X104594993Y-123623796D01*
X104594990Y-123623798D01*
X104443798Y-123774990D01*
X104443796Y-123774993D01*
X104318108Y-123947987D01*
X104221029Y-124138515D01*
X104221026Y-124138521D01*
X104154952Y-124341878D01*
X104154951Y-124341883D01*
X104154951Y-124341884D01*
X104121500Y-124553084D01*
X104121500Y-124766916D01*
X104154951Y-124978116D01*
X104154952Y-124978121D01*
X104199961Y-125116646D01*
X104221028Y-125181483D01*
X104318106Y-125372009D01*
X104443794Y-125545004D01*
X104443796Y-125545006D01*
X104443798Y-125545009D01*
X104594990Y-125696201D01*
X104594993Y-125696203D01*
X104594996Y-125696206D01*
X104767991Y-125821894D01*
X104767996Y-125821896D01*
X104769088Y-125822566D01*
X104769418Y-125822931D01*
X104771996Y-125824804D01*
X104771602Y-125825345D01*
X104816721Y-125875213D01*
X104828328Y-125945255D01*
X104800226Y-126010453D01*
X104771870Y-126035023D01*
X104771996Y-126035196D01*
X104769982Y-126036658D01*
X104769088Y-126037434D01*
X104767987Y-126038108D01*
X104594993Y-126163796D01*
X104594990Y-126163798D01*
X104443798Y-126314990D01*
X104443796Y-126314993D01*
X104318108Y-126487987D01*
X104221029Y-126678515D01*
X104221026Y-126678521D01*
X104154952Y-126881878D01*
X104154951Y-126881883D01*
X104154951Y-126881884D01*
X104121500Y-127093084D01*
X104121500Y-127306916D01*
X104138777Y-127415997D01*
X104154952Y-127518121D01*
X104218792Y-127714601D01*
X104221028Y-127721483D01*
X104318106Y-127912009D01*
X104443794Y-128085004D01*
X104443796Y-128085006D01*
X104443798Y-128085009D01*
X104594990Y-128236201D01*
X104594993Y-128236203D01*
X104594996Y-128236206D01*
X104767991Y-128361894D01*
X104767996Y-128361896D01*
X104769088Y-128362566D01*
X104769418Y-128362931D01*
X104771996Y-128364804D01*
X104771602Y-128365345D01*
X104816721Y-128415213D01*
X104828328Y-128485255D01*
X104800226Y-128550453D01*
X104771870Y-128575023D01*
X104771996Y-128575196D01*
X104769982Y-128576658D01*
X104769088Y-128577434D01*
X104767987Y-128578108D01*
X104594993Y-128703796D01*
X104594990Y-128703798D01*
X104443798Y-128854990D01*
X104443796Y-128854993D01*
X104318108Y-129027987D01*
X104221029Y-129218515D01*
X104221026Y-129218521D01*
X104154952Y-129421878D01*
X104154951Y-129421883D01*
X104154951Y-129421884D01*
X104121500Y-129633084D01*
X104121500Y-129846916D01*
X104151053Y-130033502D01*
X104154952Y-130058121D01*
X104221026Y-130261478D01*
X104221028Y-130261483D01*
X104318106Y-130452009D01*
X104443794Y-130625004D01*
X104443796Y-130625006D01*
X104443798Y-130625009D01*
X104594990Y-130776201D01*
X104594993Y-130776203D01*
X104594996Y-130776206D01*
X104767991Y-130901894D01*
X104767996Y-130901896D01*
X104769088Y-130902566D01*
X104769418Y-130902931D01*
X104771996Y-130904804D01*
X104771602Y-130905345D01*
X104816721Y-130955213D01*
X104828328Y-131025255D01*
X104800226Y-131090453D01*
X104771870Y-131115023D01*
X104771996Y-131115196D01*
X104769982Y-131116658D01*
X104769088Y-131117434D01*
X104767987Y-131118108D01*
X104594993Y-131243796D01*
X104594990Y-131243798D01*
X104443798Y-131394990D01*
X104443796Y-131394993D01*
X104318108Y-131567987D01*
X104221029Y-131758515D01*
X104221026Y-131758521D01*
X104154952Y-131961878D01*
X104154951Y-131961883D01*
X104154951Y-131961884D01*
X104121500Y-132173084D01*
X104121500Y-132386916D01*
X104144819Y-132534143D01*
X104154952Y-132598121D01*
X104221026Y-132801478D01*
X104221028Y-132801483D01*
X104318106Y-132992009D01*
X104443794Y-133165004D01*
X104443796Y-133165006D01*
X104443798Y-133165009D01*
X104594990Y-133316201D01*
X104594993Y-133316203D01*
X104594996Y-133316206D01*
X104767991Y-133441894D01*
X104767996Y-133441896D01*
X104769088Y-133442566D01*
X104769418Y-133442931D01*
X104771996Y-133444804D01*
X104771602Y-133445345D01*
X104816721Y-133495213D01*
X104828328Y-133565255D01*
X104800226Y-133630453D01*
X104771870Y-133655023D01*
X104771996Y-133655196D01*
X104769982Y-133656658D01*
X104769088Y-133657434D01*
X104767987Y-133658108D01*
X104594993Y-133783796D01*
X104594990Y-133783798D01*
X104443798Y-133934990D01*
X104443796Y-133934993D01*
X104318108Y-134107987D01*
X104221029Y-134298515D01*
X104221026Y-134298521D01*
X104154952Y-134501878D01*
X104154951Y-134501883D01*
X104154951Y-134501884D01*
X104121500Y-134713084D01*
X104121500Y-134926916D01*
X104154951Y-135138116D01*
X104154952Y-135138121D01*
X104221026Y-135341478D01*
X104221028Y-135341483D01*
X104318106Y-135532009D01*
X104443794Y-135705004D01*
X104443796Y-135705006D01*
X104443798Y-135705009D01*
X104594990Y-135856201D01*
X104594993Y-135856203D01*
X104594996Y-135856206D01*
X104767991Y-135981894D01*
X104767996Y-135981896D01*
X104769088Y-135982566D01*
X104769418Y-135982931D01*
X104771996Y-135984804D01*
X104771602Y-135985345D01*
X104816721Y-136035213D01*
X104828328Y-136105255D01*
X104800226Y-136170453D01*
X104771870Y-136195023D01*
X104771996Y-136195196D01*
X104769982Y-136196658D01*
X104769088Y-136197434D01*
X104767987Y-136198108D01*
X104594993Y-136323796D01*
X104594990Y-136323798D01*
X104443798Y-136474990D01*
X104443796Y-136474993D01*
X104318108Y-136647987D01*
X104221029Y-136838515D01*
X104221026Y-136838521D01*
X104154952Y-137041878D01*
X104154951Y-137041883D01*
X104154951Y-137041884D01*
X104121500Y-137253084D01*
X104121500Y-137466916D01*
X104146726Y-137626183D01*
X104154952Y-137678121D01*
X104193040Y-137795345D01*
X104221028Y-137881483D01*
X104318106Y-138072009D01*
X104443794Y-138245004D01*
X104443796Y-138245006D01*
X104443798Y-138245009D01*
X104594990Y-138396201D01*
X104594993Y-138396203D01*
X104594996Y-138396206D01*
X104767991Y-138521894D01*
X104767996Y-138521896D01*
X104769088Y-138522566D01*
X104769418Y-138522931D01*
X104771996Y-138524804D01*
X104771602Y-138525345D01*
X104816721Y-138575213D01*
X104828328Y-138645255D01*
X104800226Y-138710453D01*
X104771870Y-138735023D01*
X104771996Y-138735196D01*
X104769982Y-138736658D01*
X104769088Y-138737434D01*
X104767987Y-138738108D01*
X104594993Y-138863796D01*
X104594990Y-138863798D01*
X104443798Y-139014990D01*
X104443796Y-139014993D01*
X104318108Y-139187987D01*
X104221029Y-139378515D01*
X104221026Y-139378521D01*
X104154952Y-139581878D01*
X104154951Y-139581883D01*
X104154951Y-139581884D01*
X104121500Y-139793084D01*
X104121500Y-140006916D01*
X104154951Y-140218116D01*
X104154952Y-140218121D01*
X104180043Y-140295343D01*
X104221028Y-140421483D01*
X104318106Y-140612009D01*
X104443794Y-140785004D01*
X104443796Y-140785006D01*
X104443798Y-140785009D01*
X104594990Y-140936201D01*
X104594993Y-140936203D01*
X104594996Y-140936206D01*
X104767991Y-141061894D01*
X104767996Y-141061896D01*
X104769088Y-141062566D01*
X104769418Y-141062931D01*
X104771996Y-141064804D01*
X104771602Y-141065345D01*
X104816721Y-141115213D01*
X104828328Y-141185255D01*
X104800226Y-141250453D01*
X104771870Y-141275023D01*
X104771996Y-141275196D01*
X104769982Y-141276658D01*
X104769088Y-141277434D01*
X104767987Y-141278108D01*
X104594993Y-141403796D01*
X104594990Y-141403798D01*
X104443798Y-141554990D01*
X104443796Y-141554993D01*
X104318108Y-141727987D01*
X104221029Y-141918515D01*
X104221026Y-141918521D01*
X104154952Y-142121878D01*
X104154951Y-142121883D01*
X104154951Y-142121884D01*
X104121500Y-142333084D01*
X104121500Y-142546916D01*
X104151565Y-142736738D01*
X104154952Y-142758121D01*
X104186039Y-142853797D01*
X104221028Y-142961483D01*
X104318106Y-143152009D01*
X104443794Y-143325004D01*
X104443796Y-143325006D01*
X104443798Y-143325009D01*
X104594990Y-143476201D01*
X104594993Y-143476203D01*
X104594996Y-143476206D01*
X104767991Y-143601894D01*
X104767996Y-143601896D01*
X104769088Y-143602566D01*
X104769418Y-143602931D01*
X104771996Y-143604804D01*
X104771602Y-143605345D01*
X104816721Y-143655213D01*
X104828328Y-143725255D01*
X104800226Y-143790453D01*
X104771870Y-143815023D01*
X104771996Y-143815196D01*
X104769982Y-143816658D01*
X104769088Y-143817434D01*
X104767987Y-143818108D01*
X104594993Y-143943796D01*
X104594990Y-143943798D01*
X104443798Y-144094990D01*
X104443796Y-144094993D01*
X104318108Y-144267987D01*
X104221029Y-144458515D01*
X104221026Y-144458521D01*
X104154952Y-144661878D01*
X104154951Y-144661883D01*
X104154951Y-144661884D01*
X104121500Y-144873084D01*
X104121500Y-145086916D01*
X104154951Y-145298116D01*
X104154952Y-145298121D01*
X104221026Y-145501478D01*
X104221028Y-145501483D01*
X104318106Y-145692009D01*
X104318108Y-145692012D01*
X104347276Y-145732158D01*
X104443794Y-145865004D01*
X104443796Y-145865006D01*
X104443798Y-145865009D01*
X104594990Y-146016201D01*
X104594993Y-146016203D01*
X104594996Y-146016206D01*
X104767991Y-146141894D01*
X104767996Y-146141896D01*
X104769088Y-146142566D01*
X104769418Y-146142931D01*
X104771996Y-146144804D01*
X104771602Y-146145345D01*
X104816721Y-146195213D01*
X104828328Y-146265255D01*
X104800226Y-146330453D01*
X104771870Y-146355023D01*
X104771996Y-146355196D01*
X104769982Y-146356658D01*
X104769088Y-146357434D01*
X104767987Y-146358108D01*
X104594993Y-146483796D01*
X104594990Y-146483798D01*
X104443798Y-146634990D01*
X104443796Y-146634993D01*
X104318108Y-146807987D01*
X104221029Y-146998515D01*
X104221026Y-146998521D01*
X104154952Y-147201878D01*
X104154951Y-147201883D01*
X104154951Y-147201884D01*
X104121500Y-147413084D01*
X104121500Y-147626916D01*
X104149249Y-147802113D01*
X104154952Y-147838121D01*
X104221026Y-148041478D01*
X104221028Y-148041483D01*
X104315689Y-148227265D01*
X104318108Y-148232012D01*
X104349182Y-148274781D01*
X104443794Y-148405004D01*
X104443796Y-148405006D01*
X104443798Y-148405009D01*
X104594990Y-148556201D01*
X104594993Y-148556203D01*
X104594996Y-148556206D01*
X104767991Y-148681894D01*
X104767996Y-148681896D01*
X104769088Y-148682566D01*
X104769418Y-148682931D01*
X104771996Y-148684804D01*
X104771602Y-148685345D01*
X104816721Y-148735213D01*
X104828328Y-148805255D01*
X104800226Y-148870453D01*
X104771870Y-148895023D01*
X104771996Y-148895196D01*
X104769982Y-148896658D01*
X104769088Y-148897434D01*
X104767987Y-148898108D01*
X104594993Y-149023796D01*
X104594990Y-149023798D01*
X104443798Y-149174990D01*
X104443796Y-149174993D01*
X104318108Y-149347987D01*
X104221029Y-149538515D01*
X104221026Y-149538521D01*
X104154952Y-149741878D01*
X104154951Y-149741883D01*
X104154951Y-149741884D01*
X104121500Y-149953084D01*
X104121500Y-150166916D01*
X104154951Y-150378116D01*
X104154952Y-150378121D01*
X104221026Y-150581478D01*
X104221028Y-150581483D01*
X104318106Y-150772009D01*
X104443794Y-150945004D01*
X104443796Y-150945006D01*
X104443798Y-150945009D01*
X104594990Y-151096201D01*
X104594993Y-151096203D01*
X104594996Y-151096206D01*
X104767991Y-151221894D01*
X104767996Y-151221896D01*
X104769088Y-151222566D01*
X104769418Y-151222931D01*
X104771996Y-151224804D01*
X104771602Y-151225345D01*
X104816721Y-151275213D01*
X104828328Y-151345255D01*
X104800226Y-151410453D01*
X104771870Y-151435023D01*
X104771996Y-151435196D01*
X104769982Y-151436658D01*
X104769088Y-151437434D01*
X104767987Y-151438108D01*
X104594993Y-151563796D01*
X104594990Y-151563798D01*
X104443798Y-151714990D01*
X104443796Y-151714993D01*
X104318108Y-151887987D01*
X104221029Y-152078515D01*
X104221026Y-152078521D01*
X104154952Y-152281878D01*
X104154951Y-152281883D01*
X104154951Y-152281884D01*
X104121500Y-152493084D01*
X104121500Y-152706916D01*
X104149646Y-152884619D01*
X104154952Y-152918121D01*
X104210629Y-153089479D01*
X104221028Y-153121483D01*
X104318106Y-153312009D01*
X104443794Y-153485004D01*
X104443796Y-153485006D01*
X104443798Y-153485009D01*
X104594990Y-153636201D01*
X104594993Y-153636203D01*
X104594996Y-153636206D01*
X104767991Y-153761894D01*
X104767996Y-153761896D01*
X104769088Y-153762566D01*
X104769418Y-153762931D01*
X104771996Y-153764804D01*
X104771602Y-153765345D01*
X104816721Y-153815213D01*
X104828328Y-153885255D01*
X104800226Y-153950453D01*
X104771870Y-153975023D01*
X104771996Y-153975196D01*
X104769982Y-153976658D01*
X104769088Y-153977434D01*
X104767987Y-153978108D01*
X104594993Y-154103796D01*
X104594990Y-154103798D01*
X104443798Y-154254990D01*
X104443796Y-154254993D01*
X104318108Y-154427987D01*
X104221029Y-154618515D01*
X104221026Y-154618521D01*
X104154952Y-154821878D01*
X104154951Y-154821883D01*
X104154951Y-154821884D01*
X104121500Y-155033084D01*
X104121500Y-155246916D01*
X104140489Y-155366806D01*
X104154952Y-155458121D01*
X104221026Y-155661478D01*
X104221028Y-155661483D01*
X104318106Y-155852009D01*
X104443794Y-156025004D01*
X104443796Y-156025006D01*
X104443798Y-156025009D01*
X104594990Y-156176201D01*
X104594993Y-156176203D01*
X104594996Y-156176206D01*
X104767991Y-156301894D01*
X104767996Y-156301896D01*
X104769088Y-156302566D01*
X104769418Y-156302931D01*
X104771996Y-156304804D01*
X104771602Y-156305345D01*
X104816721Y-156355213D01*
X104828328Y-156425255D01*
X104800226Y-156490453D01*
X104771870Y-156515023D01*
X104771996Y-156515196D01*
X104769982Y-156516658D01*
X104769088Y-156517434D01*
X104767987Y-156518108D01*
X104594993Y-156643796D01*
X104594990Y-156643798D01*
X104443798Y-156794990D01*
X104443796Y-156794993D01*
X104318108Y-156967987D01*
X104221029Y-157158515D01*
X104221026Y-157158521D01*
X104154952Y-157361878D01*
X104154951Y-157361883D01*
X104154951Y-157361884D01*
X104121500Y-157573084D01*
X104121500Y-157786916D01*
X104143157Y-157923652D01*
X104154952Y-157998121D01*
X104221026Y-158201478D01*
X104221028Y-158201483D01*
X104318106Y-158392009D01*
X104443794Y-158565004D01*
X104443796Y-158565006D01*
X104443798Y-158565009D01*
X104594990Y-158716201D01*
X104594993Y-158716203D01*
X104594996Y-158716206D01*
X104767991Y-158841894D01*
X104767996Y-158841896D01*
X104769088Y-158842566D01*
X104769418Y-158842931D01*
X104771996Y-158844804D01*
X104771602Y-158845345D01*
X104816721Y-158895213D01*
X104828328Y-158965255D01*
X104800226Y-159030453D01*
X104771870Y-159055023D01*
X104771996Y-159055196D01*
X104769982Y-159056658D01*
X104769088Y-159057434D01*
X104767987Y-159058108D01*
X104594993Y-159183796D01*
X104594990Y-159183798D01*
X104443798Y-159334990D01*
X104443796Y-159334993D01*
X104318108Y-159507987D01*
X104221029Y-159698515D01*
X104221026Y-159698521D01*
X104154952Y-159901878D01*
X104154951Y-159901883D01*
X104154951Y-159901884D01*
X104121500Y-160113084D01*
X104121500Y-160326916D01*
X104154951Y-160538116D01*
X104154952Y-160538121D01*
X104221026Y-160741478D01*
X104221028Y-160741483D01*
X104318106Y-160932009D01*
X104443794Y-161105004D01*
X104443796Y-161105006D01*
X104443798Y-161105009D01*
X104594990Y-161256201D01*
X104594993Y-161256203D01*
X104594996Y-161256206D01*
X104767991Y-161381894D01*
X104767996Y-161381896D01*
X104769088Y-161382566D01*
X104769418Y-161382931D01*
X104771996Y-161384804D01*
X104771602Y-161385345D01*
X104816721Y-161435213D01*
X104828328Y-161505255D01*
X104800226Y-161570453D01*
X104771870Y-161595023D01*
X104771996Y-161595196D01*
X104769982Y-161596658D01*
X104769088Y-161597434D01*
X104767987Y-161598108D01*
X104594993Y-161723796D01*
X104594990Y-161723798D01*
X104443798Y-161874990D01*
X104443796Y-161874993D01*
X104318108Y-162047987D01*
X104221029Y-162238515D01*
X104221026Y-162238521D01*
X104154952Y-162441878D01*
X104154951Y-162441883D01*
X104154951Y-162441884D01*
X104121500Y-162653084D01*
X104121500Y-162866916D01*
X104154951Y-163078116D01*
X104154952Y-163078121D01*
X104204044Y-163229211D01*
X104221028Y-163281483D01*
X104318106Y-163472009D01*
X104443794Y-163645004D01*
X104443796Y-163645006D01*
X104443798Y-163645009D01*
X104594990Y-163796201D01*
X104594993Y-163796203D01*
X104594996Y-163796206D01*
X104767991Y-163921894D01*
X104767996Y-163921896D01*
X104769088Y-163922566D01*
X104769418Y-163922931D01*
X104771996Y-163924804D01*
X104771602Y-163925345D01*
X104816721Y-163975213D01*
X104828328Y-164045255D01*
X104800226Y-164110453D01*
X104771870Y-164135023D01*
X104771996Y-164135196D01*
X104769982Y-164136658D01*
X104769088Y-164137434D01*
X104767987Y-164138108D01*
X104594993Y-164263796D01*
X104594990Y-164263798D01*
X104443798Y-164414990D01*
X104443796Y-164414993D01*
X104318108Y-164587987D01*
X104221029Y-164778515D01*
X104221026Y-164778521D01*
X104154952Y-164981878D01*
X104154951Y-164981883D01*
X104154951Y-164981884D01*
X104121500Y-165193084D01*
X104121500Y-165406916D01*
X104154951Y-165618116D01*
X104154952Y-165618121D01*
X104211286Y-165791500D01*
X104221028Y-165821483D01*
X104318106Y-166012009D01*
X104443794Y-166185004D01*
X104443796Y-166185006D01*
X104443798Y-166185009D01*
X104594990Y-166336201D01*
X104594993Y-166336203D01*
X104594996Y-166336206D01*
X104767991Y-166461894D01*
X104767996Y-166461896D01*
X104769088Y-166462566D01*
X104769418Y-166462931D01*
X104771996Y-166464804D01*
X104771602Y-166465345D01*
X104816721Y-166515213D01*
X104828328Y-166585255D01*
X104800226Y-166650453D01*
X104771870Y-166675023D01*
X104771996Y-166675196D01*
X104769982Y-166676658D01*
X104769088Y-166677434D01*
X104767987Y-166678108D01*
X104594993Y-166803796D01*
X104594990Y-166803798D01*
X104443798Y-166954990D01*
X104443796Y-166954993D01*
X104318108Y-167127987D01*
X104221029Y-167318515D01*
X104221026Y-167318521D01*
X104154952Y-167521878D01*
X104154951Y-167521883D01*
X104154951Y-167521884D01*
X104121500Y-167733084D01*
X104121500Y-167946916D01*
X104144243Y-168090506D01*
X104154952Y-168158121D01*
X104221026Y-168361478D01*
X104221028Y-168361483D01*
X104318106Y-168552009D01*
X104443794Y-168725004D01*
X104443796Y-168725006D01*
X104443798Y-168725009D01*
X104594990Y-168876201D01*
X104594993Y-168876203D01*
X104594996Y-168876206D01*
X104767991Y-169001894D01*
X104767996Y-169001896D01*
X104769088Y-169002566D01*
X104769418Y-169002931D01*
X104771996Y-169004804D01*
X104771602Y-169005345D01*
X104816721Y-169055213D01*
X104828328Y-169125255D01*
X104800226Y-169190453D01*
X104771870Y-169215023D01*
X104771996Y-169215196D01*
X104769982Y-169216658D01*
X104769088Y-169217434D01*
X104767987Y-169218108D01*
X104594993Y-169343796D01*
X104594990Y-169343798D01*
X104443798Y-169494990D01*
X104443796Y-169494993D01*
X104318108Y-169667987D01*
X104221029Y-169858515D01*
X104221026Y-169858521D01*
X104154952Y-170061878D01*
X104154951Y-170061883D01*
X104154951Y-170061884D01*
X104121500Y-170273084D01*
X104121500Y-170486916D01*
X104154951Y-170698116D01*
X104154952Y-170698121D01*
X104155176Y-170698810D01*
X104221028Y-170901483D01*
X104318106Y-171092009D01*
X104443794Y-171265004D01*
X104443796Y-171265006D01*
X104443798Y-171265009D01*
X104594990Y-171416201D01*
X104594993Y-171416203D01*
X104594996Y-171416206D01*
X104767991Y-171541894D01*
X104767996Y-171541896D01*
X104769088Y-171542566D01*
X104769418Y-171542931D01*
X104771996Y-171544804D01*
X104771602Y-171545345D01*
X104816721Y-171595213D01*
X104828328Y-171665255D01*
X104800226Y-171730453D01*
X104771870Y-171755023D01*
X104771996Y-171755196D01*
X104769982Y-171756658D01*
X104769088Y-171757434D01*
X104767987Y-171758108D01*
X104594993Y-171883796D01*
X104594990Y-171883798D01*
X104443798Y-172034990D01*
X104443796Y-172034993D01*
X104318108Y-172207987D01*
X104221029Y-172398515D01*
X104221026Y-172398521D01*
X104154952Y-172601878D01*
X104154951Y-172601883D01*
X104154951Y-172601884D01*
X104121500Y-172813084D01*
X104121500Y-173026916D01*
X104148733Y-173198856D01*
X104154952Y-173238121D01*
X104217406Y-173430336D01*
X104221028Y-173441483D01*
X104318106Y-173632009D01*
X104318108Y-173632012D01*
X104342543Y-173665644D01*
X104443794Y-173805004D01*
X104443796Y-173805006D01*
X104443798Y-173805009D01*
X104594990Y-173956201D01*
X104594993Y-173956203D01*
X104594996Y-173956206D01*
X104767991Y-174081894D01*
X104767996Y-174081896D01*
X104769088Y-174082566D01*
X104769418Y-174082931D01*
X104771996Y-174084804D01*
X104771602Y-174085345D01*
X104816721Y-174135213D01*
X104828328Y-174205255D01*
X104800226Y-174270453D01*
X104771870Y-174295023D01*
X104771996Y-174295196D01*
X104769982Y-174296658D01*
X104769088Y-174297434D01*
X104767987Y-174298108D01*
X104594993Y-174423796D01*
X104594990Y-174423798D01*
X104443798Y-174574990D01*
X104443796Y-174574993D01*
X104318108Y-174747987D01*
X104221029Y-174938515D01*
X104221026Y-174938521D01*
X104154952Y-175141878D01*
X104154951Y-175141883D01*
X104154951Y-175141884D01*
X104121500Y-175353084D01*
X104121500Y-175566916D01*
X104154951Y-175778116D01*
X104154952Y-175778121D01*
X104221026Y-175981478D01*
X104221028Y-175981483D01*
X104318106Y-176172009D01*
X104443794Y-176345004D01*
X104443796Y-176345006D01*
X104443798Y-176345009D01*
X104594990Y-176496201D01*
X104594993Y-176496203D01*
X104594996Y-176496206D01*
X104767991Y-176621894D01*
X104767996Y-176621896D01*
X104769088Y-176622566D01*
X104769418Y-176622931D01*
X104771996Y-176624804D01*
X104771602Y-176625345D01*
X104816721Y-176675213D01*
X104828328Y-176745255D01*
X104800226Y-176810453D01*
X104771870Y-176835023D01*
X104771996Y-176835196D01*
X104769982Y-176836658D01*
X104769088Y-176837434D01*
X104767987Y-176838108D01*
X104594993Y-176963796D01*
X104594990Y-176963798D01*
X104443798Y-177114990D01*
X104443796Y-177114993D01*
X104318108Y-177287987D01*
X104221029Y-177478515D01*
X104221026Y-177478521D01*
X104154952Y-177681878D01*
X104154951Y-177681883D01*
X104154951Y-177681884D01*
X104121500Y-177893084D01*
X104121500Y-178106916D01*
X104154951Y-178318116D01*
X104154952Y-178318121D01*
X104221026Y-178521478D01*
X104221028Y-178521483D01*
X104318106Y-178712009D01*
X104443794Y-178885004D01*
X104443796Y-178885006D01*
X104443798Y-178885009D01*
X104594990Y-179036201D01*
X104594993Y-179036203D01*
X104594996Y-179036206D01*
X104767991Y-179161894D01*
X104958517Y-179258972D01*
X105161878Y-179325047D01*
X105161879Y-179325047D01*
X105161884Y-179325049D01*
X105373084Y-179358500D01*
X105373087Y-179358500D01*
X105586913Y-179358500D01*
X105586916Y-179358500D01*
X105798116Y-179325049D01*
X106001483Y-179258972D01*
X106192009Y-179161894D01*
X106365004Y-179036206D01*
X106516206Y-178885004D01*
X106641894Y-178712009D01*
X106738972Y-178521483D01*
X106805049Y-178318116D01*
X106838500Y-178106916D01*
X106838500Y-177893084D01*
X106805049Y-177681884D01*
X106738972Y-177478517D01*
X106641894Y-177287991D01*
X106516206Y-177114996D01*
X106516203Y-177114993D01*
X106516201Y-177114990D01*
X106365009Y-176963798D01*
X106365006Y-176963796D01*
X106365004Y-176963794D01*
X106192009Y-176838106D01*
X106192007Y-176838105D01*
X106190920Y-176837439D01*
X106190591Y-176837075D01*
X106188004Y-176835196D01*
X106188398Y-176834652D01*
X106143283Y-176784796D01*
X106131670Y-176714756D01*
X106159766Y-176649555D01*
X106188130Y-176624978D01*
X106188004Y-176624804D01*
X106190030Y-176623331D01*
X106190920Y-176622561D01*
X106191997Y-176621899D01*
X106192009Y-176621894D01*
X106365004Y-176496206D01*
X106516206Y-176345004D01*
X106641894Y-176172009D01*
X106738972Y-175981483D01*
X106805049Y-175778116D01*
X106838500Y-175566916D01*
X106838500Y-175353084D01*
X106805049Y-175141884D01*
X106738972Y-174938517D01*
X106641894Y-174747991D01*
X106516206Y-174574996D01*
X106516203Y-174574993D01*
X106516201Y-174574990D01*
X106365009Y-174423798D01*
X106365006Y-174423796D01*
X106365004Y-174423794D01*
X106192009Y-174298106D01*
X106192007Y-174298105D01*
X106190920Y-174297439D01*
X106190591Y-174297075D01*
X106188004Y-174295196D01*
X106188398Y-174294652D01*
X106143283Y-174244796D01*
X106131670Y-174174756D01*
X106159766Y-174109555D01*
X106188130Y-174084978D01*
X106188004Y-174084804D01*
X106190030Y-174083331D01*
X106190920Y-174082561D01*
X106191997Y-174081899D01*
X106192009Y-174081894D01*
X106365004Y-173956206D01*
X106516206Y-173805004D01*
X106641894Y-173632009D01*
X106738972Y-173441483D01*
X106805049Y-173238116D01*
X106838500Y-173026916D01*
X106838500Y-172910518D01*
X109091500Y-172910518D01*
X109091500Y-172910521D01*
X109091500Y-173089479D01*
X109126413Y-173265000D01*
X109194898Y-173430336D01*
X109294322Y-173579135D01*
X109420865Y-173705678D01*
X109569664Y-173805102D01*
X109735000Y-173873587D01*
X109910521Y-173908500D01*
X109910522Y-173908500D01*
X110089478Y-173908500D01*
X110089479Y-173908500D01*
X110265000Y-173873587D01*
X110430336Y-173805102D01*
X110579135Y-173705678D01*
X110589408Y-173695405D01*
X110651720Y-173661379D01*
X110678503Y-173658500D01*
X111004045Y-173658500D01*
X111072166Y-173678502D01*
X111118659Y-173732158D01*
X111123649Y-173744867D01*
X111132883Y-173772734D01*
X111132884Y-173772736D01*
X111132885Y-173772738D01*
X111216624Y-173908499D01*
X111225970Y-173923652D01*
X111225975Y-173923658D01*
X111351341Y-174049024D01*
X111351347Y-174049029D01*
X111351348Y-174049030D01*
X111502262Y-174142115D01*
X111670574Y-174197887D01*
X111774455Y-174208500D01*
X112400544Y-174208499D01*
X112504426Y-174197887D01*
X112672738Y-174142115D01*
X112823652Y-174049030D01*
X112949030Y-173923652D01*
X113042115Y-173772738D01*
X113097887Y-173604426D01*
X113108500Y-173500545D01*
X113108499Y-172499456D01*
X113097887Y-172395574D01*
X113042115Y-172227262D01*
X112949030Y-172076348D01*
X112949029Y-172076347D01*
X112949024Y-172076341D01*
X112823658Y-171950975D01*
X112823652Y-171950970D01*
X112714749Y-171883798D01*
X112672738Y-171857885D01*
X112588582Y-171829999D01*
X112504427Y-171802113D01*
X112504420Y-171802112D01*
X112400553Y-171791500D01*
X111774455Y-171791500D01*
X111670574Y-171802112D01*
X111502261Y-171857885D01*
X111351347Y-171950970D01*
X111351341Y-171950975D01*
X111225975Y-172076341D01*
X111225970Y-172076347D01*
X111132883Y-172227265D01*
X111123649Y-172255133D01*
X111083235Y-172313505D01*
X111017679Y-172340760D01*
X111004045Y-172341500D01*
X110678503Y-172341500D01*
X110610382Y-172321498D01*
X110589408Y-172304595D01*
X110579137Y-172294324D01*
X110579135Y-172294322D01*
X110430336Y-172194898D01*
X110313429Y-172146473D01*
X110265003Y-172126414D01*
X110265001Y-172126413D01*
X110265000Y-172126413D01*
X110176645Y-172108838D01*
X110089481Y-172091500D01*
X110089479Y-172091500D01*
X109910521Y-172091500D01*
X109910518Y-172091500D01*
X109779771Y-172117507D01*
X109735000Y-172126413D01*
X109734999Y-172126413D01*
X109734996Y-172126414D01*
X109569662Y-172194899D01*
X109420869Y-172294319D01*
X109420862Y-172294324D01*
X109294324Y-172420862D01*
X109294319Y-172420869D01*
X109194899Y-172569662D01*
X109126414Y-172734996D01*
X109091500Y-172910518D01*
X106838500Y-172910518D01*
X106838500Y-172813084D01*
X106805049Y-172601884D01*
X106738972Y-172398517D01*
X106641894Y-172207991D01*
X106516206Y-172034996D01*
X106516203Y-172034993D01*
X106516201Y-172034990D01*
X106365009Y-171883798D01*
X106365006Y-171883796D01*
X106365004Y-171883794D01*
X106192009Y-171758106D01*
X106192007Y-171758105D01*
X106190920Y-171757439D01*
X106190591Y-171757075D01*
X106188004Y-171755196D01*
X106188398Y-171754652D01*
X106143283Y-171704796D01*
X106131670Y-171634756D01*
X106159766Y-171569555D01*
X106188130Y-171544978D01*
X106188004Y-171544804D01*
X106190030Y-171543331D01*
X106190920Y-171542561D01*
X106191997Y-171541899D01*
X106192009Y-171541894D01*
X106365004Y-171416206D01*
X106516206Y-171265004D01*
X106641894Y-171092009D01*
X106738972Y-170901483D01*
X106805049Y-170698116D01*
X106838500Y-170486916D01*
X106838500Y-170273084D01*
X106805049Y-170061884D01*
X106738972Y-169858517D01*
X106641894Y-169667991D01*
X106516206Y-169494996D01*
X106516203Y-169494993D01*
X106516201Y-169494990D01*
X106365009Y-169343798D01*
X106365006Y-169343796D01*
X106365004Y-169343794D01*
X106192009Y-169218106D01*
X106192007Y-169218105D01*
X106190920Y-169217439D01*
X106190591Y-169217075D01*
X106188004Y-169215196D01*
X106188398Y-169214652D01*
X106143283Y-169164796D01*
X106131670Y-169094756D01*
X106159766Y-169029555D01*
X106188130Y-169004978D01*
X106188004Y-169004804D01*
X106190030Y-169003331D01*
X106190920Y-169002561D01*
X106191997Y-169001899D01*
X106192009Y-169001894D01*
X106365004Y-168876206D01*
X106516206Y-168725004D01*
X106641894Y-168552009D01*
X106738972Y-168361483D01*
X106805049Y-168158116D01*
X106838500Y-167946916D01*
X106838500Y-167733084D01*
X106805049Y-167521884D01*
X106738972Y-167318517D01*
X106641894Y-167127991D01*
X106516206Y-166954996D01*
X106516203Y-166954993D01*
X106516201Y-166954990D01*
X106471729Y-166910518D01*
X109091500Y-166910518D01*
X109091500Y-167089481D01*
X109099160Y-167127991D01*
X109126413Y-167265000D01*
X109194898Y-167430336D01*
X109294322Y-167579135D01*
X109420865Y-167705678D01*
X109569664Y-167805102D01*
X109735000Y-167873587D01*
X109910521Y-167908500D01*
X109910522Y-167908500D01*
X110089478Y-167908500D01*
X110089479Y-167908500D01*
X110265000Y-167873587D01*
X110430336Y-167805102D01*
X110579135Y-167705678D01*
X110589408Y-167695405D01*
X110651720Y-167661379D01*
X110678503Y-167658500D01*
X111004045Y-167658500D01*
X111072166Y-167678502D01*
X111118659Y-167732158D01*
X111123649Y-167744867D01*
X111132883Y-167772734D01*
X111132884Y-167772736D01*
X111132885Y-167772738D01*
X111216624Y-167908499D01*
X111225970Y-167923652D01*
X111225975Y-167923658D01*
X111351341Y-168049024D01*
X111351347Y-168049029D01*
X111351348Y-168049030D01*
X111502262Y-168142115D01*
X111670574Y-168197887D01*
X111774455Y-168208500D01*
X112400544Y-168208499D01*
X112504426Y-168197887D01*
X112672738Y-168142115D01*
X112823652Y-168049030D01*
X112949030Y-167923652D01*
X113042115Y-167772738D01*
X113097887Y-167604426D01*
X113108500Y-167500545D01*
X113108499Y-166499456D01*
X113097887Y-166395574D01*
X113042115Y-166227262D01*
X112949030Y-166076348D01*
X112949029Y-166076347D01*
X112949024Y-166076341D01*
X112823658Y-165950975D01*
X112823652Y-165950970D01*
X112819871Y-165948638D01*
X112672738Y-165857885D01*
X112562867Y-165821478D01*
X112504427Y-165802113D01*
X112504420Y-165802112D01*
X112400553Y-165791500D01*
X111774455Y-165791500D01*
X111670574Y-165802112D01*
X111502261Y-165857885D01*
X111351347Y-165950970D01*
X111351341Y-165950975D01*
X111225975Y-166076341D01*
X111225970Y-166076347D01*
X111132883Y-166227265D01*
X111123649Y-166255133D01*
X111083235Y-166313505D01*
X111017679Y-166340760D01*
X111004045Y-166341500D01*
X110678503Y-166341500D01*
X110610382Y-166321498D01*
X110589408Y-166304595D01*
X110579137Y-166294324D01*
X110579135Y-166294322D01*
X110430336Y-166194898D01*
X110312774Y-166146202D01*
X110265003Y-166126414D01*
X110265001Y-166126413D01*
X110265000Y-166126413D01*
X110176645Y-166108838D01*
X110089481Y-166091500D01*
X110089479Y-166091500D01*
X109910521Y-166091500D01*
X109910518Y-166091500D01*
X109779771Y-166117507D01*
X109735000Y-166126413D01*
X109734999Y-166126413D01*
X109734996Y-166126414D01*
X109569662Y-166194899D01*
X109420869Y-166294319D01*
X109420862Y-166294324D01*
X109294324Y-166420862D01*
X109294319Y-166420869D01*
X109194899Y-166569662D01*
X109126414Y-166734996D01*
X109091500Y-166910518D01*
X106471729Y-166910518D01*
X106365009Y-166803798D01*
X106365006Y-166803796D01*
X106365004Y-166803794D01*
X106192009Y-166678106D01*
X106192007Y-166678105D01*
X106190920Y-166677439D01*
X106190591Y-166677075D01*
X106188004Y-166675196D01*
X106188398Y-166674652D01*
X106143283Y-166624796D01*
X106131670Y-166554756D01*
X106159766Y-166489555D01*
X106188130Y-166464978D01*
X106188004Y-166464804D01*
X106190030Y-166463331D01*
X106190920Y-166462561D01*
X106191997Y-166461899D01*
X106192009Y-166461894D01*
X106365004Y-166336206D01*
X106516206Y-166185004D01*
X106641894Y-166012009D01*
X106738972Y-165821483D01*
X106805049Y-165618116D01*
X106838500Y-165406916D01*
X106838500Y-165193084D01*
X106805049Y-164981884D01*
X106738972Y-164778517D01*
X106641894Y-164587991D01*
X106516206Y-164414996D01*
X106516203Y-164414993D01*
X106516201Y-164414990D01*
X106365009Y-164263798D01*
X106365006Y-164263796D01*
X106365004Y-164263794D01*
X106192009Y-164138106D01*
X106192007Y-164138105D01*
X106190920Y-164137439D01*
X106190591Y-164137075D01*
X106188004Y-164135196D01*
X106188398Y-164134652D01*
X106143283Y-164084796D01*
X106131670Y-164014756D01*
X106159766Y-163949555D01*
X106188130Y-163924978D01*
X106188004Y-163924804D01*
X106190030Y-163923331D01*
X106190920Y-163922561D01*
X106191997Y-163921899D01*
X106192009Y-163921894D01*
X106365004Y-163796206D01*
X106516206Y-163645004D01*
X106641894Y-163472009D01*
X106738972Y-163281483D01*
X106805049Y-163078116D01*
X106831594Y-162910518D01*
X109091500Y-162910518D01*
X109091500Y-162910521D01*
X109091500Y-163089479D01*
X109119295Y-163229217D01*
X109126414Y-163265003D01*
X109133241Y-163281484D01*
X109194898Y-163430336D01*
X109294322Y-163579135D01*
X109420865Y-163705678D01*
X109569664Y-163805102D01*
X109735000Y-163873587D01*
X109910521Y-163908500D01*
X109910522Y-163908500D01*
X110089478Y-163908500D01*
X110089479Y-163908500D01*
X110265000Y-163873587D01*
X110430336Y-163805102D01*
X110579135Y-163705678D01*
X110589408Y-163695405D01*
X110651720Y-163661379D01*
X110678503Y-163658500D01*
X111004045Y-163658500D01*
X111072166Y-163678502D01*
X111118659Y-163732158D01*
X111123649Y-163744867D01*
X111132883Y-163772734D01*
X111132884Y-163772736D01*
X111132885Y-163772738D01*
X111216624Y-163908499D01*
X111225970Y-163923652D01*
X111225975Y-163923658D01*
X111351341Y-164049024D01*
X111351347Y-164049029D01*
X111351348Y-164049030D01*
X111502262Y-164142115D01*
X111670574Y-164197887D01*
X111774455Y-164208500D01*
X112400544Y-164208499D01*
X112504426Y-164197887D01*
X112672738Y-164142115D01*
X112823652Y-164049030D01*
X112949030Y-163923652D01*
X113042115Y-163772738D01*
X113097887Y-163604426D01*
X113108500Y-163500545D01*
X113108499Y-162499456D01*
X113097887Y-162395574D01*
X113042115Y-162227262D01*
X112949030Y-162076348D01*
X112949029Y-162076347D01*
X112949024Y-162076341D01*
X112823658Y-161950975D01*
X112823652Y-161950970D01*
X112786050Y-161927777D01*
X112672738Y-161857885D01*
X112588582Y-161829999D01*
X112504427Y-161802113D01*
X112504420Y-161802112D01*
X112400553Y-161791500D01*
X111774455Y-161791500D01*
X111670574Y-161802112D01*
X111502261Y-161857885D01*
X111351347Y-161950970D01*
X111351341Y-161950975D01*
X111225975Y-162076341D01*
X111225970Y-162076347D01*
X111132883Y-162227265D01*
X111123649Y-162255133D01*
X111083235Y-162313505D01*
X111017679Y-162340760D01*
X111004045Y-162341500D01*
X110678503Y-162341500D01*
X110610382Y-162321498D01*
X110589408Y-162304595D01*
X110579137Y-162294324D01*
X110579135Y-162294322D01*
X110430336Y-162194898D01*
X110313429Y-162146473D01*
X110265003Y-162126414D01*
X110265001Y-162126413D01*
X110265000Y-162126413D01*
X110176645Y-162108838D01*
X110089481Y-162091500D01*
X110089479Y-162091500D01*
X109910521Y-162091500D01*
X109910518Y-162091500D01*
X109779771Y-162117507D01*
X109735000Y-162126413D01*
X109734999Y-162126413D01*
X109734996Y-162126414D01*
X109569662Y-162194899D01*
X109420869Y-162294319D01*
X109420862Y-162294324D01*
X109294324Y-162420862D01*
X109294319Y-162420869D01*
X109194899Y-162569662D01*
X109126414Y-162734996D01*
X109091500Y-162910518D01*
X106831594Y-162910518D01*
X106838500Y-162866916D01*
X106838500Y-162653084D01*
X106805049Y-162441884D01*
X106738972Y-162238517D01*
X106641894Y-162047991D01*
X106516206Y-161874996D01*
X106516203Y-161874993D01*
X106516201Y-161874990D01*
X106365009Y-161723798D01*
X106365006Y-161723796D01*
X106365004Y-161723794D01*
X106192009Y-161598106D01*
X106192007Y-161598105D01*
X106190920Y-161597439D01*
X106190591Y-161597075D01*
X106188004Y-161595196D01*
X106188398Y-161594652D01*
X106143283Y-161544796D01*
X106131670Y-161474756D01*
X106159766Y-161409555D01*
X106188130Y-161384978D01*
X106188004Y-161384804D01*
X106190030Y-161383331D01*
X106190920Y-161382561D01*
X106191997Y-161381899D01*
X106192009Y-161381894D01*
X106365004Y-161256206D01*
X106516206Y-161105004D01*
X106641894Y-160932009D01*
X106738972Y-160741483D01*
X106805049Y-160538116D01*
X106838500Y-160326916D01*
X106838500Y-160113084D01*
X106805049Y-159901884D01*
X106738972Y-159698517D01*
X106641894Y-159507991D01*
X106516206Y-159334996D01*
X106516203Y-159334993D01*
X106516201Y-159334990D01*
X106365009Y-159183798D01*
X106365006Y-159183796D01*
X106365004Y-159183794D01*
X106192009Y-159058106D01*
X106192007Y-159058105D01*
X106190920Y-159057439D01*
X106190591Y-159057075D01*
X106188004Y-159055196D01*
X106188398Y-159054652D01*
X106143283Y-159004796D01*
X106131670Y-158934756D01*
X106159766Y-158869555D01*
X106188130Y-158844978D01*
X106188004Y-158844804D01*
X106190030Y-158843331D01*
X106190920Y-158842561D01*
X106191997Y-158841899D01*
X106192009Y-158841894D01*
X106365004Y-158716206D01*
X106516206Y-158565004D01*
X106641894Y-158392009D01*
X106738972Y-158201483D01*
X106805049Y-157998116D01*
X106838500Y-157786916D01*
X106838500Y-157573084D01*
X106805049Y-157361884D01*
X106738972Y-157158517D01*
X106641894Y-156967991D01*
X106600137Y-156910518D01*
X109091500Y-156910518D01*
X109091500Y-156910521D01*
X109091500Y-157089479D01*
X109126413Y-157265000D01*
X109194898Y-157430336D01*
X109294322Y-157579135D01*
X109420865Y-157705678D01*
X109569664Y-157805102D01*
X109735000Y-157873587D01*
X109910521Y-157908500D01*
X109910522Y-157908500D01*
X110089478Y-157908500D01*
X110089479Y-157908500D01*
X110265000Y-157873587D01*
X110430336Y-157805102D01*
X110579135Y-157705678D01*
X110589408Y-157695405D01*
X110651720Y-157661379D01*
X110678503Y-157658500D01*
X111004045Y-157658500D01*
X111072166Y-157678502D01*
X111118659Y-157732158D01*
X111123649Y-157744867D01*
X111132883Y-157772734D01*
X111132884Y-157772736D01*
X111132885Y-157772738D01*
X111216624Y-157908499D01*
X111225970Y-157923652D01*
X111225975Y-157923658D01*
X111351341Y-158049024D01*
X111351347Y-158049029D01*
X111351348Y-158049030D01*
X111502262Y-158142115D01*
X111670574Y-158197887D01*
X111774455Y-158208500D01*
X112400544Y-158208499D01*
X112504426Y-158197887D01*
X112672738Y-158142115D01*
X112823652Y-158049030D01*
X112949030Y-157923652D01*
X113042115Y-157772738D01*
X113097887Y-157604426D01*
X113108500Y-157500545D01*
X113108499Y-156499456D01*
X113097887Y-156395574D01*
X113042115Y-156227262D01*
X112949030Y-156076348D01*
X112949029Y-156076347D01*
X112949024Y-156076341D01*
X112823658Y-155950975D01*
X112823652Y-155950970D01*
X112672738Y-155857885D01*
X112588582Y-155829999D01*
X112504427Y-155802113D01*
X112504420Y-155802112D01*
X112400553Y-155791500D01*
X111774455Y-155791500D01*
X111670574Y-155802112D01*
X111502261Y-155857885D01*
X111351347Y-155950970D01*
X111351341Y-155950975D01*
X111225975Y-156076341D01*
X111225970Y-156076347D01*
X111132883Y-156227265D01*
X111123649Y-156255133D01*
X111083235Y-156313505D01*
X111017679Y-156340760D01*
X111004045Y-156341500D01*
X110678503Y-156341500D01*
X110610382Y-156321498D01*
X110589408Y-156304595D01*
X110579137Y-156294324D01*
X110579135Y-156294322D01*
X110430336Y-156194898D01*
X110297102Y-156139710D01*
X110265003Y-156126414D01*
X110265001Y-156126413D01*
X110265000Y-156126413D01*
X110176645Y-156108838D01*
X110089481Y-156091500D01*
X110089479Y-156091500D01*
X109910521Y-156091500D01*
X109910518Y-156091500D01*
X109779771Y-156117507D01*
X109735000Y-156126413D01*
X109734999Y-156126413D01*
X109734996Y-156126414D01*
X109569662Y-156194899D01*
X109420869Y-156294319D01*
X109420862Y-156294324D01*
X109294324Y-156420862D01*
X109294319Y-156420869D01*
X109194899Y-156569662D01*
X109126414Y-156734996D01*
X109091500Y-156910518D01*
X106600137Y-156910518D01*
X106516206Y-156794996D01*
X106516203Y-156794993D01*
X106516201Y-156794990D01*
X106365009Y-156643798D01*
X106365006Y-156643796D01*
X106365004Y-156643794D01*
X106192009Y-156518106D01*
X106192007Y-156518105D01*
X106190920Y-156517439D01*
X106190591Y-156517075D01*
X106188004Y-156515196D01*
X106188398Y-156514652D01*
X106143283Y-156464796D01*
X106131670Y-156394756D01*
X106159766Y-156329555D01*
X106188130Y-156304978D01*
X106188004Y-156304804D01*
X106190030Y-156303331D01*
X106190920Y-156302561D01*
X106191997Y-156301899D01*
X106192009Y-156301894D01*
X106365004Y-156176206D01*
X106516206Y-156025004D01*
X106641894Y-155852009D01*
X106738972Y-155661483D01*
X106805049Y-155458116D01*
X106838500Y-155246916D01*
X106838500Y-155033084D01*
X106805049Y-154821884D01*
X106738972Y-154618517D01*
X106641894Y-154427991D01*
X106516206Y-154254996D01*
X106516203Y-154254993D01*
X106516201Y-154254990D01*
X106365009Y-154103798D01*
X106365006Y-154103796D01*
X106365004Y-154103794D01*
X106192009Y-153978106D01*
X106192007Y-153978105D01*
X106190920Y-153977439D01*
X106190591Y-153977075D01*
X106188004Y-153975196D01*
X106188398Y-153974652D01*
X106143283Y-153924796D01*
X106131670Y-153854756D01*
X106159766Y-153789555D01*
X106188130Y-153764978D01*
X106188004Y-153764804D01*
X106190030Y-153763331D01*
X106190920Y-153762561D01*
X106191997Y-153761899D01*
X106192009Y-153761894D01*
X106365004Y-153636206D01*
X106516206Y-153485004D01*
X106641894Y-153312009D01*
X106738972Y-153121483D01*
X106805049Y-152918116D01*
X106806252Y-152910518D01*
X109091500Y-152910518D01*
X109091500Y-152910521D01*
X109091500Y-153089479D01*
X109126413Y-153265000D01*
X109194898Y-153430336D01*
X109294322Y-153579135D01*
X109420865Y-153705678D01*
X109569664Y-153805102D01*
X109735000Y-153873587D01*
X109910521Y-153908500D01*
X109910522Y-153908500D01*
X110089478Y-153908500D01*
X110089479Y-153908500D01*
X110265000Y-153873587D01*
X110430336Y-153805102D01*
X110579135Y-153705678D01*
X110589408Y-153695405D01*
X110651720Y-153661379D01*
X110678503Y-153658500D01*
X111004045Y-153658500D01*
X111072166Y-153678502D01*
X111118659Y-153732158D01*
X111123649Y-153744867D01*
X111132883Y-153772734D01*
X111132884Y-153772736D01*
X111132885Y-153772738D01*
X111216624Y-153908499D01*
X111225970Y-153923652D01*
X111225975Y-153923658D01*
X111351341Y-154049024D01*
X111351347Y-154049029D01*
X111351348Y-154049030D01*
X111502262Y-154142115D01*
X111670574Y-154197887D01*
X111774455Y-154208500D01*
X112400544Y-154208499D01*
X112504426Y-154197887D01*
X112672738Y-154142115D01*
X112823652Y-154049030D01*
X112823658Y-154049024D01*
X112910905Y-153961778D01*
X112973217Y-153927752D01*
X113044032Y-153932817D01*
X113089095Y-153961778D01*
X113176341Y-154049024D01*
X113176347Y-154049029D01*
X113176348Y-154049030D01*
X113327262Y-154142115D01*
X113495574Y-154197887D01*
X113599455Y-154208500D01*
X114225544Y-154208499D01*
X114329426Y-154197887D01*
X114497738Y-154142115D01*
X114648652Y-154049030D01*
X114774030Y-153923652D01*
X114867115Y-153772738D01*
X114870709Y-153761891D01*
X114876351Y-153744867D01*
X114916765Y-153686495D01*
X114982321Y-153659240D01*
X114995955Y-153658500D01*
X115321497Y-153658500D01*
X115389618Y-153678502D01*
X115410592Y-153695405D01*
X115420865Y-153705678D01*
X115569664Y-153805102D01*
X115735000Y-153873587D01*
X115910521Y-153908500D01*
X115910522Y-153908500D01*
X116089478Y-153908500D01*
X116089479Y-153908500D01*
X116265000Y-153873587D01*
X116430336Y-153805102D01*
X116579135Y-153705678D01*
X116705678Y-153579135D01*
X116805102Y-153430336D01*
X116873587Y-153265000D01*
X116908500Y-153089479D01*
X116908500Y-152910521D01*
X116873587Y-152735000D01*
X116805102Y-152569664D01*
X116705678Y-152420865D01*
X116579135Y-152294322D01*
X116430336Y-152194898D01*
X116313429Y-152146473D01*
X116265003Y-152126414D01*
X116265001Y-152126413D01*
X116265000Y-152126413D01*
X116176645Y-152108838D01*
X116089481Y-152091500D01*
X116089479Y-152091500D01*
X115910521Y-152091500D01*
X115910518Y-152091500D01*
X115779771Y-152117507D01*
X115735000Y-152126413D01*
X115734999Y-152126413D01*
X115734996Y-152126414D01*
X115569662Y-152194899D01*
X115420869Y-152294319D01*
X115420862Y-152294324D01*
X115410592Y-152304595D01*
X115348280Y-152338621D01*
X115321497Y-152341500D01*
X114995955Y-152341500D01*
X114927834Y-152321498D01*
X114881341Y-152267842D01*
X114876351Y-152255133D01*
X114867116Y-152227265D01*
X114867115Y-152227264D01*
X114867115Y-152227262D01*
X114774030Y-152076348D01*
X114774029Y-152076347D01*
X114774024Y-152076341D01*
X114648658Y-151950975D01*
X114648652Y-151950970D01*
X114546547Y-151887991D01*
X114497738Y-151857885D01*
X114413582Y-151829999D01*
X114329427Y-151802113D01*
X114329420Y-151802112D01*
X114225553Y-151791500D01*
X113599455Y-151791500D01*
X113495574Y-151802112D01*
X113327261Y-151857885D01*
X113176347Y-151950970D01*
X113176341Y-151950975D01*
X113089095Y-152038222D01*
X113026783Y-152072248D01*
X112955968Y-152067183D01*
X112910905Y-152038222D01*
X112823658Y-151950975D01*
X112823652Y-151950970D01*
X112721547Y-151887991D01*
X112672738Y-151857885D01*
X112588582Y-151829999D01*
X112504427Y-151802113D01*
X112504420Y-151802112D01*
X112400553Y-151791500D01*
X111774455Y-151791500D01*
X111670574Y-151802112D01*
X111502261Y-151857885D01*
X111351347Y-151950970D01*
X111351341Y-151950975D01*
X111225975Y-152076341D01*
X111225970Y-152076347D01*
X111132883Y-152227265D01*
X111123649Y-152255133D01*
X111083235Y-152313505D01*
X111017679Y-152340760D01*
X111004045Y-152341500D01*
X110678503Y-152341500D01*
X110610382Y-152321498D01*
X110589408Y-152304595D01*
X110579137Y-152294324D01*
X110579135Y-152294322D01*
X110430336Y-152194898D01*
X110313429Y-152146473D01*
X110265003Y-152126414D01*
X110265001Y-152126413D01*
X110265000Y-152126413D01*
X110176645Y-152108838D01*
X110089481Y-152091500D01*
X110089479Y-152091500D01*
X109910521Y-152091500D01*
X109910518Y-152091500D01*
X109779771Y-152117507D01*
X109735000Y-152126413D01*
X109734999Y-152126413D01*
X109734996Y-152126414D01*
X109569662Y-152194899D01*
X109420869Y-152294319D01*
X109420862Y-152294324D01*
X109294324Y-152420862D01*
X109294319Y-152420869D01*
X109194899Y-152569662D01*
X109126414Y-152734996D01*
X109091500Y-152910518D01*
X106806252Y-152910518D01*
X106838500Y-152706916D01*
X106838500Y-152493084D01*
X106805049Y-152281884D01*
X106738972Y-152078517D01*
X106641894Y-151887991D01*
X106516206Y-151714996D01*
X106516203Y-151714993D01*
X106516201Y-151714990D01*
X106365009Y-151563798D01*
X106365006Y-151563796D01*
X106365004Y-151563794D01*
X106192009Y-151438106D01*
X106192007Y-151438105D01*
X106190920Y-151437439D01*
X106190591Y-151437075D01*
X106188004Y-151435196D01*
X106188398Y-151434652D01*
X106143283Y-151384796D01*
X106131670Y-151314756D01*
X106159766Y-151249555D01*
X106188130Y-151224978D01*
X106188004Y-151224804D01*
X106190030Y-151223331D01*
X106190920Y-151222561D01*
X106191997Y-151221899D01*
X106192009Y-151221894D01*
X106365004Y-151096206D01*
X106516206Y-150945004D01*
X106641894Y-150772009D01*
X106738972Y-150581483D01*
X106805049Y-150378116D01*
X106838500Y-150166916D01*
X106838500Y-149953084D01*
X106805049Y-149741884D01*
X106738972Y-149538517D01*
X106641894Y-149347991D01*
X106516206Y-149174996D01*
X106516203Y-149174993D01*
X106516201Y-149174990D01*
X106365009Y-149023798D01*
X106365006Y-149023796D01*
X106365004Y-149023794D01*
X106209093Y-148910518D01*
X109091500Y-148910518D01*
X109091500Y-148910521D01*
X109091500Y-149089479D01*
X109126413Y-149265000D01*
X109194898Y-149430336D01*
X109294322Y-149579135D01*
X109420865Y-149705678D01*
X109569664Y-149805102D01*
X109735000Y-149873587D01*
X109910521Y-149908500D01*
X109910522Y-149908500D01*
X110089478Y-149908500D01*
X110089479Y-149908500D01*
X110265000Y-149873587D01*
X110430336Y-149805102D01*
X110579135Y-149705678D01*
X110589408Y-149695405D01*
X110651720Y-149661379D01*
X110678503Y-149658500D01*
X111004045Y-149658500D01*
X111072166Y-149678502D01*
X111118659Y-149732158D01*
X111123649Y-149744867D01*
X111132883Y-149772734D01*
X111132884Y-149772736D01*
X111132885Y-149772738D01*
X111216624Y-149908499D01*
X111225970Y-149923652D01*
X111225975Y-149923658D01*
X111351341Y-150049024D01*
X111351347Y-150049029D01*
X111351348Y-150049030D01*
X111502262Y-150142115D01*
X111670574Y-150197887D01*
X111774455Y-150208500D01*
X112400544Y-150208499D01*
X112504426Y-150197887D01*
X112672738Y-150142115D01*
X112823652Y-150049030D01*
X112949030Y-149923652D01*
X113042115Y-149772738D01*
X113097887Y-149604426D01*
X113108500Y-149500545D01*
X113108499Y-148499456D01*
X113097887Y-148395574D01*
X113042115Y-148227262D01*
X112949030Y-148076348D01*
X112949029Y-148076347D01*
X112949024Y-148076341D01*
X112823658Y-147950975D01*
X112823652Y-147950970D01*
X112672738Y-147857885D01*
X112588582Y-147829999D01*
X112504427Y-147802113D01*
X112504420Y-147802112D01*
X112400553Y-147791500D01*
X111774455Y-147791500D01*
X111670574Y-147802112D01*
X111502261Y-147857885D01*
X111351347Y-147950970D01*
X111351341Y-147950975D01*
X111225975Y-148076341D01*
X111225970Y-148076347D01*
X111132883Y-148227265D01*
X111123649Y-148255133D01*
X111083235Y-148313505D01*
X111017679Y-148340760D01*
X111004045Y-148341500D01*
X110678503Y-148341500D01*
X110610382Y-148321498D01*
X110589408Y-148304595D01*
X110579137Y-148294324D01*
X110579135Y-148294322D01*
X110430336Y-148194898D01*
X110313429Y-148146473D01*
X110265003Y-148126414D01*
X110265001Y-148126413D01*
X110265000Y-148126413D01*
X110176645Y-148108838D01*
X110089481Y-148091500D01*
X110089479Y-148091500D01*
X109910521Y-148091500D01*
X109910518Y-148091500D01*
X109779771Y-148117507D01*
X109735000Y-148126413D01*
X109734999Y-148126413D01*
X109734996Y-148126414D01*
X109569662Y-148194899D01*
X109420869Y-148294319D01*
X109420862Y-148294324D01*
X109294324Y-148420862D01*
X109294319Y-148420869D01*
X109194899Y-148569662D01*
X109126414Y-148734996D01*
X109126413Y-148734999D01*
X109126413Y-148735000D01*
X109117507Y-148779771D01*
X109091500Y-148910518D01*
X106209093Y-148910518D01*
X106192009Y-148898106D01*
X106189330Y-148896741D01*
X106182939Y-148892122D01*
X106164009Y-148867700D01*
X106143283Y-148844796D01*
X106142474Y-148839917D01*
X106139444Y-148836008D01*
X106136722Y-148805228D01*
X106131670Y-148774756D01*
X106133626Y-148770215D01*
X106133191Y-148765288D01*
X106147540Y-148737927D01*
X106159766Y-148709555D01*
X106164629Y-148705340D01*
X106166165Y-148702413D01*
X106171517Y-148699372D01*
X106188130Y-148684978D01*
X106188004Y-148684804D01*
X106190030Y-148683331D01*
X106190920Y-148682561D01*
X106191997Y-148681899D01*
X106192009Y-148681894D01*
X106365004Y-148556206D01*
X106516206Y-148405004D01*
X106641894Y-148232009D01*
X106738972Y-148041483D01*
X106805049Y-147838116D01*
X106838500Y-147626916D01*
X106838500Y-147413084D01*
X106805049Y-147201884D01*
X106738972Y-146998517D01*
X106641894Y-146807991D01*
X106516206Y-146634996D01*
X106516203Y-146634993D01*
X106516201Y-146634990D01*
X106365009Y-146483798D01*
X106365006Y-146483796D01*
X106365004Y-146483794D01*
X106192009Y-146358106D01*
X106192007Y-146358105D01*
X106190920Y-146357439D01*
X106190591Y-146357075D01*
X106188004Y-146355196D01*
X106188398Y-146354652D01*
X106143283Y-146304796D01*
X106131670Y-146234756D01*
X106159766Y-146169555D01*
X106188130Y-146144978D01*
X106188004Y-146144804D01*
X106190030Y-146143331D01*
X106190920Y-146142561D01*
X106191997Y-146141899D01*
X106192009Y-146141894D01*
X106365004Y-146016206D01*
X106516206Y-145865004D01*
X106641894Y-145692009D01*
X106738972Y-145501483D01*
X106805049Y-145298116D01*
X106838500Y-145086916D01*
X106838500Y-144910518D01*
X109091500Y-144910518D01*
X109091500Y-144910521D01*
X109091500Y-145089479D01*
X109126413Y-145265000D01*
X109194898Y-145430336D01*
X109294322Y-145579135D01*
X109420865Y-145705678D01*
X109569664Y-145805102D01*
X109735000Y-145873587D01*
X109910521Y-145908500D01*
X109910522Y-145908500D01*
X110089478Y-145908500D01*
X110089479Y-145908500D01*
X110265000Y-145873587D01*
X110430336Y-145805102D01*
X110579135Y-145705678D01*
X110589408Y-145695405D01*
X110651720Y-145661379D01*
X110678503Y-145658500D01*
X111004045Y-145658500D01*
X111072166Y-145678502D01*
X111118659Y-145732158D01*
X111123649Y-145744867D01*
X111132883Y-145772734D01*
X111132884Y-145772736D01*
X111132885Y-145772738D01*
X111216624Y-145908499D01*
X111225970Y-145923652D01*
X111225975Y-145923658D01*
X111351341Y-146049024D01*
X111351347Y-146049029D01*
X111351348Y-146049030D01*
X111502262Y-146142115D01*
X111670574Y-146197887D01*
X111774455Y-146208500D01*
X112400544Y-146208499D01*
X112504426Y-146197887D01*
X112672738Y-146142115D01*
X112823652Y-146049030D01*
X112856481Y-146016201D01*
X112910905Y-145961778D01*
X112973217Y-145927752D01*
X113044032Y-145932817D01*
X113089095Y-145961778D01*
X113176341Y-146049024D01*
X113176347Y-146049029D01*
X113176348Y-146049030D01*
X113327262Y-146142115D01*
X113495574Y-146197887D01*
X113599455Y-146208500D01*
X114225544Y-146208499D01*
X114329426Y-146197887D01*
X114497738Y-146142115D01*
X114648652Y-146049030D01*
X114774030Y-145923652D01*
X114867115Y-145772738D01*
X114870222Y-145763359D01*
X114876351Y-145744867D01*
X114916765Y-145686495D01*
X114982321Y-145659240D01*
X114995955Y-145658500D01*
X115321497Y-145658500D01*
X115389618Y-145678502D01*
X115410592Y-145695405D01*
X115420865Y-145705678D01*
X115569664Y-145805102D01*
X115735000Y-145873587D01*
X115910521Y-145908500D01*
X115910522Y-145908500D01*
X116089478Y-145908500D01*
X116089479Y-145908500D01*
X116265000Y-145873587D01*
X116430336Y-145805102D01*
X116579135Y-145705678D01*
X116705678Y-145579135D01*
X116805102Y-145430336D01*
X116873587Y-145265000D01*
X116908500Y-145089479D01*
X116908500Y-144910521D01*
X116873587Y-144735000D01*
X116805102Y-144569664D01*
X116705678Y-144420865D01*
X116579135Y-144294322D01*
X116430336Y-144194898D01*
X116313429Y-144146473D01*
X116265003Y-144126414D01*
X116265001Y-144126413D01*
X116265000Y-144126413D01*
X116176645Y-144108838D01*
X116089481Y-144091500D01*
X116089479Y-144091500D01*
X115910521Y-144091500D01*
X115910518Y-144091500D01*
X115779771Y-144117507D01*
X115735000Y-144126413D01*
X115734999Y-144126413D01*
X115734996Y-144126414D01*
X115569662Y-144194899D01*
X115420869Y-144294319D01*
X115420862Y-144294324D01*
X115410592Y-144304595D01*
X115348280Y-144338621D01*
X115321497Y-144341500D01*
X114995955Y-144341500D01*
X114927834Y-144321498D01*
X114881341Y-144267842D01*
X114876351Y-144255133D01*
X114867116Y-144227265D01*
X114867115Y-144227264D01*
X114867115Y-144227262D01*
X114774030Y-144076348D01*
X114774029Y-144076347D01*
X114774024Y-144076341D01*
X114648658Y-143950975D01*
X114648652Y-143950970D01*
X114637018Y-143943794D01*
X114497738Y-143857885D01*
X114375663Y-143817434D01*
X114329427Y-143802113D01*
X114329420Y-143802112D01*
X114225553Y-143791500D01*
X113599455Y-143791500D01*
X113495574Y-143802112D01*
X113327261Y-143857885D01*
X113176347Y-143950970D01*
X113176341Y-143950975D01*
X113089095Y-144038222D01*
X113026783Y-144072248D01*
X112955968Y-144067183D01*
X112910905Y-144038222D01*
X112823658Y-143950975D01*
X112823652Y-143950970D01*
X112812018Y-143943794D01*
X112672738Y-143857885D01*
X112550663Y-143817434D01*
X112504427Y-143802113D01*
X112504420Y-143802112D01*
X112400553Y-143791500D01*
X111774455Y-143791500D01*
X111670574Y-143802112D01*
X111502261Y-143857885D01*
X111351347Y-143950970D01*
X111351341Y-143950975D01*
X111225975Y-144076341D01*
X111225970Y-144076347D01*
X111132883Y-144227265D01*
X111123649Y-144255133D01*
X111083235Y-144313505D01*
X111017679Y-144340760D01*
X111004045Y-144341500D01*
X110678503Y-144341500D01*
X110610382Y-144321498D01*
X110589408Y-144304595D01*
X110579137Y-144294324D01*
X110579135Y-144294322D01*
X110430336Y-144194898D01*
X110313429Y-144146473D01*
X110265003Y-144126414D01*
X110265001Y-144126413D01*
X110265000Y-144126413D01*
X110176645Y-144108838D01*
X110089481Y-144091500D01*
X110089479Y-144091500D01*
X109910521Y-144091500D01*
X109910518Y-144091500D01*
X109779771Y-144117507D01*
X109735000Y-144126413D01*
X109734999Y-144126413D01*
X109734996Y-144126414D01*
X109569662Y-144194899D01*
X109420869Y-144294319D01*
X109420862Y-144294324D01*
X109294324Y-144420862D01*
X109294319Y-144420869D01*
X109194899Y-144569662D01*
X109126414Y-144734996D01*
X109091500Y-144910518D01*
X106838500Y-144910518D01*
X106838500Y-144873084D01*
X106805049Y-144661884D01*
X106738972Y-144458517D01*
X106641894Y-144267991D01*
X106516206Y-144094996D01*
X106516203Y-144094993D01*
X106516201Y-144094990D01*
X106365009Y-143943798D01*
X106365006Y-143943796D01*
X106365004Y-143943794D01*
X106192009Y-143818106D01*
X106192007Y-143818105D01*
X106190920Y-143817439D01*
X106190591Y-143817075D01*
X106188004Y-143815196D01*
X106188398Y-143814652D01*
X106143283Y-143764796D01*
X106131670Y-143694756D01*
X106159766Y-143629555D01*
X106188130Y-143604978D01*
X106188004Y-143604804D01*
X106190030Y-143603331D01*
X106190920Y-143602561D01*
X106191997Y-143601899D01*
X106192009Y-143601894D01*
X106365004Y-143476206D01*
X106516206Y-143325004D01*
X106641894Y-143152009D01*
X106738972Y-142961483D01*
X106805049Y-142758116D01*
X106838500Y-142546916D01*
X106838500Y-142333084D01*
X106805049Y-142121884D01*
X106738972Y-141918517D01*
X106641894Y-141727991D01*
X106516206Y-141554996D01*
X106516203Y-141554993D01*
X106516201Y-141554990D01*
X106365009Y-141403798D01*
X106365006Y-141403796D01*
X106365004Y-141403794D01*
X106192009Y-141278106D01*
X106192007Y-141278105D01*
X106190920Y-141277439D01*
X106190591Y-141277075D01*
X106188004Y-141275196D01*
X106188398Y-141274652D01*
X106143283Y-141224796D01*
X106131670Y-141154756D01*
X106159766Y-141089555D01*
X106188130Y-141064978D01*
X106188004Y-141064804D01*
X106190030Y-141063331D01*
X106190920Y-141062561D01*
X106191997Y-141061899D01*
X106192009Y-141061894D01*
X106365004Y-140936206D01*
X106516206Y-140785004D01*
X106641894Y-140612009D01*
X106738972Y-140421483D01*
X106805049Y-140218116D01*
X106838500Y-140006916D01*
X106838500Y-139793084D01*
X106805049Y-139581884D01*
X106738972Y-139378517D01*
X106641894Y-139187991D01*
X106516206Y-139014996D01*
X106516203Y-139014993D01*
X106516201Y-139014990D01*
X106365009Y-138863798D01*
X106365006Y-138863796D01*
X106365004Y-138863794D01*
X106192009Y-138738106D01*
X106192007Y-138738105D01*
X106190920Y-138737439D01*
X106190591Y-138737075D01*
X106188004Y-138735196D01*
X106188398Y-138734652D01*
X106143283Y-138684796D01*
X106131670Y-138614756D01*
X106159766Y-138549555D01*
X106188130Y-138524978D01*
X106188004Y-138524804D01*
X106190030Y-138523331D01*
X106190920Y-138522561D01*
X106191997Y-138521899D01*
X106192009Y-138521894D01*
X106365004Y-138396206D01*
X106516206Y-138245004D01*
X106641894Y-138072009D01*
X106738972Y-137881483D01*
X106805049Y-137678116D01*
X106838500Y-137466916D01*
X106838500Y-137253084D01*
X106805049Y-137041884D01*
X106738972Y-136838517D01*
X106641894Y-136647991D01*
X106516206Y-136474996D01*
X106516203Y-136474993D01*
X106516201Y-136474990D01*
X106365009Y-136323798D01*
X106365006Y-136323796D01*
X106365004Y-136323794D01*
X106192009Y-136198106D01*
X106192007Y-136198105D01*
X106190920Y-136197439D01*
X106190591Y-136197075D01*
X106188004Y-136195196D01*
X106188398Y-136194652D01*
X106143283Y-136144796D01*
X106131670Y-136074756D01*
X106159766Y-136009555D01*
X106188130Y-135984978D01*
X106188004Y-135984804D01*
X106190030Y-135983331D01*
X106190920Y-135982561D01*
X106191997Y-135981899D01*
X106192009Y-135981894D01*
X106365004Y-135856206D01*
X106516206Y-135705004D01*
X106641894Y-135532009D01*
X106738972Y-135341483D01*
X106805049Y-135138116D01*
X106838500Y-134926916D01*
X106838500Y-134713084D01*
X106805049Y-134501884D01*
X106738972Y-134298517D01*
X106641894Y-134107991D01*
X106516206Y-133934996D01*
X106516203Y-133934993D01*
X106516201Y-133934990D01*
X106365009Y-133783798D01*
X106365006Y-133783796D01*
X106365004Y-133783794D01*
X106192009Y-133658106D01*
X106192007Y-133658105D01*
X106190920Y-133657439D01*
X106190591Y-133657075D01*
X106188004Y-133655196D01*
X106188398Y-133654652D01*
X106143283Y-133604796D01*
X106131670Y-133534756D01*
X106159766Y-133469555D01*
X106188130Y-133444978D01*
X106188004Y-133444804D01*
X106190030Y-133443331D01*
X106190920Y-133442561D01*
X106191997Y-133441899D01*
X106192009Y-133441894D01*
X106365004Y-133316206D01*
X106516206Y-133165004D01*
X106641894Y-132992009D01*
X106738972Y-132801483D01*
X106805049Y-132598116D01*
X106838500Y-132386916D01*
X106838500Y-132173084D01*
X106805049Y-131961884D01*
X106738972Y-131758517D01*
X106641894Y-131567991D01*
X106516206Y-131394996D01*
X106516203Y-131394993D01*
X106516201Y-131394990D01*
X106365009Y-131243798D01*
X106365006Y-131243796D01*
X106365004Y-131243794D01*
X106192009Y-131118106D01*
X106192007Y-131118105D01*
X106190920Y-131117439D01*
X106190591Y-131117075D01*
X106188004Y-131115196D01*
X106188398Y-131114652D01*
X106143283Y-131064796D01*
X106131670Y-130994756D01*
X106159766Y-130929555D01*
X106188130Y-130904978D01*
X106188004Y-130904804D01*
X106190030Y-130903331D01*
X106190920Y-130902561D01*
X106191997Y-130901899D01*
X106192009Y-130901894D01*
X106365004Y-130776206D01*
X106516206Y-130625004D01*
X106641894Y-130452009D01*
X106738972Y-130261483D01*
X106805049Y-130058116D01*
X106838500Y-129846916D01*
X106838500Y-129633084D01*
X106805049Y-129421884D01*
X106738972Y-129218517D01*
X106641894Y-129027991D01*
X106516206Y-128854996D01*
X106516203Y-128854993D01*
X106516201Y-128854990D01*
X106365009Y-128703798D01*
X106365006Y-128703796D01*
X106365004Y-128703794D01*
X106192009Y-128578106D01*
X106192007Y-128578105D01*
X106190920Y-128577439D01*
X106190591Y-128577075D01*
X106188004Y-128575196D01*
X106188398Y-128574652D01*
X106143283Y-128524796D01*
X106131670Y-128454756D01*
X106159766Y-128389555D01*
X106188130Y-128364978D01*
X106188004Y-128364804D01*
X106190030Y-128363331D01*
X106190920Y-128362561D01*
X106191997Y-128361899D01*
X106192009Y-128361894D01*
X106365004Y-128236206D01*
X106516206Y-128085004D01*
X106641894Y-127912009D01*
X106738972Y-127721483D01*
X106805049Y-127518116D01*
X106838500Y-127306916D01*
X106838500Y-127093084D01*
X106805049Y-126881884D01*
X106738972Y-126678517D01*
X106641894Y-126487991D01*
X106516206Y-126314996D01*
X106516203Y-126314993D01*
X106516201Y-126314990D01*
X106365009Y-126163798D01*
X106365006Y-126163796D01*
X106365004Y-126163794D01*
X106192009Y-126038106D01*
X106192007Y-126038105D01*
X106190920Y-126037439D01*
X106190591Y-126037075D01*
X106188004Y-126035196D01*
X106188398Y-126034652D01*
X106143283Y-125984796D01*
X106131670Y-125914756D01*
X106159766Y-125849555D01*
X106188130Y-125824978D01*
X106188004Y-125824804D01*
X106190030Y-125823331D01*
X106190920Y-125822561D01*
X106191997Y-125821899D01*
X106192009Y-125821894D01*
X106365004Y-125696206D01*
X106516206Y-125545004D01*
X106641894Y-125372009D01*
X106738972Y-125181483D01*
X106805049Y-124978116D01*
X106838500Y-124766916D01*
X106838500Y-124553084D01*
X106805049Y-124341884D01*
X106738972Y-124138517D01*
X106641894Y-123947991D01*
X106516206Y-123774996D01*
X106516203Y-123774993D01*
X106516201Y-123774990D01*
X106365009Y-123623798D01*
X106365006Y-123623796D01*
X106365004Y-123623794D01*
X106192009Y-123498106D01*
X106192007Y-123498105D01*
X106190920Y-123497439D01*
X106190591Y-123497075D01*
X106188004Y-123495196D01*
X106188398Y-123494652D01*
X106143283Y-123444796D01*
X106131670Y-123374756D01*
X106159766Y-123309555D01*
X106188130Y-123284978D01*
X106188004Y-123284804D01*
X106190030Y-123283331D01*
X106190920Y-123282561D01*
X106191997Y-123281899D01*
X106192009Y-123281894D01*
X106365004Y-123156206D01*
X106365008Y-123156201D01*
X106365011Y-123156200D01*
X106516201Y-123005009D01*
X106516206Y-123005004D01*
X106641894Y-122832009D01*
X106738972Y-122641483D01*
X106805049Y-122438116D01*
X106838500Y-122226916D01*
X106838500Y-122013084D01*
X106805049Y-121801884D01*
X106738972Y-121598517D01*
X106641894Y-121407991D01*
X106516206Y-121234996D01*
X106516203Y-121234993D01*
X106516201Y-121234990D01*
X106365009Y-121083798D01*
X106365006Y-121083796D01*
X106365004Y-121083794D01*
X106192009Y-120958106D01*
X106192007Y-120958105D01*
X106190920Y-120957439D01*
X106190591Y-120957075D01*
X106188004Y-120955196D01*
X106188398Y-120954652D01*
X106143283Y-120904796D01*
X106131670Y-120834756D01*
X106159766Y-120769555D01*
X106188130Y-120744978D01*
X106188004Y-120744804D01*
X106190030Y-120743331D01*
X106190920Y-120742561D01*
X106191997Y-120741899D01*
X106192009Y-120741894D01*
X106365004Y-120616206D01*
X106516206Y-120465004D01*
X106641894Y-120292009D01*
X106738972Y-120101483D01*
X106805049Y-119898116D01*
X106838500Y-119686916D01*
X106838500Y-119473084D01*
X106805049Y-119261884D01*
X106738972Y-119058517D01*
X106641894Y-118867991D01*
X106516206Y-118694996D01*
X106516203Y-118694993D01*
X106516201Y-118694990D01*
X106365009Y-118543798D01*
X106365006Y-118543796D01*
X106365004Y-118543794D01*
X106192009Y-118418106D01*
X106001483Y-118321028D01*
X106001480Y-118321027D01*
X106001478Y-118321026D01*
X105798120Y-118254952D01*
X105798123Y-118254952D01*
X105758801Y-118248724D01*
X105586916Y-118221500D01*
X105373084Y-118221500D01*
X105161884Y-118254951D01*
X105161878Y-118254952D01*
X104958521Y-118321026D01*
X104958515Y-118321029D01*
X104767987Y-118418108D01*
X104594993Y-118543796D01*
X104594990Y-118543798D01*
X104443798Y-118694990D01*
X104443796Y-118694993D01*
X104318108Y-118867987D01*
X104221029Y-119058515D01*
X104221026Y-119058521D01*
X104154952Y-119261878D01*
X104154951Y-119261883D01*
X104154951Y-119261884D01*
X104121500Y-119473084D01*
X100500200Y-119473084D01*
X100500200Y-105002360D01*
X100500320Y-104996862D01*
X100505481Y-104878709D01*
X111294500Y-104878709D01*
X111294500Y-105121290D01*
X111326160Y-105361782D01*
X111388944Y-105596095D01*
X111388945Y-105596097D01*
X111388946Y-105596100D01*
X111481776Y-105820212D01*
X111481777Y-105820213D01*
X111481782Y-105820224D01*
X111603061Y-106030285D01*
X111603063Y-106030288D01*
X111603064Y-106030289D01*
X111750735Y-106222738D01*
X111750739Y-106222742D01*
X111750744Y-106222748D01*
X111922251Y-106394255D01*
X111922256Y-106394259D01*
X111922262Y-106394265D01*
X112114711Y-106541936D01*
X112114714Y-106541938D01*
X112324775Y-106663217D01*
X112324779Y-106663218D01*
X112324788Y-106663224D01*
X112548900Y-106756054D01*
X112783211Y-106818838D01*
X112783215Y-106818838D01*
X112783217Y-106818839D01*
X112845202Y-106826999D01*
X113023712Y-106850500D01*
X113023719Y-106850500D01*
X113266281Y-106850500D01*
X113266288Y-106850500D01*
X113483637Y-106821885D01*
X113506782Y-106818839D01*
X113506782Y-106818838D01*
X113506789Y-106818838D01*
X113741100Y-106756054D01*
X113965212Y-106663224D01*
X114175289Y-106541936D01*
X114367738Y-106394265D01*
X114539265Y-106222738D01*
X114686936Y-106030289D01*
X114808224Y-105820212D01*
X114901054Y-105596100D01*
X114963838Y-105361789D01*
X114995500Y-105121288D01*
X114995500Y-104878712D01*
X114963838Y-104638211D01*
X114901054Y-104403900D01*
X114808224Y-104179788D01*
X114808218Y-104179779D01*
X114808217Y-104179775D01*
X114686938Y-103969714D01*
X114686936Y-103969711D01*
X114539265Y-103777262D01*
X114539259Y-103777256D01*
X114539255Y-103777251D01*
X114367748Y-103605744D01*
X114367742Y-103605739D01*
X114367738Y-103605735D01*
X114175289Y-103458064D01*
X114175288Y-103458063D01*
X114175285Y-103458061D01*
X113965224Y-103336782D01*
X113965216Y-103336778D01*
X113965212Y-103336776D01*
X113741100Y-103243946D01*
X113741097Y-103243945D01*
X113741095Y-103243944D01*
X113506782Y-103181160D01*
X113266290Y-103149500D01*
X113266288Y-103149500D01*
X113023712Y-103149500D01*
X113023709Y-103149500D01*
X112783217Y-103181160D01*
X112548904Y-103243944D01*
X112548900Y-103243946D01*
X112324786Y-103336777D01*
X112324775Y-103336782D01*
X112114714Y-103458061D01*
X111922262Y-103605735D01*
X111922251Y-103605744D01*
X111750744Y-103777251D01*
X111750735Y-103777262D01*
X111603061Y-103969714D01*
X111481782Y-104179775D01*
X111481777Y-104179786D01*
X111481776Y-104179788D01*
X111424261Y-104318643D01*
X111388946Y-104403900D01*
X111388944Y-104403904D01*
X111326160Y-104638217D01*
X111294500Y-104878709D01*
X100505481Y-104878709D01*
X100505901Y-104869089D01*
X100510138Y-104772089D01*
X100517089Y-104612930D01*
X100518043Y-104602025D01*
X100530774Y-104505341D01*
X100559497Y-104440418D01*
X100566576Y-104432723D01*
X104432802Y-100566497D01*
X104453183Y-100555368D01*
X104470916Y-100540368D01*
X104490960Y-100534739D01*
X104495110Y-100532474D01*
X104505424Y-100530676D01*
X104602125Y-100517943D01*
X104613030Y-100516989D01*
X104996963Y-100500220D01*
X105002461Y-100500100D01*
X121138939Y-100500100D01*
X121144437Y-100500220D01*
G37*
%TD.AperFunction*%
%TD*%
M02*
