M48
; DRILL file KiCad 10.0.2 date 2026-05-17T19:54:17
; FORMAT={-:-/ absolute / inch / decimal}
; #@! TF.CreationDate,2026-05-17T19:54:17-07:00
; #@! TF.GenerationSoftware,Kicad,Pcbnew,10.0.2
; #@! TF.FileFunction,Plated,1,2,PTH
FMAT,2
INCH
; #@! TA.AperFunction,Plated,PTH,ViaDrill
T1C0.0157
; #@! TA.AperFunction,Plated,PTH,ComponentDrill
T2C0.0394
%
G90
G05
T1
X4.3307Y-5.7087
X4.3307Y-5.8661
X4.3307Y-6.0236
X4.3307Y-6.1811
X4.3307Y-6.4173
X4.3307Y-6.5748
X4.3307Y-6.811
X4.5669Y-5.7087
X4.5669Y-6.0236
T2
X4.1528Y-4.7079
X4.1528Y-4.8079
X4.1528Y-4.9079
X4.1528Y-5.0079
X4.1528Y-5.1079
X4.1528Y-5.2079
X4.1528Y-5.3079
X4.1528Y-5.4079
X4.1528Y-5.5079
X4.1528Y-5.6079
X4.1528Y-5.7079
X4.1528Y-5.8079
X4.1528Y-5.9079
X4.1528Y-6.0079
X4.1528Y-6.1079
X4.1528Y-6.2079
X4.1528Y-6.3079
X4.1528Y-6.4079
X4.1528Y-6.5079
X4.1528Y-6.6079
X4.1528Y-6.7079
X4.1528Y-6.8079
X4.1528Y-6.9079
X4.1528Y-7.0079
X4.7528Y-4.7079
X4.7528Y-4.8079
X4.7528Y-4.9079
X4.7528Y-5.0079
X4.7528Y-5.1079
X4.7528Y-5.2079
X4.7528Y-5.3079
X4.7528Y-5.4079
X4.7528Y-5.5079
X4.7528Y-5.6079
X4.7528Y-5.7079
X4.7528Y-5.8079
X4.7528Y-5.9079
X4.7528Y-6.0079
X4.7528Y-6.1079
X4.7528Y-6.2079
X4.7528Y-6.3079
X4.7528Y-6.4079
X4.7528Y-6.5079
X4.7528Y-6.6079
X4.7528Y-6.7079
X4.7528Y-6.8079
X4.7528Y-6.9079
X4.7528Y-7.0079
X5.0394Y-5.1772
X5.0394Y-5.2756
X5.0394Y-5.374
X5.0394Y-5.4724
X5.0394Y-5.5709
X5.0394Y-5.6693
X5.0394Y-6.0433
X5.0394Y-6.1417
X5.0394Y-6.3976
X5.0394Y-6.4961
M30
