%TF.GenerationSoftware,KiCad,Pcbnew,10.0.2*%
%TF.CreationDate,2026-05-15T14:07:56-07:00*%
%TF.ProjectId,teensy41_pendant_carrier,7465656e-7379-4343-915f-70656e64616e,B*%
%TF.SameCoordinates,Original*%
%TF.FileFunction,Soldermask,Bot*%
%TF.FilePolarity,Negative*%
%FSLAX46Y46*%
G04 Gerber Fmt 4.6, Leading zero omitted, Abs format (unit mm)*
G04 Created by KiCad (PCBNEW 10.0.2) date 2026-05-15 14:07:56*
%MOMM*%
%LPD*%
G01*
G04 APERTURE LIST*
%ADD10R,1.700000X1.700000*%
%ADD11C,1.700000*%
%ADD12R,1.800000X1.800000*%
%ADD13C,1.800000*%
%ADD14C,3.200000*%
G04 APERTURE END LIST*
D10*
%TO.C,U1*%
X120720000Y-178000000D03*
D11*
X120720000Y-175460000D03*
X120720000Y-172920000D03*
X120720000Y-170380000D03*
X120720000Y-167840000D03*
X120720000Y-165300000D03*
X120720000Y-162760000D03*
X120720000Y-160220000D03*
X120720000Y-157680000D03*
X120720000Y-155140000D03*
X120720000Y-152600000D03*
X120720000Y-150060000D03*
X120720000Y-147520000D03*
X120720000Y-144980000D03*
X120720000Y-142440000D03*
X120720000Y-139900000D03*
X120720000Y-137360000D03*
X120720000Y-134820000D03*
X120720000Y-132280000D03*
X120720000Y-129740000D03*
X120720000Y-127200000D03*
X120720000Y-124660000D03*
X120720000Y-122120000D03*
X120720000Y-119580000D03*
X105480000Y-178000000D03*
X105480000Y-175460000D03*
X105480000Y-172920000D03*
X105480000Y-170380000D03*
X105480000Y-167840000D03*
X105480000Y-165300000D03*
X105480000Y-162760000D03*
X105480000Y-160220000D03*
X105480000Y-157680000D03*
X105480000Y-155140000D03*
X105480000Y-152600000D03*
X105480000Y-150060000D03*
X105480000Y-147520000D03*
X105480000Y-144980000D03*
X105480000Y-142440000D03*
X105480000Y-139900000D03*
X105480000Y-137360000D03*
X105480000Y-134820000D03*
X105480000Y-132280000D03*
X105480000Y-129740000D03*
X105480000Y-127200000D03*
X105480000Y-124660000D03*
X105480000Y-122120000D03*
X105480000Y-119580000D03*
%TD*%
D12*
%TO.C,J3*%
X128000000Y-144000000D03*
D13*
X128000000Y-141500000D03*
X128000000Y-139000000D03*
X128000000Y-136500000D03*
X128000000Y-134000000D03*
X128000000Y-131500000D03*
%TD*%
D12*
%TO.C,J2*%
X128000000Y-156000000D03*
D13*
X128000000Y-153500000D03*
%TD*%
D12*
%TO.C,J1*%
X128000000Y-165000000D03*
D13*
X128000000Y-162500000D03*
%TD*%
D14*
%TO.C,MH1*%
X113145000Y-105000000D03*
%TD*%
%TO.C,MH2*%
X113071000Y-184348000D03*
%TD*%
%TO.C,MH3*%
X143730000Y-133215000D03*
%TD*%
%TO.C,MH4*%
X143730000Y-163591000D03*
%TD*%
M02*
