M48
; DRILL file KiCad 10.0.2 date 2026-05-15T14:08:00
; FORMAT={-:-/ absolute / metric / decimal}
; #@! TF.CreationDate,2026-05-15T14:08:00-07:00
; #@! TF.GenerationSoftware,Kicad,Pcbnew,10.0.2
; #@! TF.FileFunction,Plated,1,2,PTH
FMAT,2
METRIC
; #@! TA.AperFunction,Plated,PTH,ViaDrill
T1C0.400
; #@! TA.AperFunction,Plated,PTH,ComponentDrill
T2C1.000
%
G90
G05
T1
X110.0Y-145.0
X110.0Y-149.0
X110.0Y-153.0
X110.0Y-157.0
X110.0Y-163.0
X110.0Y-167.0
X110.0Y-173.0
X116.0Y-145.0
X116.0Y-153.0
T2
X105.48Y-119.58
X105.48Y-122.12
X105.48Y-124.66
X105.48Y-127.2
X105.48Y-129.74
X105.48Y-132.28
X105.48Y-134.82
X105.48Y-137.36
X105.48Y-139.9
X105.48Y-142.44
X105.48Y-144.98
X105.48Y-147.52
X105.48Y-150.06
X105.48Y-152.6
X105.48Y-155.14
X105.48Y-157.68
X105.48Y-160.22
X105.48Y-162.76
X105.48Y-165.3
X105.48Y-167.84
X105.48Y-170.38
X105.48Y-172.92
X105.48Y-175.46
X105.48Y-178.0
X120.72Y-119.58
X120.72Y-122.12
X120.72Y-124.66
X120.72Y-127.2
X120.72Y-129.74
X120.72Y-132.28
X120.72Y-134.82
X120.72Y-137.36
X120.72Y-139.9
X120.72Y-142.44
X120.72Y-144.98
X120.72Y-147.52
X120.72Y-150.06
X120.72Y-152.6
X120.72Y-155.14
X120.72Y-157.68
X120.72Y-160.22
X120.72Y-162.76
X120.72Y-165.3
X120.72Y-167.84
X120.72Y-170.38
X120.72Y-172.92
X120.72Y-175.46
X120.72Y-178.0
X128.0Y-131.5
X128.0Y-134.0
X128.0Y-136.5
X128.0Y-139.0
X128.0Y-141.5
X128.0Y-144.0
X128.0Y-153.5
X128.0Y-156.0
X128.0Y-162.5
X128.0Y-165.0
M30
