0
SECTION
2
HEADER
9
$INSUNITS
70
4
9
$ACADVER
1
AC1014
9
$HANDSEED
5
FFFF
0
ENDSEC
0
SECTION
2
TABLES
0
TABLE
2
VPORT
5
8
100
AcDbSymbolTable
0
ENDTAB
0
TABLE
2
LTYPE
5
5
100
AcDbSymbolTable
0
LTYPE
5
14
100
AcDbSymbolTableRecord
100
AcDbLinetypeTableRecord
2
BYBLOCK
70
0
0
LTYPE
5
15
100
AcDbSymbolTableRecord
100
AcDbLinetypeTableRecord
2
BYLAYER
70
0
0
LTYPE
5
16
100
AcDbSymbolTableRecord
100
AcDbLinetypeTableRecord
2
DASHED
70
0
3
Dashed __ __ __ __ __ __ __ __ __ __ __ __ __ _
72
65
73
2
40
0.75
49
0.5
74
0
49
-0.25
74
0
0
ENDTAB
0
TABLE
2
LAYER
5
2
100
AcDbSymbolTable
70
2
0
LAYER
5
50
100
AcDbSymbolTableRecord
100
AcDbLayerTableRecord
2
0
70
0
62
7
6
CONTINUOUS
0
ENDTAB
0
TABLE
2
STYLE
5
3
100
AcDbSymbolTable
70
1
0
STYLE
5
11
100
AcDbSymbolTableRecord
100
AcDbTextStyleTableRecord
2
STANDARD
70
0
0
ENDTAB
0
TABLE
2
VIEW
5
6
100
AcDbSymbolTable
70
0
0
ENDTAB
0
TABLE
2
UCS
5
7
100
AcDbSymbolTable
70
0
0
ENDTAB
0
TABLE
2
APPID
5
9
100
AcDbSymbolTable
70
2
0
APPID
5
12
100
AcDbSymbolTableRecord
100
AcDbRegAppTableRecord
2
ACAD
70
0
0
ENDTAB
0
TABLE
2
DIMSTYLE
5
A
100
AcDbSymbolTable
70
1
0
ENDTAB
0
TABLE
2
BLOCK_RECORD
5
1
100
AcDbSymbolTable
70
1
0
BLOCK_RECORD
5
1F
100
AcDbSymbolTableRecord
100
AcDbBlockTableRecord
2
*MODEL_SPACE
0
BLOCK_RECORD
5
1B
100
AcDbSymbolTableRecord
100
AcDbBlockTableRecord
2
*PAPER_SPACE
0
ENDTAB
0
ENDSEC
0
SECTION
2
BLOCKS
0
BLOCK
5
20
100
AcDbEntity
100
AcDbBlockBegin
2
*MODEL_SPACE
0
ENDBLK
5
21
100
AcDbEntity
100
AcDbBlockEnd
0
BLOCK
5
1C
100
AcDbEntity
100
AcDbBlockBegin
2
*PAPER_SPACE
0
ENDBLK
5
1D
100
AcDbEntity
100
AcDbBlockEnd
0
ENDSEC
0
SECTION
2
ENTITIES
0
POINT
5
100
100
AcDbEntity
8
0
100
AcDbPoint
10
62.861726083028017
20
38.591439710848086
30
0
0
POINT
5
101
100
AcDbEntity
8
0
100
AcDbPoint
10
62.787688733676781
20
-45.757023211813497
30
0
0
POINT
5
102
100
AcDbEntity
8
0
100
AcDbPoint
10
62.787688733676781
20
-40.757023211813461
30
0
0
POINT
5
103
100
AcDbEntity
8
0
100
AcDbPoint
10
93.447255067441546
20
10.375921535148237
30
0
0
POINT
5
104
100
AcDbEntity
8
0
100
AcDbPoint
10
93.44725506744156
20
-20.000000372529026
30
0
0
POINT
5
105
100
AcDbEntity
8
0
100
AcDbPoint
10
48.148928281731678
20
-93.608549683608416
30
0
0
LWPOLYLINE
5
106
100
AcDbEntity
8
0
100
AcDbPolyline
90
16
70
1
43
0.0
10
54.716727403210129
20
-45.757023211813497
10
70.858650064143418
20
-45.75702321181349
42
0.41421356237309553
10
75.858650064143418
20
-40.757023211813497
10
75.858650064143418
20
-30.00000037252903
42
-0.41421356237309581
10
80.858650064143404
20
-25.000000372529026
10
93.44725506744156
20
-25.000000372529026
42
0.41421356237309448
10
98.44725506744156
20
-20.000000372529033
10
98.44725506744156
20
10.375921535148237
42
0.41421356237309509
10
93.447255067441546
20
15.375921535148255
10
80.858650064143404
20
15.375921535148255
42
-0.41421356237309404
10
75.858650064143418
20
20.375921535148262
10
75.858650064143418
20
38.591439710848078
42
0.41421356237309603
10
70.858650064143418
20
43.591439710848078
10
54.716727403210122
20
43.591439710848078
42
0.41421356237309603
10
49.716727403210122
20
38.591439710848078
10
49.716727403210122
20
-40.75702321181349
42
0.41421356237309193
0
CIRCLE
5
107
100
AcDbEntity
8
0
100
AcDbCircle
10
62.861726083028017
20
38.591439710848086
30
0
40
1.499999999999998
210
0
220
0
230
1
0
CIRCLE
5
108
100
AcDbEntity
8
0
100
AcDbCircle
10
62.787688733676781
20
-40.757023211813461
30
0
40
1.5000000000000009
210
0
220
0
230
1
0
CIRCLE
5
109
100
AcDbEntity
8
0
100
AcDbCircle
10
93.447255067441546
20
10.375921535148237
30
0
40
1.5000000000000002
210
0
220
0
230
1
0
CIRCLE
5
110
100
AcDbEntity
8
0
100
AcDbCircle
10
93.44725506744156
20
-20.000000372529026
30
0
40
1.4999999999999993
210
0
220
0
230
1
0
ENDSEC
0
SECTION
2
OBJECTS
0
DICTIONARY
5
C
100
AcDbDictionary
3
ACAD_GROUP
350
D
3
ACAD_MLINESTYLE
350
17
0
DICTIONARY
5
D
100
AcDbDictionary
0
DICTIONARY
5
1A
330
C
100
AcDbDictionary
0
DICTIONARY
5
17
100
AcDbDictionary
0
ENDSEC
0
EOF
