ISO-10303-21;
HEADER;
/* Generated by software containing ST-Developer
 * from STEP Tools, Inc. (www.steptools.com) 
 */

FILE_DESCRIPTION(
/* description */ (''),
/* implementation_level */ '2;1');

FILE_NAME(
/* name */ 'buttondial1.step',
/* time_stamp */ '2026-05-18T21:18:26-07:00',
/* author */ (''),
/* organization */ (''),
/* preprocessor_version */ 'ST-DEVELOPER v20.1',
/* originating_system */ 'Autodesk Translation Framework v15.8.0.0',
/* authorisation */ '');

FILE_SCHEMA (('AUTOMOTIVE_DESIGN { 1 0 10303 214 3 1 1 }'));
ENDSEC;

DATA;
#10=MECHANICAL_DESIGN_GEOMETRIC_PRESENTATION_REPRESENTATION('',(#32,#33),
#942);
#11=SHAPE_REPRESENTATION_RELATIONSHIP('SRR','None',#949,#12);
#12=ADVANCED_BREP_SHAPE_REPRESENTATION('',(#13),#941);
#13=MANIFOLD_SOLID_BREP('buttondial1',#371);
#14=B_SPLINE_SURFACE_WITH_KNOTS('',3,3,((#569,#570,#571,#572,#573,#574,
#575,#576,#577,#578,#579,#580,#581,#582,#583,#584,#585,#586,#587,#588,#589,
#590,#591,#592,#593,#594,#595,#596,#597,#598),(#599,#600,#601,#602,#603,
#604,#605,#606,#607,#608,#609,#610,#611,#612,#613,#614,#615,#616,#617,#618,
#619,#620,#621,#622,#623,#624,#625,#626,#627,#628),(#629,#630,#631,#632,
#633,#634,#635,#636,#637,#638,#639,#640,#641,#642,#643,#644,#645,#646,#647,
#648,#649,#650,#651,#652,#653,#654,#655,#656,#657,#658),(#659,#660,#661,
#662,#663,#664,#665,#666,#667,#668,#669,#670,#671,#672,#673,#674,#675,#676,
#677,#678,#679,#680,#681,#682,#683,#684,#685,#686,#687,#688)),
 .UNSPECIFIED.,.F.,.T.,.F.,(4,4),(4,2,2,2,2,2,2,2,2,2,1,1,1,1,2,2,4),(0.,
1.),(0.256383526156821,0.320479227247788,0.384574928338755,0.448670990326197,
0.576863114301081,0.640959176288523,0.70505487737949,0.769150578470457,
0.833246279561424,0.897341980652392,0.961438042639834,0.993486073633555,
1.02553410462728,1.08963016661472,1.15372622860216,1.21782192969313,1.2819176307841),
 .UNSPECIFIED.);
#15=B_SPLINE_CURVE_WITH_KNOTS('',3,(#539,#540,#541,#542,#543,#544,#545,
#546,#547,#548,#549,#550,#551,#552,#553,#554,#555,#556,#557,#558,#559,#560,
#561,#562,#563,#564,#565,#566,#567,#568),.UNSPECIFIED.,.T.,.F.,(4,2,2,1,
1,1,1,2,2,2,2,2,2,2,2,2,4),(-1.2819176307841,-1.21782192969313,-1.15372622860216,
-1.08963016661472,-1.02553410462728,-0.993486073633555,-0.961438042639834,
-0.897341980652392,-0.833246279561424,-0.769150578470457,-0.70505487737949,
-0.640959176288523,-0.576863114301081,-0.448670990326197,-0.384574928338755,
-0.320479227247788,-0.256383526156821),.UNSPECIFIED.);
#16=B_SPLINE_CURVE_WITH_KNOTS('',3,(#692,#693,#694,#695,#696,#697,#698,
#699,#700,#701,#702,#703,#704,#705,#706,#707,#708,#709,#710,#711,#712,#713,
#714,#715),.UNSPECIFIED.,.F.,.F.,(4,2,2,2,2,2,2,2,2,2,1,1,4),(0.256383526156821,
0.320479227247788,0.384574928338755,0.448670990326197,0.576863114301081,
0.640959176288523,0.70505487737949,0.769150578470457,0.833246279561424,
0.897341980652392,0.961438042639834,0.993486073633555,1.02553410462728),
 .UNSPECIFIED.);
#17=B_SPLINE_CURVE_WITH_KNOTS('',3,(#716,#717,#718,#719,#720,#721,#722,
#723,#724),.UNSPECIFIED.,.F.,.F.,(4,1,2,2,4),(1.02553410462728,1.08963016661472,
1.15372622860216,1.21782192969313,1.2819176307841),.UNSPECIFIED.);
#18=B_SPLINE_CURVE_WITH_KNOTS('',3,(#729,#730,#731,#732,#733,#734,#735,
#736,#737,#738,#739,#740,#741,#742,#743,#744,#745,#746),.UNSPECIFIED.,.F.,
 .F.,(4,2,2,2,2,2,2,2,4),(0.,0.0641299189284905,0.128259837856981,0.192388869191331,
0.256517900525681,0.320646931860033,0.384775963194385,0.448905882122875,
0.513035801051365),.UNSPECIFIED.);
#19=B_SPLINE_CURVE_WITH_KNOTS('',3,(#747,#748,#749,#750,#751,#752,#753,
#754,#755,#756,#757,#758,#759,#760,#761,#762,#763,#764),.UNSPECIFIED.,.F.,
 .F.,(4,2,2,2,2,2,2,2,4),(0.513035801051365,0.577165719979856,0.641295638908346,
0.705424670242698,0.76955370157705,0.8336827329114,0.89781176424575,0.96194168317424,
1.02607160210273),.UNSPECIFIED.);
#20=B_SPLINE_CURVE_WITH_KNOTS('',3,(#769,#770,#771,#772,#773,#774,#775,
#776,#777,#778,#779,#780,#781,#782,#783,#784,#785,#786,#787,#788,#789,#790,
#791,#792,#793,#794,#795,#796,#797,#798,#799,#800,#801,#802),
 .UNSPECIFIED.,.T.,.F.,(4,2,2,2,2,2,2,2,2,2,2,2,2,2,2,2,4),(0.,0.0482475036779642,
0.0964950073559283,0.144693772697126,0.192892538038324,0.241091303379523,
0.289290068720722,0.337537572398686,0.385785076076651,0.434032579754615,
0.48228008343258,0.530478848773779,0.578677614114978,0.626876379456175,
0.675075144797373,0.723322648475337,0.771570152153302),.UNSPECIFIED.);
#21=B_SPLINE_CURVE_WITH_KNOTS('',3,(#805,#806,#807,#808,#809,#810,#811,
#812,#813,#814,#815,#816,#817,#818,#819,#820,#821,#822,#823,#824,#825,#826,
#827,#828,#829,#830,#831,#832,#833,#834,#835,#836,#837,#838),
 .UNSPECIFIED.,.T.,.F.,(4,2,2,2,2,2,2,2,2,2,2,2,2,2,2,2,4),(0.,0.0478454658414965,
0.095690931682993,0.143530247370806,0.191369563058619,0.239208878746433,
0.287048194434247,0.334893660275743,0.38273912611724,0.430584591958736,
0.478430057800233,0.526269373488047,0.57410868917586,0.621948004863673,
0.669787320551486,0.717632786392983,0.765478252234479),.UNSPECIFIED.);
#22=B_SPLINE_CURVE_WITH_KNOTS('',3,(#844,#845,#846,#847,#848,#849,#850,
#851,#852,#853,#854,#855,#856,#857,#858,#859,#860,#861,#862,#863,#864,#865,
#866,#867,#868,#869,#870,#871,#872,#873,#874,#875,#876,#877),
 .UNSPECIFIED.,.T.,.F.,(4,2,2,2,2,2,2,2,2,2,2,2,2,2,2,2,4),(0.,0.048250227200092,
0.096500454400184,0.144701526636761,0.192902598873338,0.241103671109915,
0.289304743346493,0.337554970546585,0.385805197746678,0.43405542494677,
0.482305652146862,0.53050672438344,0.578707796620018,0.626908868856594,
0.675109941093171,0.723360168293263,0.771610395493355),.UNSPECIFIED.);
#23=CYLINDRICAL_SURFACE('',#390,15.);
#24=CYLINDRICAL_SURFACE('',#392,1.7);
#25=CYLINDRICAL_SURFACE('',#393,1.2645);
#26=CYLINDRICAL_SURFACE('',#394,1.2645);
#27=CYLINDRICAL_SURFACE('',#396,3.15614242424305);
#28=CYLINDRICAL_SURFACE('',#402,3.16230000000001);
#29=CYLINDRICAL_SURFACE('',#411,3.19000000000001);
#30=CYLINDRICAL_SURFACE('',#413,5.1623);
#31=CYLINDRICAL_SURFACE('',#419,12.);
#32=STYLED_ITEM('',(#960),#351);
#33=STYLED_ITEM('',(#959),#13);
#34=FACE_BOUND('',#78,.T.);
#35=FACE_BOUND('',#80,.T.);
#36=FACE_BOUND('',#86,.T.);
#37=FACE_BOUND('',#88,.T.);
#38=FACE_BOUND('',#92,.T.);
#39=FACE_BOUND('',#96,.T.);
#40=FACE_BOUND('',#99,.T.);
#41=FACE_BOUND('',#101,.T.);
#42=FACE_BOUND('',#103,.T.);
#43=FACE_BOUND('',#105,.T.);
#44=PLANE('',#388);
#45=PLANE('',#399);
#46=PLANE('',#400);
#47=PLANE('',#401);
#48=PLANE('',#405);
#49=PLANE('',#406);
#50=PLANE('',#408);
#51=PLANE('',#416);
#52=PLANE('',#417);
#53=PLANE('',#422);
#54=FACE_OUTER_BOUND('',#76,.T.);
#55=FACE_OUTER_BOUND('',#77,.T.);
#56=FACE_OUTER_BOUND('',#79,.T.);
#57=FACE_OUTER_BOUND('',#81,.T.);
#58=FACE_OUTER_BOUND('',#82,.T.);
#59=FACE_OUTER_BOUND('',#83,.T.);
#60=FACE_OUTER_BOUND('',#84,.T.);
#61=FACE_OUTER_BOUND('',#85,.T.);
#62=FACE_OUTER_BOUND('',#87,.T.);
#63=FACE_OUTER_BOUND('',#89,.T.);
#64=FACE_OUTER_BOUND('',#90,.T.);
#65=FACE_OUTER_BOUND('',#91,.T.);
#66=FACE_OUTER_BOUND('',#93,.T.);
#67=FACE_OUTER_BOUND('',#94,.T.);
#68=FACE_OUTER_BOUND('',#95,.T.);
#69=FACE_OUTER_BOUND('',#97,.T.);
#70=FACE_OUTER_BOUND('',#98,.T.);
#71=FACE_OUTER_BOUND('',#100,.T.);
#72=FACE_OUTER_BOUND('',#102,.T.);
#73=FACE_OUTER_BOUND('',#104,.T.);
#74=FACE_OUTER_BOUND('',#106,.T.);
#75=FACE_OUTER_BOUND('',#107,.T.);
#76=EDGE_LOOP('',(#251,#252,#253,#254));
#77=EDGE_LOOP('',(#255));
#78=EDGE_LOOP('',(#256));
#79=EDGE_LOOP('',(#257,#258,#259,#260));
#80=EDGE_LOOP('',(#261));
#81=EDGE_LOOP('',(#262,#263,#264,#265,#266));
#82=EDGE_LOOP('',(#267,#268,#269,#270,#271,#272,#273,#274));
#83=EDGE_LOOP('',(#275,#276,#277,#278));
#84=EDGE_LOOP('',(#279,#280,#281,#282));
#85=EDGE_LOOP('',(#283,#284,#285,#286));
#86=EDGE_LOOP('',(#287));
#87=EDGE_LOOP('',(#288,#289,#290,#291));
#88=EDGE_LOOP('',(#292));
#89=EDGE_LOOP('',(#293,#294));
#90=EDGE_LOOP('',(#295,#296,#297,#298));
#91=EDGE_LOOP('',(#299,#300,#301,#302));
#92=EDGE_LOOP('',(#303));
#93=EDGE_LOOP('',(#304,#305,#306,#307));
#94=EDGE_LOOP('',(#308,#309,#310,#311));
#95=EDGE_LOOP('',(#312,#313,#314,#315,#316));
#96=EDGE_LOOP('',(#317,#318));
#97=EDGE_LOOP('',(#319,#320,#321,#322,#323,#324,#325,#326));
#98=EDGE_LOOP('',(#327,#328,#329,#330));
#99=EDGE_LOOP('',(#331));
#100=EDGE_LOOP('',(#332));
#101=EDGE_LOOP('',(#333));
#102=EDGE_LOOP('',(#334));
#103=EDGE_LOOP('',(#335));
#104=EDGE_LOOP('',(#336,#337,#338,#339));
#105=EDGE_LOOP('',(#340,#341));
#106=EDGE_LOOP('',(#342,#343,#344,#345));
#107=EDGE_LOOP('',(#346));
#108=LINE('',#529,#131);
#109=LINE('',#536,#132);
#110=LINE('',#690,#133);
#111=LINE('',#727,#134);
#112=LINE('',#766,#135);
#113=LINE('',#804,#136);
#114=LINE('',#843,#137);
#115=LINE('',#883,#138);
#116=LINE('',#886,#139);
#117=LINE('',#888,#140);
#118=LINE('',#889,#141);
#119=LINE('',#894,#142);
#120=LINE('',#896,#143);
#121=LINE('',#898,#144);
#122=LINE('',#899,#145);
#123=LINE('',#905,#146);
#124=LINE('',#908,#147);
#125=LINE('',#910,#148);
#126=LINE('',#911,#149);
#127=LINE('',#921,#150);
#128=LINE('',#926,#151);
#129=LINE('',#933,#152);
#130=LINE('',#937,#153);
#131=VECTOR('',#429,14.75);
#132=VECTOR('',#438,15.);
#133=VECTOR('',#441,10.);
#134=VECTOR('',#444,1.7);
#135=VECTOR('',#445,1.7);
#136=VECTOR('',#448,1.2645);
#137=VECTOR('',#453,1.2645);
#138=VECTOR('',#458,10.);
#139=VECTOR('',#461,10.);
#140=VECTOR('',#464,10.);
#141=VECTOR('',#465,10.);
#142=VECTOR('',#470,10.);
#143=VECTOR('',#471,10.);
#144=VECTOR('',#472,10.);
#145=VECTOR('',#473,10.);
#146=VECTOR('',#480,10.);
#147=VECTOR('',#483,10.);
#148=VECTOR('',#484,10.);
#149=VECTOR('',#485,10.);
#150=VECTOR('',#500,3.19000000000001);
#151=VECTOR('',#505,5.1623);
#152=VECTOR('',#516,12.);
#153=VECTOR('',#521,14.75);
#154=CIRCLE('',#386,14.5);
#155=CIRCLE('',#387,15.);
#156=CIRCLE('',#389,12.);
#157=CIRCLE('',#391,15.);
#158=CIRCLE('',#395,1.2645);
#159=CIRCLE('',#397,3.15614242424305);
#160=CIRCLE('',#398,3.15614242424305);
#161=CIRCLE('',#403,3.16230000000001);
#162=CIRCLE('',#404,3.16230000000001);
#163=CIRCLE('',#407,3.19000000000001);
#164=CIRCLE('',#409,3.19000000000001);
#165=CIRCLE('',#410,3.19000000000001);
#166=CIRCLE('',#412,3.19000000000001);
#167=CIRCLE('',#414,5.1623);
#168=CIRCLE('',#415,5.1623);
#169=CIRCLE('',#418,12.);
#170=CIRCLE('',#421,14.5);
#171=VERTEX_POINT('',#526);
#172=VERTEX_POINT('',#528);
#173=VERTEX_POINT('',#532);
#174=VERTEX_POINT('',#535);
#175=VERTEX_POINT('',#538);
#176=VERTEX_POINT('',#689);
#177=VERTEX_POINT('',#691);
#178=VERTEX_POINT('',#726);
#179=VERTEX_POINT('',#728);
#180=VERTEX_POINT('',#765);
#181=VERTEX_POINT('',#768);
#182=VERTEX_POINT('',#803);
#183=VERTEX_POINT('',#840);
#184=VERTEX_POINT('',#842);
#185=VERTEX_POINT('',#879);
#186=VERTEX_POINT('',#880);
#187=VERTEX_POINT('',#882);
#188=VERTEX_POINT('',#884);
#189=VERTEX_POINT('',#892);
#190=VERTEX_POINT('',#893);
#191=VERTEX_POINT('',#895);
#192=VERTEX_POINT('',#897);
#193=VERTEX_POINT('',#901);
#194=VERTEX_POINT('',#903);
#195=VERTEX_POINT('',#907);
#196=VERTEX_POINT('',#909);
#197=VERTEX_POINT('',#915);
#198=VERTEX_POINT('',#919);
#199=VERTEX_POINT('',#923);
#200=VERTEX_POINT('',#925);
#201=VERTEX_POINT('',#930);
#202=VERTEX_POINT('',#935);
#203=EDGE_CURVE('',#171,#171,#154,.T.);
#204=EDGE_CURVE('',#171,#172,#108,.T.);
#205=EDGE_CURVE('',#172,#172,#155,.T.);
#206=EDGE_CURVE('',#173,#173,#156,.T.);
#207=EDGE_CURVE('',#172,#174,#109,.T.);
#208=EDGE_CURVE('',#174,#174,#157,.T.);
#209=EDGE_CURVE('',#175,#175,#15,.T.);
#210=EDGE_CURVE('',#175,#176,#110,.T.);
#211=EDGE_CURVE('',#176,#177,#16,.T.);
#212=EDGE_CURVE('',#177,#176,#17,.T.);
#213=EDGE_CURVE('',#177,#178,#111,.T.);
#214=EDGE_CURVE('',#179,#178,#18,.T.);
#215=EDGE_CURVE('',#178,#179,#19,.T.);
#216=EDGE_CURVE('',#177,#180,#112,.T.);
#217=EDGE_CURVE('',#181,#181,#20,.T.);
#218=EDGE_CURVE('',#181,#182,#113,.T.);
#219=EDGE_CURVE('',#182,#182,#21,.T.);
#220=EDGE_CURVE('',#183,#183,#158,.T.);
#221=EDGE_CURVE('',#183,#184,#114,.T.);
#222=EDGE_CURVE('',#184,#184,#22,.T.);
#223=EDGE_CURVE('',#185,#186,#159,.T.);
#224=EDGE_CURVE('',#185,#187,#115,.T.);
#225=EDGE_CURVE('',#188,#187,#160,.T.);
#226=EDGE_CURVE('',#186,#188,#116,.T.);
#227=EDGE_CURVE('',#186,#185,#117,.T.);
#228=EDGE_CURVE('',#187,#188,#118,.T.);
#229=EDGE_CURVE('',#189,#190,#119,.T.);
#230=EDGE_CURVE('',#191,#189,#120,.T.);
#231=EDGE_CURVE('',#192,#191,#121,.T.);
#232=EDGE_CURVE('',#190,#192,#122,.T.);
#233=EDGE_CURVE('',#190,#193,#161,.T.);
#234=EDGE_CURVE('',#194,#192,#162,.T.);
#235=EDGE_CURVE('',#193,#194,#123,.T.);
#236=EDGE_CURVE('',#193,#195,#124,.T.);
#237=EDGE_CURVE('',#196,#194,#125,.T.);
#238=EDGE_CURVE('',#195,#196,#126,.T.);
#239=EDGE_CURVE('',#196,#191,#163,.T.);
#240=EDGE_CURVE('',#195,#197,#164,.T.);
#241=EDGE_CURVE('',#197,#189,#165,.T.);
#242=EDGE_CURVE('',#198,#198,#166,.T.);
#243=EDGE_CURVE('',#198,#197,#127,.T.);
#244=EDGE_CURVE('',#199,#199,#167,.T.);
#245=EDGE_CURVE('',#199,#200,#128,.T.);
#246=EDGE_CURVE('',#200,#200,#168,.T.);
#247=EDGE_CURVE('',#201,#201,#169,.T.);
#248=EDGE_CURVE('',#173,#201,#129,.T.);
#249=EDGE_CURVE('',#202,#202,#170,.T.);
#250=EDGE_CURVE('',#202,#174,#130,.T.);
#251=ORIENTED_EDGE('',*,*,#203,.T.);
#252=ORIENTED_EDGE('',*,*,#204,.T.);
#253=ORIENTED_EDGE('',*,*,#205,.T.);
#254=ORIENTED_EDGE('',*,*,#204,.F.);
#255=ORIENTED_EDGE('',*,*,#203,.F.);
#256=ORIENTED_EDGE('',*,*,#206,.T.);
#257=ORIENTED_EDGE('',*,*,#205,.F.);
#258=ORIENTED_EDGE('',*,*,#207,.T.);
#259=ORIENTED_EDGE('',*,*,#208,.F.);
#260=ORIENTED_EDGE('',*,*,#207,.F.);
#261=ORIENTED_EDGE('',*,*,#209,.F.);
#262=ORIENTED_EDGE('',*,*,#210,.T.);
#263=ORIENTED_EDGE('',*,*,#211,.T.);
#264=ORIENTED_EDGE('',*,*,#212,.T.);
#265=ORIENTED_EDGE('',*,*,#210,.F.);
#266=ORIENTED_EDGE('',*,*,#209,.T.);
#267=ORIENTED_EDGE('',*,*,#211,.F.);
#268=ORIENTED_EDGE('',*,*,#212,.F.);
#269=ORIENTED_EDGE('',*,*,#213,.T.);
#270=ORIENTED_EDGE('',*,*,#214,.F.);
#271=ORIENTED_EDGE('',*,*,#215,.F.);
#272=ORIENTED_EDGE('',*,*,#213,.F.);
#273=ORIENTED_EDGE('',*,*,#216,.T.);
#274=ORIENTED_EDGE('',*,*,#216,.F.);
#275=ORIENTED_EDGE('',*,*,#217,.F.);
#276=ORIENTED_EDGE('',*,*,#218,.T.);
#277=ORIENTED_EDGE('',*,*,#219,.F.);
#278=ORIENTED_EDGE('',*,*,#218,.F.);
#279=ORIENTED_EDGE('',*,*,#220,.F.);
#280=ORIENTED_EDGE('',*,*,#221,.T.);
#281=ORIENTED_EDGE('',*,*,#222,.F.);
#282=ORIENTED_EDGE('',*,*,#221,.F.);
#283=ORIENTED_EDGE('',*,*,#223,.F.);
#284=ORIENTED_EDGE('',*,*,#224,.T.);
#285=ORIENTED_EDGE('',*,*,#225,.F.);
#286=ORIENTED_EDGE('',*,*,#226,.F.);
#287=ORIENTED_EDGE('',*,*,#222,.T.);
#288=ORIENTED_EDGE('',*,*,#227,.F.);
#289=ORIENTED_EDGE('',*,*,#226,.T.);
#290=ORIENTED_EDGE('',*,*,#228,.F.);
#291=ORIENTED_EDGE('',*,*,#224,.F.);
#292=ORIENTED_EDGE('',*,*,#220,.T.);
#293=ORIENTED_EDGE('',*,*,#228,.T.);
#294=ORIENTED_EDGE('',*,*,#225,.T.);
#295=ORIENTED_EDGE('',*,*,#229,.F.);
#296=ORIENTED_EDGE('',*,*,#230,.F.);
#297=ORIENTED_EDGE('',*,*,#231,.F.);
#298=ORIENTED_EDGE('',*,*,#232,.F.);
#299=ORIENTED_EDGE('',*,*,#233,.F.);
#300=ORIENTED_EDGE('',*,*,#232,.T.);
#301=ORIENTED_EDGE('',*,*,#234,.F.);
#302=ORIENTED_EDGE('',*,*,#235,.F.);
#303=ORIENTED_EDGE('',*,*,#217,.T.);
#304=ORIENTED_EDGE('',*,*,#236,.F.);
#305=ORIENTED_EDGE('',*,*,#235,.T.);
#306=ORIENTED_EDGE('',*,*,#237,.F.);
#307=ORIENTED_EDGE('',*,*,#238,.F.);
#308=ORIENTED_EDGE('',*,*,#239,.F.);
#309=ORIENTED_EDGE('',*,*,#237,.T.);
#310=ORIENTED_EDGE('',*,*,#234,.T.);
#311=ORIENTED_EDGE('',*,*,#231,.T.);
#312=ORIENTED_EDGE('',*,*,#229,.T.);
#313=ORIENTED_EDGE('',*,*,#233,.T.);
#314=ORIENTED_EDGE('',*,*,#236,.T.);
#315=ORIENTED_EDGE('',*,*,#240,.T.);
#316=ORIENTED_EDGE('',*,*,#241,.T.);
#317=ORIENTED_EDGE('',*,*,#223,.T.);
#318=ORIENTED_EDGE('',*,*,#227,.T.);
#319=ORIENTED_EDGE('',*,*,#242,.F.);
#320=ORIENTED_EDGE('',*,*,#243,.T.);
#321=ORIENTED_EDGE('',*,*,#240,.F.);
#322=ORIENTED_EDGE('',*,*,#238,.T.);
#323=ORIENTED_EDGE('',*,*,#239,.T.);
#324=ORIENTED_EDGE('',*,*,#230,.T.);
#325=ORIENTED_EDGE('',*,*,#241,.F.);
#326=ORIENTED_EDGE('',*,*,#243,.F.);
#327=ORIENTED_EDGE('',*,*,#244,.F.);
#328=ORIENTED_EDGE('',*,*,#245,.T.);
#329=ORIENTED_EDGE('',*,*,#246,.F.);
#330=ORIENTED_EDGE('',*,*,#245,.F.);
#331=ORIENTED_EDGE('',*,*,#219,.T.);
#332=ORIENTED_EDGE('',*,*,#244,.T.);
#333=ORIENTED_EDGE('',*,*,#242,.T.);
#334=ORIENTED_EDGE('',*,*,#247,.F.);
#335=ORIENTED_EDGE('',*,*,#246,.T.);
#336=ORIENTED_EDGE('',*,*,#206,.F.);
#337=ORIENTED_EDGE('',*,*,#248,.T.);
#338=ORIENTED_EDGE('',*,*,#247,.T.);
#339=ORIENTED_EDGE('',*,*,#248,.F.);
#340=ORIENTED_EDGE('',*,*,#214,.T.);
#341=ORIENTED_EDGE('',*,*,#215,.T.);
#342=ORIENTED_EDGE('',*,*,#249,.T.);
#343=ORIENTED_EDGE('',*,*,#250,.T.);
#344=ORIENTED_EDGE('',*,*,#208,.T.);
#345=ORIENTED_EDGE('',*,*,#250,.F.);
#346=ORIENTED_EDGE('',*,*,#249,.F.);
#347=CONICAL_SURFACE('',#385,14.75,0.785398163397455);
#348=CONICAL_SURFACE('',#420,14.75,0.785398163397455);
#349=ADVANCED_FACE('',(#54),#347,.T.);
#350=ADVANCED_FACE('',(#55,#34),#44,.F.);
#351=ADVANCED_FACE('',(#56,#35),#23,.T.);
#352=ADVANCED_FACE('',(#57),#14,.T.);
#353=ADVANCED_FACE('',(#58),#24,.F.);
#354=ADVANCED_FACE('',(#59),#25,.F.);
#355=ADVANCED_FACE('',(#60),#26,.F.);
#356=ADVANCED_FACE('',(#61,#36),#27,.T.);
#357=ADVANCED_FACE('',(#62,#37),#45,.T.);
#358=ADVANCED_FACE('',(#63),#46,.T.);
#359=ADVANCED_FACE('',(#64),#47,.T.);
#360=ADVANCED_FACE('',(#65,#38),#28,.F.);
#361=ADVANCED_FACE('',(#66),#48,.T.);
#362=ADVANCED_FACE('',(#67),#49,.T.);
#363=ADVANCED_FACE('',(#68,#39),#50,.T.);
#364=ADVANCED_FACE('',(#69),#29,.F.);
#365=ADVANCED_FACE('',(#70,#40),#30,.T.);
#366=ADVANCED_FACE('',(#71,#41),#51,.T.);
#367=ADVANCED_FACE('',(#72,#42),#52,.T.);
#368=ADVANCED_FACE('',(#73,#43),#31,.F.);
#369=ADVANCED_FACE('',(#74),#348,.T.);
#370=ADVANCED_FACE('',(#75),#53,.T.);
#371=CLOSED_SHELL('',(#349,#350,#351,#352,#353,#354,#355,#356,#357,#358,
#359,#360,#361,#362,#363,#364,#365,#366,#367,#368,#369,#370));
#372=DERIVED_UNIT_ELEMENT(#374,1.);
#373=DERIVED_UNIT_ELEMENT(#944,-3.);
#374=(
MASS_UNIT()
NAMED_UNIT(*)
SI_UNIT(.KILO.,.GRAM.)
);
#375=DERIVED_UNIT((#372,#373));
#376=MEASURE_REPRESENTATION_ITEM('density measure',
POSITIVE_RATIO_MEASURE(7850.),#375);
#377=PROPERTY_DEFINITION_REPRESENTATION(#382,#379);
#378=PROPERTY_DEFINITION_REPRESENTATION(#383,#380);
#379=REPRESENTATION('material name',(#381),#941);
#380=REPRESENTATION('density',(#376),#941);
#381=DESCRIPTIVE_REPRESENTATION_ITEM('Steel','Steel');
#382=PROPERTY_DEFINITION('material property','material name',#951);
#383=PROPERTY_DEFINITION('material property','density of part',#951);
#384=AXIS2_PLACEMENT_3D('',#524,#423,#424);
#385=AXIS2_PLACEMENT_3D('',#525,#425,#426);
#386=AXIS2_PLACEMENT_3D('',#527,#427,#428);
#387=AXIS2_PLACEMENT_3D('',#530,#430,#431);
#388=AXIS2_PLACEMENT_3D('',#531,#432,#433);
#389=AXIS2_PLACEMENT_3D('',#533,#434,#435);
#390=AXIS2_PLACEMENT_3D('',#534,#436,#437);
#391=AXIS2_PLACEMENT_3D('',#537,#439,#440);
#392=AXIS2_PLACEMENT_3D('',#725,#442,#443);
#393=AXIS2_PLACEMENT_3D('',#767,#446,#447);
#394=AXIS2_PLACEMENT_3D('',#839,#449,#450);
#395=AXIS2_PLACEMENT_3D('',#841,#451,#452);
#396=AXIS2_PLACEMENT_3D('',#878,#454,#455);
#397=AXIS2_PLACEMENT_3D('',#881,#456,#457);
#398=AXIS2_PLACEMENT_3D('',#885,#459,#460);
#399=AXIS2_PLACEMENT_3D('',#887,#462,#463);
#400=AXIS2_PLACEMENT_3D('',#890,#466,#467);
#401=AXIS2_PLACEMENT_3D('',#891,#468,#469);
#402=AXIS2_PLACEMENT_3D('',#900,#474,#475);
#403=AXIS2_PLACEMENT_3D('',#902,#476,#477);
#404=AXIS2_PLACEMENT_3D('',#904,#478,#479);
#405=AXIS2_PLACEMENT_3D('',#906,#481,#482);
#406=AXIS2_PLACEMENT_3D('',#912,#486,#487);
#407=AXIS2_PLACEMENT_3D('',#913,#488,#489);
#408=AXIS2_PLACEMENT_3D('',#914,#490,#491);
#409=AXIS2_PLACEMENT_3D('',#916,#492,#493);
#410=AXIS2_PLACEMENT_3D('',#917,#494,#495);
#411=AXIS2_PLACEMENT_3D('',#918,#496,#497);
#412=AXIS2_PLACEMENT_3D('',#920,#498,#499);
#413=AXIS2_PLACEMENT_3D('',#922,#501,#502);
#414=AXIS2_PLACEMENT_3D('',#924,#503,#504);
#415=AXIS2_PLACEMENT_3D('',#927,#506,#507);
#416=AXIS2_PLACEMENT_3D('',#928,#508,#509);
#417=AXIS2_PLACEMENT_3D('',#929,#510,#511);
#418=AXIS2_PLACEMENT_3D('',#931,#512,#513);
#419=AXIS2_PLACEMENT_3D('',#932,#514,#515);
#420=AXIS2_PLACEMENT_3D('',#934,#517,#518);
#421=AXIS2_PLACEMENT_3D('',#936,#519,#520);
#422=AXIS2_PLACEMENT_3D('',#938,#522,#523);
#423=DIRECTION('axis',(0.,0.,1.));
#424=DIRECTION('refdir',(1.,0.,0.));
#425=DIRECTION('center_axis',(0.,-1.,0.));
#426=DIRECTION('ref_axis',(1.,0.,0.));
#427=DIRECTION('center_axis',(0.,-1.,-3.33066907387547E-16));
#428=DIRECTION('ref_axis',(1.,0.,0.));
#429=DIRECTION('',(-0.707106781186552,-0.707106781186543,8.65956056235499E-17));
#430=DIRECTION('center_axis',(0.,1.,3.33066907387547E-16));
#431=DIRECTION('ref_axis',(1.,0.,0.));
#432=DIRECTION('center_axis',(0.,-1.,-3.33066907387547E-16));
#433=DIRECTION('ref_axis',(1.,0.,0.));
#434=DIRECTION('center_axis',(0.,-1.,-3.33066907387547E-16));
#435=DIRECTION('ref_axis',(-1.,0.,0.));
#436=DIRECTION('center_axis',(0.,1.,2.3373116307898E-16));
#437=DIRECTION('ref_axis',(1.,0.,0.));
#438=DIRECTION('',(0.,-1.,-2.3373116307898E-16));
#439=DIRECTION('center_axis',(0.,-1.,-3.33066907387547E-16));
#440=DIRECTION('ref_axis',(1.,0.,0.));
#441=DIRECTION('',(1.25607396694702E-13,-0.707106781186549,-0.707106781186546));
#442=DIRECTION('center_axis',(0.,0.,-1.));
#443=DIRECTION('ref_axis',(1.,0.,0.));
#444=DIRECTION('',(0.,0.,-1.));
#445=DIRECTION('',(0.,0.,1.));
#446=DIRECTION('center_axis',(0.,0.,1.));
#447=DIRECTION('ref_axis',(-1.,0.,0.));
#448=DIRECTION('',(0.,0.,1.));
#449=DIRECTION('center_axis',(0.,0.,1.));
#450=DIRECTION('ref_axis',(-1.,0.,0.));
#451=DIRECTION('center_axis',(-1.79655501330614E-13,0.,1.));
#452=DIRECTION('ref_axis',(-1.,0.,0.));
#453=DIRECTION('',(0.,0.,1.));
#454=DIRECTION('center_axis',(0.,1.,0.));
#455=DIRECTION('ref_axis',(-0.649318009389208,0.,0.760517010120639));
#456=DIRECTION('center_axis',(0.,-1.,0.));
#457=DIRECTION('ref_axis',(-0.649318009389208,0.,0.760517010120639));
#458=DIRECTION('',(0.,1.,0.));
#459=DIRECTION('center_axis',(0.,1.,0.));
#460=DIRECTION('ref_axis',(-0.649318009389208,0.,0.760517010120639));
#461=DIRECTION('',(0.,1.,0.));
#462=DIRECTION('center_axis',(1.79655501330614E-13,0.,-1.));
#463=DIRECTION('ref_axis',(-1.,0.,-1.79655501330614E-13));
#464=DIRECTION('',(1.,0.,1.79655501330614E-13));
#465=DIRECTION('',(-1.,0.,-1.79655501330614E-13));
#466=DIRECTION('center_axis',(0.,1.,0.));
#467=DIRECTION('ref_axis',(-1.,0.,0.));
#468=DIRECTION('center_axis',(1.79655501330614E-13,0.,-1.));
#469=DIRECTION('ref_axis',(-1.,0.,-1.79655501330614E-13));
#470=DIRECTION('',(1.,0.,1.79655501330614E-13));
#471=DIRECTION('',(0.,-1.,0.));
#472=DIRECTION('',(-1.,0.,-1.79655501330614E-13));
#473=DIRECTION('',(0.,1.,0.));
#474=DIRECTION('center_axis',(0.,1.,0.));
#475=DIRECTION('ref_axis',(-1.,0.,0.));
#476=DIRECTION('center_axis',(0.,1.,0.));
#477=DIRECTION('ref_axis',(-1.,0.,0.));
#478=DIRECTION('center_axis',(0.,-1.,0.));
#479=DIRECTION('ref_axis',(-1.,0.,0.));
#480=DIRECTION('',(0.,1.,0.));
#481=DIRECTION('center_axis',(1.79655501330614E-13,0.,-1.));
#482=DIRECTION('ref_axis',(-1.,0.,-1.79655501330614E-13));
#483=DIRECTION('',(1.,0.,1.79655501330614E-13));
#484=DIRECTION('',(-1.,0.,-1.79655501330614E-13));
#485=DIRECTION('',(0.,1.,0.));
#486=DIRECTION('center_axis',(0.,1.,0.));
#487=DIRECTION('ref_axis',(-1.,0.,0.));
#488=DIRECTION('center_axis',(0.,-1.,0.));
#489=DIRECTION('ref_axis',(-1.,0.,0.));
#490=DIRECTION('center_axis',(0.,1.,0.));
#491=DIRECTION('ref_axis',(-1.,0.,0.));
#492=DIRECTION('center_axis',(0.,1.,0.));
#493=DIRECTION('ref_axis',(-1.,0.,0.));
#494=DIRECTION('center_axis',(0.,1.,0.));
#495=DIRECTION('ref_axis',(-1.,0.,0.));
#496=DIRECTION('center_axis',(0.,1.,0.));
#497=DIRECTION('ref_axis',(-1.,0.,0.));
#498=DIRECTION('center_axis',(0.,-1.,0.));
#499=DIRECTION('ref_axis',(-1.,0.,0.));
#500=DIRECTION('',(0.,-1.,0.));
#501=DIRECTION('center_axis',(0.,1.,0.));
#502=DIRECTION('ref_axis',(-1.,0.,0.));
#503=DIRECTION('center_axis',(0.,1.,0.));
#504=DIRECTION('ref_axis',(-1.,0.,0.));
#505=DIRECTION('',(0.,-1.,0.));
#506=DIRECTION('center_axis',(0.,-1.,0.));
#507=DIRECTION('ref_axis',(-1.,0.,0.));
#508=DIRECTION('center_axis',(0.,1.,0.));
#509=DIRECTION('ref_axis',(-1.,0.,0.));
#510=DIRECTION('center_axis',(0.,1.,0.));
#511=DIRECTION('ref_axis',(-1.,0.,0.));
#512=DIRECTION('center_axis',(0.,-1.,0.));
#513=DIRECTION('ref_axis',(-1.,0.,0.));
#514=DIRECTION('center_axis',(0.,-1.,0.));
#515=DIRECTION('ref_axis',(-1.,0.,0.));
#516=DIRECTION('',(0.,-1.,0.));
#517=DIRECTION('center_axis',(0.,1.,0.));
#518=DIRECTION('ref_axis',(1.,0.,0.));
#519=DIRECTION('center_axis',(0.,1.,3.33066907387547E-16));
#520=DIRECTION('ref_axis',(1.,0.,0.));
#521=DIRECTION('',(-0.707106781186552,0.707106781186543,-8.65956056235499E-17));
#522=DIRECTION('center_axis',(0.,-1.,-3.33066907387547E-16));
#523=DIRECTION('ref_axis',(1.,0.,0.));
#524=CARTESIAN_POINT('',(0.,0.,0.));
#525=CARTESIAN_POINT('Origin',(91.,6.34999999999999,33.48));
#526=CARTESIAN_POINT('',(76.5,6.59999999999999,33.48));
#527=CARTESIAN_POINT('Origin',(91.,6.59999999999999,33.48));
#528=CARTESIAN_POINT('',(76.,6.09999999999999,33.48));
#529=CARTESIAN_POINT('',(76.25,6.34999999999999,33.48));
#530=CARTESIAN_POINT('Origin',(91.,6.09999999999999,33.48));
#531=CARTESIAN_POINT('Origin',(91.,6.59999999999999,33.48));
#532=CARTESIAN_POINT('',(103.,6.59999999999999,33.48));
#533=CARTESIAN_POINT('Origin',(91.,6.59999999999999,33.48));
#534=CARTESIAN_POINT('Origin',(91.,-12.9,33.48));
#535=CARTESIAN_POINT('',(76.,-12.4,33.48));
#536=CARTESIAN_POINT('',(76.,-12.9,33.48));
#537=CARTESIAN_POINT('Origin',(91.,-12.4,33.48));
#538=CARTESIAN_POINT('',(90.9999999999974,-2.97500000000001,48.48));
#539=CARTESIAN_POINT('Ctrl Pts',(90.9999999999974,-2.97500000000001,48.48));
#540=CARTESIAN_POINT('Ctrl Pts',(90.7235087403893,-2.97500000000001,48.48));
#541=CARTESIAN_POINT('Ctrl Pts',(90.4288351210259,-3.02996899544511,48.4716146780743));
#542=CARTESIAN_POINT('Ctrl Pts',(89.8875319211762,-3.25417455613614,48.4411199598244));
#543=CARTESIAN_POINT('Ctrl Pts',(89.6408899007884,-3.42315088049858,48.4195859211877));
#544=CARTESIAN_POINT('Ctrl Pts',(89.2522322579999,-3.81236118692053,48.379106629208));
#545=CARTESIAN_POINT('Ctrl Pts',(88.9143145760377,-4.31314671549771,48.3353374845339));
#546=CARTESIAN_POINT('Ctrl Pts',(88.776706108666,-5.03858293352148,48.3139995286648));
#547=CARTESIAN_POINT('Ctrl Pts',(88.8310797971892,-5.59837903155727,48.3222726083085));
#548=CARTESIAN_POINT('Ctrl Pts',(88.9993760458338,-6.16851909054319,48.3464675575993));
#549=CARTESIAN_POINT('Ctrl Pts',(89.2515454140202,-6.53572215910628,48.3789106985869));
#550=CARTESIAN_POINT('Ctrl Pts',(89.6402641952359,-6.92649453645468,48.4194884970903));
#551=CARTESIAN_POINT('Ctrl Pts',(89.8869784218344,-7.09513264748439,48.4409988918308));
#552=CARTESIAN_POINT('Ctrl Pts',(90.4284370302508,-7.31948321558447,48.4715149081314));
#553=CARTESIAN_POINT('Ctrl Pts',(90.7230199374796,-7.37506428786835,48.4799985732318));
#554=CARTESIAN_POINT('Ctrl Pts',(91.2763009048724,-7.37462203885049,48.4799607597213));
#555=CARTESIAN_POINT('Ctrl Pts',(91.5709809676823,-7.31915042044176,48.4715628301942));
#556=CARTESIAN_POINT('Ctrl Pts',(92.1124439753418,-7.09432284621401,48.4410331122117));
#557=CARTESIAN_POINT('Ctrl Pts',(92.3589967388351,-6.92510976800268,48.4195160769764));
#558=CARTESIAN_POINT('Ctrl Pts',(92.7482250361131,-6.53455816612535,48.3789049532799));
#559=CARTESIAN_POINT('Ctrl Pts',(92.9170746719602,-6.28796503387203,48.3574156720778));
#560=CARTESIAN_POINT('Ctrl Pts',(93.2520789406716,-5.4713145126142,48.3110411546824));
#561=CARTESIAN_POINT('Ctrl Pts',(93.251928202589,-4.88006924151493,48.311162751941));
#562=CARTESIAN_POINT('Ctrl Pts',(92.9169206242582,-4.06089331278371,48.3576216914176));
#563=CARTESIAN_POINT('Ctrl Pts',(92.7482774324367,-3.81540156056425,48.3789912007957));
#564=CARTESIAN_POINT('Ctrl Pts',(92.3590553628805,-3.42451943034903,48.4196172287992));
#565=CARTESIAN_POINT('Ctrl Pts',(92.1125743983746,-3.25542951635712,48.4411028075178));
#566=CARTESIAN_POINT('Ctrl Pts',(91.5711930078898,-3.03061831709912,48.471613680149));
#567=CARTESIAN_POINT('Ctrl Pts',(91.2764912596051,-2.97500000000002,48.48));
#568=CARTESIAN_POINT('Ctrl Pts',(90.9999999999974,-2.97500000000001,48.48));
#569=CARTESIAN_POINT('Ctrl Pts',(90.9999999999974,-2.97500000000001,48.48));
#570=CARTESIAN_POINT('Ctrl Pts',(91.2764912596051,-2.97500000000002,48.48));
#571=CARTESIAN_POINT('Ctrl Pts',(91.5711930078898,-3.03061831709912,48.471613680149));
#572=CARTESIAN_POINT('Ctrl Pts',(92.1125743983746,-3.25542951635712,48.4411028075178));
#573=CARTESIAN_POINT('Ctrl Pts',(92.3590553628805,-3.42451943034903,48.4196172287992));
#574=CARTESIAN_POINT('Ctrl Pts',(92.7482774324367,-3.81540156056425,48.3789912007957));
#575=CARTESIAN_POINT('Ctrl Pts',(92.9169206242582,-4.06089331278371,48.3576216914176));
#576=CARTESIAN_POINT('Ctrl Pts',(93.251928202589,-4.88006924151493,48.311162751941));
#577=CARTESIAN_POINT('Ctrl Pts',(93.2520789406716,-5.4713145126142,48.3110411546824));
#578=CARTESIAN_POINT('Ctrl Pts',(92.9170746719602,-6.28796503387203,48.3574156720778));
#579=CARTESIAN_POINT('Ctrl Pts',(92.7482250361131,-6.53455816612535,48.3789049532799));
#580=CARTESIAN_POINT('Ctrl Pts',(92.3589967388351,-6.92510976800268,48.4195160769764));
#581=CARTESIAN_POINT('Ctrl Pts',(92.1124439753418,-7.09432284621401,48.4410331122117));
#582=CARTESIAN_POINT('Ctrl Pts',(91.5709809676823,-7.31915042044176,48.4715628301942));
#583=CARTESIAN_POINT('Ctrl Pts',(91.2763009048724,-7.37462203885049,48.4799607597213));
#584=CARTESIAN_POINT('Ctrl Pts',(90.7230199374796,-7.37506428786835,48.4799985732318));
#585=CARTESIAN_POINT('Ctrl Pts',(90.4284370302508,-7.31948321558447,48.4715149081314));
#586=CARTESIAN_POINT('Ctrl Pts',(89.8869784218344,-7.09513264748439,48.4409988918308));
#587=CARTESIAN_POINT('Ctrl Pts',(89.6402641952359,-6.92649453645468,48.4194884970903));
#588=CARTESIAN_POINT('Ctrl Pts',(89.2515454140202,-6.53572215910628,48.3789106985869));
#589=CARTESIAN_POINT('Ctrl Pts',(88.9993760458338,-6.16851909054319,48.3464675575993));
#590=CARTESIAN_POINT('Ctrl Pts',(88.8310797971892,-5.59837903155727,48.3222726083085));
#591=CARTESIAN_POINT('Ctrl Pts',(88.776706108666,-5.03858293352148,48.3139995286648));
#592=CARTESIAN_POINT('Ctrl Pts',(88.9143145760377,-4.31314671549771,48.3353374845339));
#593=CARTESIAN_POINT('Ctrl Pts',(89.2522322579999,-3.81236118692053,48.379106629208));
#594=CARTESIAN_POINT('Ctrl Pts',(89.6408899007884,-3.42315088049858,48.4195859211877));
#595=CARTESIAN_POINT('Ctrl Pts',(89.8875319211762,-3.25417455613614,48.4411199598244));
#596=CARTESIAN_POINT('Ctrl Pts',(90.4288351210259,-3.02996899544511,48.4716146780743));
#597=CARTESIAN_POINT('Ctrl Pts',(90.7235087403893,-2.97500000000001,48.48));
#598=CARTESIAN_POINT('Ctrl Pts',(90.9999999999974,-2.97500000000001,48.48));
#599=CARTESIAN_POINT('Ctrl Pts',(90.9999999999975,-3.14166666666668,48.3133333333333));
#600=CARTESIAN_POINT('Ctrl Pts',(91.2531237852689,-3.14177507221193,48.3133026053067));
#601=CARTESIAN_POINT('Ctrl Pts',(91.5230665774376,-3.19210414463043,48.3061261348637));
#602=CARTESIAN_POINT('Ctrl Pts',(92.0209419615907,-3.39690342438377,48.2798641761418));
#603=CARTESIAN_POINT('Ctrl Pts',(92.2488360064967,-3.55157232091936,48.2613000841956));
#604=CARTESIAN_POINT('Ctrl Pts',(92.6106397978488,-3.91113673395442,48.2261367057361));
#605=CARTESIAN_POINT('Ctrl Pts',(92.7683006582806,-4.13824605328405,48.2075471147582));
#606=CARTESIAN_POINT('Ctrl Pts',(93.0831641169138,-4.89894551888034,48.167125529713));
#607=CARTESIAN_POINT('Ctrl Pts',(93.0834579751809,-5.45247400120369,48.1670339009117));
#608=CARTESIAN_POINT('Ctrl Pts',(92.7684020119172,-6.21061284554698,48.2073316993893));
#609=CARTESIAN_POINT('Ctrl Pts',(92.6106111219392,-6.43882430204858,48.2260562907505));
#610=CARTESIAN_POINT('Ctrl Pts',(92.2487637429905,-6.79804888903874,48.2611930528814));
#611=CARTESIAN_POINT('Ctrl Pts',(92.0208156567506,-6.95287223399896,48.2798032394092));
#612=CARTESIAN_POINT('Ctrl Pts',(91.5228550967597,-7.15762500865521,48.3060622169856));
#613=CARTESIAN_POINT('Ctrl Pts',(91.2529253277438,-7.20793321115759,48.3132900153293));
#614=CARTESIAN_POINT('Ctrl Pts',(90.7464014931423,-7.20835715688532,48.3133173437225));
#615=CARTESIAN_POINT('Ctrl Pts',(90.4765483650986,-7.15796936110875,48.3060243216154));
#616=CARTESIAN_POINT('Ctrl Pts',(89.9786333356142,-6.95367955895313,48.2797586142717));
#617=CARTESIAN_POINT('Ctrl Pts',(89.7504351341634,-6.79941188547449,48.2611799218351));
#618=CARTESIAN_POINT('Ctrl Pts',(89.3892714751234,-6.44005790243726,48.2260424316416));
#619=CARTESIAN_POINT('Ctrl Pts',(89.1532245245043,-6.10040572939837,48.1978385220503));
#620=CARTESIAN_POINT('Ctrl Pts',(88.9948110074404,-5.56994762766016,48.1767356021186));
#621=CARTESIAN_POINT('Ctrl Pts',(88.9434856147701,-5.0477778309072,48.1695223139291));
#622=CARTESIAN_POINT('Ctrl Pts',(89.073504043848,-4.37132973479376,48.1881723773677));
#623=CARTESIAN_POINT('Ctrl Pts',(89.3899725368002,-3.90832865250374,48.2262169787577));
#624=CARTESIAN_POINT('Ctrl Pts',(89.7510461603039,-3.55006090020735,48.2612906472503));
#625=CARTESIAN_POINT('Ctrl Pts',(89.9791959777301,-3.39572007678637,48.2798703158153));
#626=CARTESIAN_POINT('Ctrl Pts',(90.4769401684626,-3.19140639345349,48.3061345840095));
#627=CARTESIAN_POINT('Ctrl Pts',(90.7468908929883,-3.14180831669754,48.3132974894987));
#628=CARTESIAN_POINT('Ctrl Pts',(90.9999999999975,-3.14166666666668,48.3133333333333));
#629=CARTESIAN_POINT('Ctrl Pts',(90.9999999999975,-3.30833333333335,48.1466666666667));
#630=CARTESIAN_POINT('Ctrl Pts',(91.2298980667379,-3.30822492778811,48.1466973946934));
#631=CARTESIAN_POINT('Ctrl Pts',(91.4749103798776,-3.35341929154459,48.140666966693));
#632=CARTESIAN_POINT('Ctrl Pts',(91.9293650964654,-3.53824860309105,48.1186177749062));
#633=CARTESIAN_POINT('Ctrl Pts',(92.1387067450264,-3.67821863205718,48.1030276391361));
#634=CARTESIAN_POINT('Ctrl Pts',(92.4729232945222,-4.00676781676776,48.0732466365127));
#635=CARTESIAN_POINT('Ctrl Pts',(92.6198244015402,-4.21501415012665,48.0575095628105));
#636=CARTESIAN_POINT('Ctrl Pts',(92.9141841329958,-4.91811507030835,48.0229812735393));
#637=CARTESIAN_POINT('Ctrl Pts',(92.9142518111087,-5.43292577521854,48.0228717127831));
#638=CARTESIAN_POINT('Ctrl Pts',(92.6201803452029,-6.13408226444154,48.0573808524739));
#639=CARTESIAN_POINT('Ctrl Pts',(92.4729462213676,-6.34317275942151,48.0731813174281));
#640=CARTESIAN_POINT('Ctrl Pts',(92.1387753920225,-6.67147974681004,48.1029640585693));
#641=CARTESIAN_POINT('Ctrl Pts',(91.9293329427778,-6.81151191971626,48.1185600079738));
#642=CARTESIAN_POINT('Ctrl Pts',(91.4748141482081,-6.99641616541481,48.140642938217));
#643=CARTESIAN_POINT('Ctrl Pts',(91.2297798650717,-7.0413716354783,48.1466416440707));
#644=CARTESIAN_POINT('Ctrl Pts',(90.7698093722961,-7.04172715764759,48.1466747365803));
#645=CARTESIAN_POINT('Ctrl Pts',(90.5248381247601,-6.99670596503434,48.1406067818134));
#646=CARTESIAN_POINT('Ctrl Pts',(90.0703097751173,-6.81221224927422,48.1185561318935));
#647=CARTESIAN_POINT('Ctrl Pts',(89.8608500608742,-6.67266770236301,48.1029401969266));
#648=CARTESIAN_POINT('Ctrl Pts',(89.5268509535503,-6.34404067926981,48.0732083180962));
#649=CARTESIAN_POINT('Ctrl Pts',(89.3069256536502,-6.03235066934,48.0492531462203));
#650=CARTESIAN_POINT('Ctrl Pts',(89.1584322923222,-5.54102963220874,48.0312677903829));
#651=CARTESIAN_POINT('Ctrl Pts',(89.110135048983,-5.05696298398834,48.025086145965));
#652=CARTESIAN_POINT('Ctrl Pts',(89.2326458566557,-4.42954381283413,48.0410121365693));
#653=CARTESIAN_POINT('Ctrl Pts',(89.5274446287495,-4.00414965214094,48.0733542518772));
#654=CARTESIAN_POINT('Ctrl Pts',(89.8613045370828,-3.67724888760241,48.1029857317712));
#655=CARTESIAN_POINT('Ctrl Pts',(90.0707009737001,-3.53717802297947,48.1186394144617));
#656=CARTESIAN_POINT('Ctrl Pts',(90.5251366093378,-3.352947192689,48.1406600330019));
#657=CARTESIAN_POINT('Ctrl Pts',(90.7700872549943,-3.30819168330247,48.1467025105013));
#658=CARTESIAN_POINT('Ctrl Pts',(90.9999999999975,-3.30833333333335,48.1466666666667));
#659=CARTESIAN_POINT('Ctrl Pts',(90.9999999999975,-3.47500000000001,47.98));
#660=CARTESIAN_POINT('Ctrl Pts',(91.2065305924018,-3.47500000000002,47.98));
#661=CARTESIAN_POINT('Ctrl Pts',(91.4267839494253,-3.5149051190759,47.9751794214076));
#662=CARTESIAN_POINT('Ctrl Pts',(91.8377326596815,-3.67972251111769,47.9573791435302));
#663=CARTESIAN_POINT('Ctrl Pts',(92.0284873886425,-3.80527152262751,47.9447104945326));
#664=CARTESIAN_POINT('Ctrl Pts',(92.3352856599342,-4.10250299015793,47.9203921414531));
#665=CARTESIAN_POINT('Ctrl Pts',(92.4712044355626,-4.29236689062698,47.907434986151));
#666=CARTESIAN_POINT('Ctrl Pts',(92.7454200473206,-4.93699134767376,47.8789440513113));
#667=CARTESIAN_POINT('Ctrl Pts',(92.745630845618,-5.41408526380803,47.8788644590125));
#668=CARTESIAN_POINT('Ctrl Pts',(92.47150768516,-6.05673007611649,47.9072968797854));
#669=CARTESIAN_POINT('Ctrl Pts',(92.3353323071937,-6.24743889534474,47.9203326548988));
#670=CARTESIAN_POINT('Ctrl Pts',(92.0285423961779,-6.5444188678461,47.9446410344743));
#671=CARTESIAN_POINT('Ctrl Pts',(91.8377046241865,-6.67006130750121,47.9573301351712));
#672=CARTESIAN_POINT('Ctrl Pts',(91.4266882772854,-6.83489075362827,47.9751423250085));
#673=CARTESIAN_POINT('Ctrl Pts',(91.2064042879431,-6.8746828077854,47.9799708996787));
#674=CARTESIAN_POINT('Ctrl Pts',(90.7931909279587,-6.87502002666456,47.979993507071));
#675=CARTESIAN_POINT('Ctrl Pts',(90.5729494596079,-6.83519211055862,47.9751161952974));
#676=CARTESIAN_POINT('Ctrl Pts',(90.1619646888971,-6.67075916074296,47.9573158543344));
#677=CARTESIAN_POINT('Ctrl Pts',(89.9710209998017,-6.54558505138283,47.9446316216714));
#678=CARTESIAN_POINT('Ctrl Pts',(89.6645770146534,-6.24837642260079,47.9203400511509));
#679=CARTESIAN_POINT('Ctrl Pts',(89.4607741323208,-5.96423730819518,47.9006241106713));
#680=CARTESIAN_POINT('Ctrl Pts',(89.3221635025734,-5.51259822831163,47.885730784193));
#681=CARTESIAN_POINT('Ctrl Pts',(89.2769145550871,-5.06615788137407,47.8806089312293));
#682=CARTESIAN_POINT('Ctrl Pts',(89.391835324466,-4.48772683213019,47.8938470294032));
#683=CARTESIAN_POINT('Ctrl Pts',(89.6651849075498,-4.10011711772414,47.9204646014268));
#684=CARTESIAN_POINT('Ctrl Pts',(89.9714607965984,-3.80415890731118,47.9446904578338));
#685=CARTESIAN_POINT('Ctrl Pts',(90.1623650302539,-3.6787235436297,47.9573897704526));
#686=CARTESIAN_POINT('Ctrl Pts',(90.5732416567745,-3.51438459069738,47.9751799389371));
#687=CARTESIAN_POINT('Ctrl Pts',(90.7934694075933,-3.475,47.98));
#688=CARTESIAN_POINT('Ctrl Pts',(90.9999999999975,-3.47500000000001,47.98));
#689=CARTESIAN_POINT('',(90.9999999999975,-3.47500000000001,47.98));
#690=CARTESIAN_POINT('',(90.9999999999974,-2.97500000000001,48.48));
#691=CARTESIAN_POINT('',(89.2997028001884,-5.17622796598178,47.8832188975794));
#692=CARTESIAN_POINT('Ctrl Pts',(90.9999999999975,-3.47500000000001,47.98));
#693=CARTESIAN_POINT('Ctrl Pts',(91.2065305924018,-3.47500000000002,47.98));
#694=CARTESIAN_POINT('Ctrl Pts',(91.4267839494253,-3.5149051190759,47.9751794214076));
#695=CARTESIAN_POINT('Ctrl Pts',(91.8377326596815,-3.67972251111769,47.9573791435302));
#696=CARTESIAN_POINT('Ctrl Pts',(92.0284873886425,-3.80527152262751,47.9447104945326));
#697=CARTESIAN_POINT('Ctrl Pts',(92.3352856599342,-4.10250299015793,47.9203921414531));
#698=CARTESIAN_POINT('Ctrl Pts',(92.4712044355626,-4.29236689062698,47.907434986151));
#699=CARTESIAN_POINT('Ctrl Pts',(92.7454200473206,-4.93699134767376,47.8789440513113));
#700=CARTESIAN_POINT('Ctrl Pts',(92.745630845618,-5.41408526380803,47.8788644590125));
#701=CARTESIAN_POINT('Ctrl Pts',(92.47150768516,-6.05673007611649,47.9072968797854));
#702=CARTESIAN_POINT('Ctrl Pts',(92.3353323071937,-6.24743889534474,47.9203326548988));
#703=CARTESIAN_POINT('Ctrl Pts',(92.0285423961779,-6.5444188678461,47.9446410344743));
#704=CARTESIAN_POINT('Ctrl Pts',(91.8377046241865,-6.67006130750121,47.9573301351712));
#705=CARTESIAN_POINT('Ctrl Pts',(91.4266882772854,-6.83489075362827,47.9751423250085));
#706=CARTESIAN_POINT('Ctrl Pts',(91.2064042879431,-6.8746828077854,47.9799708996787));
#707=CARTESIAN_POINT('Ctrl Pts',(90.7931909279587,-6.87502002666456,47.979993507071));
#708=CARTESIAN_POINT('Ctrl Pts',(90.5729494596079,-6.83519211055862,47.9751161952974));
#709=CARTESIAN_POINT('Ctrl Pts',(90.1619646888971,-6.67075916074296,47.9573158543344));
#710=CARTESIAN_POINT('Ctrl Pts',(89.9710209998017,-6.54558505138283,47.9446316216714));
#711=CARTESIAN_POINT('Ctrl Pts',(89.6645770146534,-6.24837642260079,47.9203400511509));
#712=CARTESIAN_POINT('Ctrl Pts',(89.4607741323208,-5.96423730819518,47.9006241106713));
#713=CARTESIAN_POINT('Ctrl Pts',(89.3221635025734,-5.51259822831163,47.885730784193));
#714=CARTESIAN_POINT('Ctrl Pts',(89.2995390288303,-5.28937805484285,47.8831698577111));
#715=CARTESIAN_POINT('Ctrl Pts',(89.2996589222078,-5.17640926040366,47.8831987554288));
#716=CARTESIAN_POINT('Ctrl Pts',(89.2996589222078,-5.17640926040366,47.8831987554288));
#717=CARTESIAN_POINT('Ctrl Pts',(89.2998987089629,-4.95047167152529,47.8832565508641));
#718=CARTESIAN_POINT('Ctrl Pts',(89.391835324466,-4.48772683213019,47.8938470294032));
#719=CARTESIAN_POINT('Ctrl Pts',(89.6651849075498,-4.10011711772414,47.9204646014268));
#720=CARTESIAN_POINT('Ctrl Pts',(89.9714607965984,-3.80415890731118,47.9446904578338));
#721=CARTESIAN_POINT('Ctrl Pts',(90.1623650302539,-3.6787235436297,47.9573897704526));
#722=CARTESIAN_POINT('Ctrl Pts',(90.5732416567745,-3.51438459069738,47.9751799389371));
#723=CARTESIAN_POINT('Ctrl Pts',(90.7934694075933,-3.475,47.98));
#724=CARTESIAN_POINT('Ctrl Pts',(90.9999999999975,-3.47500000000001,47.98));
#725=CARTESIAN_POINT('Origin',(90.9999999999974,-5.17500000000001,46.2479999999836));
#726=CARTESIAN_POINT('',(89.2999999999974,-5.17500000000001,45.3589730195834));
#727=CARTESIAN_POINT('',(89.2999999999974,-5.17500000000001,46.2479999999836));
#728=CARTESIAN_POINT('',(92.6999999999974,-5.17500000000001,45.3589730195842));
#729=CARTESIAN_POINT('Ctrl Pts',(92.6999999999974,-5.17500000000001,45.3589730195842));
#730=CARTESIAN_POINT('Ctrl Pts',(92.6999999999974,-4.96123360357171,45.3589730195842));
#731=CARTESIAN_POINT('Ctrl Pts',(92.6572197716281,-4.73341799576003,45.3653391376673));
#732=CARTESIAN_POINT('Ctrl Pts',(92.4836398149958,-4.31465994164161,45.3882524587503));
#733=CARTESIAN_POINT('Ctrl Pts',(92.3528556013767,-4.12369254534498,45.4044599447047));
#734=CARTESIAN_POINT('Ctrl Pts',(92.0513095414504,-3.82214648541874,45.4348195663279));
#735=CARTESIAN_POINT('Ctrl Pts',(91.8603412424861,-3.69136063523078,45.4509557913195));
#736=CARTESIAN_POINT('Ctrl Pts',(91.441580113571,-3.51777948527301,45.4737057081184));
#737=CARTESIAN_POINT('Ctrl Pts',(91.2137634377786,-3.47500000000001,45.4800000000001));
#738=CARTESIAN_POINT('Ctrl Pts',(90.7862365622162,-3.47500000000001,45.48));
#739=CARTESIAN_POINT('Ctrl Pts',(90.5584198864239,-3.51777948527302,45.4737057081182));
#740=CARTESIAN_POINT('Ctrl Pts',(90.1396587575087,-3.69136063523078,45.4509557913191));
#741=CARTESIAN_POINT('Ctrl Pts',(89.9486904585444,-3.82214648541875,45.4348195663274));
#742=CARTESIAN_POINT('Ctrl Pts',(89.6471443986182,-4.12369254534498,45.4044599447042));
#743=CARTESIAN_POINT('Ctrl Pts',(89.516360184999,-4.31465994164162,45.3882524587496));
#744=CARTESIAN_POINT('Ctrl Pts',(89.3427802283667,-4.73341799576003,45.3653391376666));
#745=CARTESIAN_POINT('Ctrl Pts',(89.2999999999974,-4.96123360357171,45.3589730195834));
#746=CARTESIAN_POINT('Ctrl Pts',(89.2999999999974,-5.17500000000001,45.3589730195834));
#747=CARTESIAN_POINT('Ctrl Pts',(89.2999999999974,-5.17500000000001,45.3589730195834));
#748=CARTESIAN_POINT('Ctrl Pts',(89.2999999999974,-5.38876639642831,45.3589730195834));
#749=CARTESIAN_POINT('Ctrl Pts',(89.3427802283667,-5.61658200424,45.3653391376666));
#750=CARTESIAN_POINT('Ctrl Pts',(89.516360184999,-6.03534005835841,45.3882524587496));
#751=CARTESIAN_POINT('Ctrl Pts',(89.6471443986182,-6.22630745465504,45.4044599447042));
#752=CARTESIAN_POINT('Ctrl Pts',(89.9486904585444,-6.52785351458128,45.4348195663274));
#753=CARTESIAN_POINT('Ctrl Pts',(90.1396587575087,-6.65863936476925,45.4509557913191));
#754=CARTESIAN_POINT('Ctrl Pts',(90.5584198864239,-6.83222051472701,45.4737057081182));
#755=CARTESIAN_POINT('Ctrl Pts',(90.7862365622162,-6.87500000000001,45.48));
#756=CARTESIAN_POINT('Ctrl Pts',(91.2137634377786,-6.87500000000001,45.4800000000001));
#757=CARTESIAN_POINT('Ctrl Pts',(91.441580113571,-6.83222051472702,45.4737057081184));
#758=CARTESIAN_POINT('Ctrl Pts',(91.8603412424861,-6.65863936476925,45.4509557913195));
#759=CARTESIAN_POINT('Ctrl Pts',(92.0513095414504,-6.52785351458129,45.4348195663279));
#760=CARTESIAN_POINT('Ctrl Pts',(92.3528556013767,-6.22630745465505,45.4044599447047));
#761=CARTESIAN_POINT('Ctrl Pts',(92.4836398149958,-6.03534005835841,45.3882524587503));
#762=CARTESIAN_POINT('Ctrl Pts',(92.6572197716281,-5.61658200424,45.3653391376673));
#763=CARTESIAN_POINT('Ctrl Pts',(92.6999999999974,-5.38876639642831,45.3589730195842));
#764=CARTESIAN_POINT('Ctrl Pts',(92.6999999999974,-5.17500000000001,45.3589730195842));
#765=CARTESIAN_POINT('',(89.2999999999974,-5.17500000000001,47.98));
#766=CARTESIAN_POINT('',(89.2999999999974,-5.17500000000001,46.2479999999836));
#767=CARTESIAN_POINT('Origin',(90.9999999999997,-5.17500000000001,37.7672999999838));
#768=CARTESIAN_POINT('',(92.2644999999997,-5.17500000000001,36.3784790908338));
#769=CARTESIAN_POINT('Ctrl Pts',(92.2644999999997,-5.17500000000001,36.3784790908338));
#770=CARTESIAN_POINT('Ctrl Pts',(92.2644999999997,-5.01417498774013,36.3784790908338));
#771=CARTESIAN_POINT('Ctrl Pts',(92.2319891369017,-4.8440567043495,36.3932803186411));
#772=CARTESIAN_POINT('Ctrl Pts',(92.1024336604729,-4.53315801456518,36.4447325567364));
#773=CARTESIAN_POINT('Ctrl Pts',(92.0054642722995,-4.39219122267905,36.4804422514584));
#774=CARTESIAN_POINT('Ctrl Pts',(91.7829212376312,-4.16964818801078,36.5460429287441));
#775=CARTESIAN_POINT('Ctrl Pts',(91.6419118739719,-4.07259350857467,36.5804623634098));
#776=CARTESIAN_POINT('Ctrl Pts',(91.3308471427925,-3.94297274952941,36.6288820066264));
#777=CARTESIAN_POINT('Ctrl Pts',(91.160662551137,-3.91050000000001,36.6423));
#778=CARTESIAN_POINT('Ctrl Pts',(90.8393374488624,-3.91050000000001,36.6423));
#779=CARTESIAN_POINT('Ctrl Pts',(90.6691528572068,-3.94297274952942,36.6288820066264));
#780=CARTESIAN_POINT('Ctrl Pts',(90.3580881260274,-4.07259350857469,36.5804623634097));
#781=CARTESIAN_POINT('Ctrl Pts',(90.2170787623681,-4.16964818801078,36.546042928744));
#782=CARTESIAN_POINT('Ctrl Pts',(89.9945357276999,-4.39219122267905,36.4804422514582));
#783=CARTESIAN_POINT('Ctrl Pts',(89.8975663395265,-4.53315801456518,36.4447325567362));
#784=CARTESIAN_POINT('Ctrl Pts',(89.7680108630977,-4.8440567043495,36.3932803186409));
#785=CARTESIAN_POINT('Ctrl Pts',(89.7354999999997,-5.01417498774013,36.3784790908336));
#786=CARTESIAN_POINT('Ctrl Pts',(89.7354999999997,-5.33582501225989,36.3784790908336));
#787=CARTESIAN_POINT('Ctrl Pts',(89.7680108630977,-5.50594329565054,36.3932803186409));
#788=CARTESIAN_POINT('Ctrl Pts',(89.8975663395265,-5.81684198543486,36.4447325567362));
#789=CARTESIAN_POINT('Ctrl Pts',(89.9945357276999,-5.95780877732097,36.4804422514582));
#790=CARTESIAN_POINT('Ctrl Pts',(90.2170787623681,-6.18035181198924,36.546042928744));
#791=CARTESIAN_POINT('Ctrl Pts',(90.3580881260274,-6.27740649142533,36.5804623634097));
#792=CARTESIAN_POINT('Ctrl Pts',(90.6691528572068,-6.4070272504706,36.6288820066264));
#793=CARTESIAN_POINT('Ctrl Pts',(90.8393374488624,-6.43950000000001,36.6423));
#794=CARTESIAN_POINT('Ctrl Pts',(91.160662551137,-6.43950000000001,36.6423));
#795=CARTESIAN_POINT('Ctrl Pts',(91.3308471427925,-6.40702725047061,36.6288820066264));
#796=CARTESIAN_POINT('Ctrl Pts',(91.6419118739719,-6.27740649142535,36.5804623634098));
#797=CARTESIAN_POINT('Ctrl Pts',(91.7829212376312,-6.18035181198925,36.5460429287441));
#798=CARTESIAN_POINT('Ctrl Pts',(92.0054642722995,-5.95780877732098,36.4804422514584));
#799=CARTESIAN_POINT('Ctrl Pts',(92.1024336604729,-5.81684198543484,36.4447325567364));
#800=CARTESIAN_POINT('Ctrl Pts',(92.2319891369017,-5.50594329565052,36.3932803186411));
#801=CARTESIAN_POINT('Ctrl Pts',(92.2644999999997,-5.33582501225989,36.3784790908338));
#802=CARTESIAN_POINT('Ctrl Pts',(92.2644999999997,-5.17500000000001,36.3784790908338));
#803=CARTESIAN_POINT('',(92.2644999999997,-5.17500000000001,38.4850355683053));
#804=CARTESIAN_POINT('',(92.2644999999997,-5.17500000000001,37.7672999999838));
#805=CARTESIAN_POINT('Ctrl Pts',(92.2644999999997,-5.17500000000001,38.4850355683053));
#806=CARTESIAN_POINT('Ctrl Pts',(92.2644999999997,-5.33448488613833,38.4850355683053));
#807=CARTESIAN_POINT('Ctrl Pts',(92.2324935683508,-5.50413367425879,38.4934521177804));
#808=CARTESIAN_POINT('Ctrl Pts',(92.1032506835578,-5.81547438556378,38.5234690785737));
#809=CARTESIAN_POINT('Ctrl Pts',(92.0060473987355,-5.95722565088493,38.5445948808075));
#810=CARTESIAN_POINT('Ctrl Pts',(91.7822400361364,-6.18103301348408,38.5839543377631));
#811=CARTESIAN_POINT('Ctrl Pts',(91.6404827665206,-6.27824752070011,38.6048000291374));
#812=CARTESIAN_POINT('Ctrl Pts',(91.3291208118956,-6.40749859151361,38.6341704475554));
#813=CARTESIAN_POINT('Ctrl Pts',(91.1594643856257,-6.43950000000001,38.6423));
#814=CARTESIAN_POINT('Ctrl Pts',(90.8405356143736,-6.43950000000001,38.6423));
#815=CARTESIAN_POINT('Ctrl Pts',(90.6708791881038,-6.40749859151361,38.6341704475554));
#816=CARTESIAN_POINT('Ctrl Pts',(90.3595172334788,-6.27824752070011,38.6048000291374));
#817=CARTESIAN_POINT('Ctrl Pts',(90.217759963863,-6.18103301348408,38.583954337763));
#818=CARTESIAN_POINT('Ctrl Pts',(89.9939526012638,-5.95722565088493,38.5445948808074));
#819=CARTESIAN_POINT('Ctrl Pts',(89.8967493164415,-5.81547438556377,38.5234690785736));
#820=CARTESIAN_POINT('Ctrl Pts',(89.7675064316485,-5.50413367425879,38.4934521177803));
#821=CARTESIAN_POINT('Ctrl Pts',(89.7354999999997,-5.33448488613833,38.4850355683051));
#822=CARTESIAN_POINT('Ctrl Pts',(89.7354999999997,-5.01551511386169,38.4850355683051));
#823=CARTESIAN_POINT('Ctrl Pts',(89.7675064316485,-4.84586632574123,38.4934521177803));
#824=CARTESIAN_POINT('Ctrl Pts',(89.8967493164415,-4.53452561443625,38.5234690785736));
#825=CARTESIAN_POINT('Ctrl Pts',(89.9939526012638,-4.3927743491151,38.5445948808074));
#826=CARTESIAN_POINT('Ctrl Pts',(90.217759963863,-4.16896698651595,38.583954337763));
#827=CARTESIAN_POINT('Ctrl Pts',(90.3595172334788,-4.07175247929991,38.6048000291374));
#828=CARTESIAN_POINT('Ctrl Pts',(90.6708791881038,-3.94250140848642,38.6341704475554));
#829=CARTESIAN_POINT('Ctrl Pts',(90.8405356143736,-3.91050000000001,38.6423));
#830=CARTESIAN_POINT('Ctrl Pts',(91.1594643856257,-3.91050000000001,38.6423));
#831=CARTESIAN_POINT('Ctrl Pts',(91.3291208118956,-3.94250140848642,38.6341704475554));
#832=CARTESIAN_POINT('Ctrl Pts',(91.6404827665206,-4.07175247929991,38.6048000291374));
#833=CARTESIAN_POINT('Ctrl Pts',(91.7822400361364,-4.16896698651594,38.5839543377631));
#834=CARTESIAN_POINT('Ctrl Pts',(92.0060473987355,-4.3927743491151,38.5445948808075));
#835=CARTESIAN_POINT('Ctrl Pts',(92.1032506835578,-4.53452561443625,38.5234690785737));
#836=CARTESIAN_POINT('Ctrl Pts',(92.2324935683508,-4.84586632574123,38.4934521177804));
#837=CARTESIAN_POINT('Ctrl Pts',(92.2644999999997,-5.01551511386169,38.4850355683053));
#838=CARTESIAN_POINT('Ctrl Pts',(92.2644999999997,-5.17500000000001,38.4850355683053));
#839=CARTESIAN_POINT('Origin',(90.9999999999997,-5.17500000000001,37.7672999999838));
#840=CARTESIAN_POINT('',(92.2644999999997,-5.17500000000001,35.8803000000005));
#841=CARTESIAN_POINT('Origin',(90.9999999999997,-5.17500000000001,35.8803000000005));
#842=CARTESIAN_POINT('',(92.2644999999997,-5.17500000000001,36.3717598019385));
#843=CARTESIAN_POINT('',(92.2644999999997,-5.17500000000001,37.7672999999838));
#844=CARTESIAN_POINT('Ctrl Pts',(92.2644999999997,-5.17500000000001,36.3717598019385));
#845=CARTESIAN_POINT('Ctrl Pts',(92.2644999999997,-5.33583409066698,36.3717598019385));
#846=CARTESIAN_POINT('Ctrl Pts',(92.2319857879994,-5.50595518825556,36.3865972044361));
#847=CARTESIAN_POINT('Ctrl Pts',(92.1024284388303,-5.81685065957519,36.4381662371707));
#848=CARTESIAN_POINT('Ctrl Pts',(92.0054607149447,-5.95781233467581,36.4739536205862));
#849=CARTESIAN_POINT('Ctrl Pts',(91.782925746297,-6.1803473033235,36.5396910574288));
#850=CARTESIAN_POINT('Ctrl Pts',(91.6419211692547,-6.2774010223571,36.5741801379986));
#851=CARTESIAN_POINT('Ctrl Pts',(91.3308582535614,-6.4070242162283,36.622697302113));
#852=CARTESIAN_POINT('Ctrl Pts',(91.1606702407883,-6.43950000000001,36.6361424242431));
#853=CARTESIAN_POINT('Ctrl Pts',(90.8393297592111,-6.43950000000001,36.636142424243));
#854=CARTESIAN_POINT('Ctrl Pts',(90.669141746438,-6.40702421622829,36.6226973021129));
#855=CARTESIAN_POINT('Ctrl Pts',(90.3580788307447,-6.2774010223571,36.5741801379985));
#856=CARTESIAN_POINT('Ctrl Pts',(90.2170742537024,-6.18034730332349,36.5396910574287));
#857=CARTESIAN_POINT('Ctrl Pts',(89.9945392850547,-5.9578123346758,36.473953620586));
#858=CARTESIAN_POINT('Ctrl Pts',(89.8975715611691,-5.81685065957519,36.4381662371705));
#859=CARTESIAN_POINT('Ctrl Pts',(89.768014212,-5.50595518825556,36.3865972044359));
#860=CARTESIAN_POINT('Ctrl Pts',(89.7354999999997,-5.33583409066698,36.3717598019383));
#861=CARTESIAN_POINT('Ctrl Pts',(89.7354999999997,-5.01416590933304,36.3717598019383));
#862=CARTESIAN_POINT('Ctrl Pts',(89.768014212,-4.84404481174446,36.3865972044359));
#863=CARTESIAN_POINT('Ctrl Pts',(89.8975715611691,-4.53314934042484,36.4381662371705));
#864=CARTESIAN_POINT('Ctrl Pts',(89.9945392850547,-4.39218766532422,36.473953620586));
#865=CARTESIAN_POINT('Ctrl Pts',(90.2170742537024,-4.16965269667653,36.5396910574287));
#866=CARTESIAN_POINT('Ctrl Pts',(90.3580788307447,-4.07259897764292,36.5741801379985));
#867=CARTESIAN_POINT('Ctrl Pts',(90.669141746438,-3.94297578377173,36.6226973021129));
#868=CARTESIAN_POINT('Ctrl Pts',(90.8393297592111,-3.91050000000001,36.636142424243));
#869=CARTESIAN_POINT('Ctrl Pts',(91.1606702407883,-3.91050000000001,36.6361424242431));
#870=CARTESIAN_POINT('Ctrl Pts',(91.3308582535614,-3.94297578377172,36.622697302113));
#871=CARTESIAN_POINT('Ctrl Pts',(91.6419211692547,-4.07259897764292,36.5741801379986));
#872=CARTESIAN_POINT('Ctrl Pts',(91.782925746297,-4.16965269667652,36.5396910574288));
#873=CARTESIAN_POINT('Ctrl Pts',(92.0054607149447,-4.39218766532421,36.4739536205862));
#874=CARTESIAN_POINT('Ctrl Pts',(92.1024284388303,-4.53314934042483,36.4381662371707));
#875=CARTESIAN_POINT('Ctrl Pts',(92.2319857879994,-4.84404481174446,36.3865972044361));
#876=CARTESIAN_POINT('Ctrl Pts',(92.2644999999997,-5.01416590933304,36.3717598019385));
#877=CARTESIAN_POINT('Ctrl Pts',(92.2644999999997,-5.17500000000001,36.3717598019385));
#878=CARTESIAN_POINT('Origin',(90.9999999999999,-8.35000000000001,33.48));
#879=CARTESIAN_POINT('',(93.0493401162574,-8.35000000000001,35.8803000000005));
#880=CARTESIAN_POINT('',(88.950659883742,-8.35000000000001,35.8802999999998));
#881=CARTESIAN_POINT('Origin',(90.9999999999999,-8.35000000000001,33.48));
#882=CARTESIAN_POINT('',(93.0493401162574,-2.00000000000001,35.8803000000005));
#883=CARTESIAN_POINT('',(93.0493401162574,-8.35000000000001,35.8803000000005));
#884=CARTESIAN_POINT('',(88.950659883742,-2.00000000000001,35.8802999999998));
#885=CARTESIAN_POINT('Origin',(90.9999999999999,-2.00000000000001,33.48));
#886=CARTESIAN_POINT('',(88.950659883742,-8.35000000000001,35.8802999999998));
#887=CARTESIAN_POINT('Origin',(93.0493401162574,-8.35000000000001,35.8803000000005));
#888=CARTESIAN_POINT('',(92.0246700581285,-8.35000000000001,35.8803000000004));
#889=CARTESIAN_POINT('',(88.8988907905582,-2.00000000000001,35.8802999999998));
#890=CARTESIAN_POINT('Origin',(90.9999999999997,-2.00000000000001,36.2582212121214));
#891=CARTESIAN_POINT('Origin',(88.9411893724771,-8.35000000000001,35.8802999999998));
#892=CARTESIAN_POINT('',(88.8988907905582,-8.35000000000001,35.8802999999998));
#893=CARTESIAN_POINT('',(88.9411893724771,-8.35000000000001,35.8802999999998));
#894=CARTESIAN_POINT('',(89.9705946862383,-8.35000000000001,35.8803));
#895=CARTESIAN_POINT('',(88.8988907905582,-2.00000000000001,35.8802999999998));
#896=CARTESIAN_POINT('',(88.8988907905582,-8.35000000000001,35.8802999999998));
#897=CARTESIAN_POINT('',(88.9411893724771,-2.00000000000001,35.8802999999998));
#898=CARTESIAN_POINT('',(88.8988907905582,-2.00000000000001,35.8802999999998));
#899=CARTESIAN_POINT('',(88.9411893724771,-8.35000000000001,35.8802999999998));
#900=CARTESIAN_POINT('Origin',(90.9999999999999,-8.35000000000001,33.48));
#901=CARTESIAN_POINT('',(93.0588106275219,-8.35000000000001,35.8803000000005));
#902=CARTESIAN_POINT('Origin',(90.9999999999999,-8.35000000000001,33.48));
#903=CARTESIAN_POINT('',(93.0588106275219,-2.00000000000001,35.8803000000005));
#904=CARTESIAN_POINT('Origin',(90.9999999999999,-2.00000000000001,33.48));
#905=CARTESIAN_POINT('',(93.0588106275219,-8.35000000000001,35.8803000000005));
#906=CARTESIAN_POINT('Origin',(93.1011092094408,-8.35000000000001,35.8803000000006));
#907=CARTESIAN_POINT('',(93.1011092094408,-8.35000000000001,35.8803000000006));
#908=CARTESIAN_POINT('',(92.0505546047202,-8.35000000000001,35.8803000000004));
#909=CARTESIAN_POINT('',(93.1011092094408,-2.00000000000001,35.8803000000006));
#910=CARTESIAN_POINT('',(88.8988907905582,-2.00000000000001,35.8802999999998));
#911=CARTESIAN_POINT('',(93.1011092094409,-8.35000000000001,35.8803000000006));
#912=CARTESIAN_POINT('Origin',(90.9999999999995,-2.00000000000001,36.2751499999999));
#913=CARTESIAN_POINT('Origin',(90.9999999999999,-2.00000000000001,33.48));
#914=CARTESIAN_POINT('Origin',(91.,-8.35000000000001,33.48));
#915=CARTESIAN_POINT('',(94.19,-8.35000000000001,33.48));
#916=CARTESIAN_POINT('Origin',(90.9999999999999,-8.35000000000001,33.48));
#917=CARTESIAN_POINT('Origin',(90.9999999999999,-8.35000000000001,33.48));
#918=CARTESIAN_POINT('Origin',(90.9999999999999,-8.35000000000001,33.48));
#919=CARTESIAN_POINT('',(94.19,0.681999999999989,33.48));
#920=CARTESIAN_POINT('Origin',(90.9999999999999,0.681999999999989,33.48));
#921=CARTESIAN_POINT('',(94.19,-8.35000000000001,33.48));
#922=CARTESIAN_POINT('Origin',(90.9999999999999,-8.35000000000001,33.48));
#923=CARTESIAN_POINT('',(96.1622999999999,0.681999999999989,33.48));
#924=CARTESIAN_POINT('Origin',(90.9999999999999,0.681999999999989,33.48));
#925=CARTESIAN_POINT('',(96.1622999999999,-8.35000000000001,33.48));
#926=CARTESIAN_POINT('',(96.1622999999999,-8.35000000000001,33.48));
#927=CARTESIAN_POINT('Origin',(90.9999999999999,-8.35000000000001,33.48));
#928=CARTESIAN_POINT('Origin',(90.9999999999999,0.681999999999989,33.48));
#929=CARTESIAN_POINT('Origin',(91.,-8.35000000000001,33.48));
#930=CARTESIAN_POINT('',(103.,-8.35000000000001,33.48));
#931=CARTESIAN_POINT('Origin',(91.,-8.35000000000001,33.48));
#932=CARTESIAN_POINT('Origin',(91.,6.09999999999999,33.48));
#933=CARTESIAN_POINT('',(103.,6.09999999999999,33.48));
#934=CARTESIAN_POINT('Origin',(91.,-12.65,33.48));
#935=CARTESIAN_POINT('',(76.5,-12.9,33.48));
#936=CARTESIAN_POINT('Origin',(91.,-12.9,33.48));
#937=CARTESIAN_POINT('',(76.25,-12.65,33.48));
#938=CARTESIAN_POINT('Origin',(91.,-12.9,33.48));
#939=UNCERTAINTY_MEASURE_WITH_UNIT(LENGTH_MEASURE(0.01),#943,
'DISTANCE_ACCURACY_VALUE',
'Maximum model space distance between geometric entities at asserted c
onnectivities');
#940=UNCERTAINTY_MEASURE_WITH_UNIT(LENGTH_MEASURE(0.01),#943,
'DISTANCE_ACCURACY_VALUE',
'Maximum model space distance between geometric entities at asserted c
onnectivities');
#941=(
GEOMETRIC_REPRESENTATION_CONTEXT(3)
GLOBAL_UNCERTAINTY_ASSIGNED_CONTEXT((#939))
GLOBAL_UNIT_ASSIGNED_CONTEXT((#943,#945,#946))
REPRESENTATION_CONTEXT('','3D')
);
#942=(
GEOMETRIC_REPRESENTATION_CONTEXT(3)
GLOBAL_UNCERTAINTY_ASSIGNED_CONTEXT((#940))
GLOBAL_UNIT_ASSIGNED_CONTEXT((#943,#945,#946))
REPRESENTATION_CONTEXT('','3D')
);
#943=(
LENGTH_UNIT()
NAMED_UNIT(*)
SI_UNIT(.MILLI.,.METRE.)
);
#944=(
LENGTH_UNIT()
NAMED_UNIT(*)
SI_UNIT($,.METRE.)
);
#945=(
NAMED_UNIT(*)
PLANE_ANGLE_UNIT()
SI_UNIT($,.RADIAN.)
);
#946=(
NAMED_UNIT(*)
SI_UNIT($,.STERADIAN.)
SOLID_ANGLE_UNIT()
);
#947=SHAPE_DEFINITION_REPRESENTATION(#948,#949);
#948=PRODUCT_DEFINITION_SHAPE('',$,#951);
#949=SHAPE_REPRESENTATION('',(#384),#941);
#950=PRODUCT_DEFINITION_CONTEXT('part definition',#955,'design');
#951=PRODUCT_DEFINITION('2026-05-18-21-18-26-353','buttondial1',#952,#950);
#952=PRODUCT_DEFINITION_FORMATION('',$,#957);
#953=PRODUCT_RELATED_PRODUCT_CATEGORY('buttondial1','buttondial1',(#957));
#954=APPLICATION_PROTOCOL_DEFINITION('international standard',
'automotive_design',2009,#955);
#955=APPLICATION_CONTEXT(
'Core Data for Automotive Mechanical Design Process');
#956=PRODUCT_CONTEXT('part definition',#955,'mechanical');
#957=PRODUCT('2026-05-18-21-18-26-353','buttondial1',$,(#956));
#958=PRESENTATION_STYLE_ASSIGNMENT((#961));
#959=PRESENTATION_STYLE_ASSIGNMENT((#962));
#960=PRESENTATION_STYLE_ASSIGNMENT((#963));
#961=SURFACE_STYLE_USAGE(.BOTH.,#964);
#962=SURFACE_STYLE_USAGE(.BOTH.,#965);
#963=SURFACE_STYLE_USAGE(.BOTH.,#966);
#964=SURFACE_SIDE_STYLE('',(#967));
#965=SURFACE_SIDE_STYLE('',(#968));
#966=SURFACE_SIDE_STYLE('',(#969));
#967=SURFACE_STYLE_FILL_AREA(#970);
#968=SURFACE_STYLE_FILL_AREA(#971);
#969=SURFACE_STYLE_FILL_AREA(#972);
#970=FILL_AREA_STYLE('Steel - Satin',(#973));
#971=FILL_AREA_STYLE('Aluminum - Bead Blasted',(#974));
#972=FILL_AREA_STYLE('Aluminum - Knurled',(#975));
#973=FILL_AREA_STYLE_COLOUR('Steel - Satin',#976);
#974=FILL_AREA_STYLE_COLOUR('Aluminum - Bead Blasted',#977);
#975=FILL_AREA_STYLE_COLOUR('Aluminum - Knurled',#978);
#976=COLOUR_RGB('Steel - Satin',0.627450980392157,0.627450980392157,0.627450980392157);
#977=COLOUR_RGB('Aluminum - Bead Blasted',0.96078431372549,0.96078431372549,
0.964705882352941);
#978=COLOUR_RGB('Aluminum - Knurled',0.96078431372549,0.96078431372549,
0.964705882352941);
ENDSEC;
END-ISO-10303-21;
